<?xml version="1.0" encoding="UTF-8"?><svg id="Layer_2" xmlns="http://www.w3.org/2000/svg" xmlns:xlink="http://www.w3.org/1999/xlink" viewBox="0 0 457.3 484.07"><defs><style>.cls-1{fill:none;}.cls-2{clip-path:url(#clippath);}.cls-3{fill:#f5f5f5;}.cls-4{fill:#a6ca54;}.cls-5{fill:#208d45;}.cls-6{fill:#5cad4a;}.cls-7{clip-path:url(#clippath-1);}.cls-8{opacity:.15;}</style><clipPath id="clippath"><rect class="cls-1" width="457.3" height="484.07"/></clipPath><clipPath id="clippath-1"><rect class="cls-1" x="-123.1" y="-87.03" width="731.05" height="662.56"/></clipPath></defs><g id="Laag_4"><rect class="cls-3" width="457.3" height="484.07"/><g class="cls-8"><g class="cls-2"><g class="cls-7"><g><path class="cls-4" d="M570.78,163.03c1.1,.13,2.14,.06,3.21-.33,3.8-1.38,4.65-1.05,5.68,2.42,1.44,4.84,3.21,9.57,5.49,14.16,3.56,7.18,7.25,14.32,10.63,21.57,4.28,9.19,6.87,18.68,6.22,28.72-.25,3.89,.07,7.81,4.62,10.2,.96,.5,.57,1.4,.65,2.14,1.46,13.26-2.89,25.62-7.8,37.9-7.95,19.88-17.9,39.15-24.26,59.52-1.55,4.98-2.76,10.03-5.74,14.6-3.09,4.73-8.14,7.59-12.91,10.81-8.13,5.49-9.46,11.87-1.88,18.2,4.4,3.68,7.45,7.55,6.96,13.08-.47,5.43-6.03,14.58-11.24,18.08-1.07-2.13-2.06-4.26-3.2-6.33-1.42-2.56-3.94-3.2-7.01-2.79-7.14,.94-11.12,6.96-7.9,11.94,1.43,2.22,4.09,2.94,6.43,4.05,.34,.16,.76,.2,1.14,.27,8.58,1.57,8.4,7.13,4.26,12.04-4.07,4.84-9.43,8.69-14.36,12.86-5.77,4.88-11.84,9.49-17.62,14.35-1.87,1.57-2.91,2.03-4.95,.04-5.24-5.12-14.92-5.12-20.49,.08-2.44,2.27-2.51,3.8,.08,6.01,1.19,1.01,2.52,1.92,3.9,2.74,3.21,1.9,3.12,3.45-.25,5.32-2.07,1.15-4.37,1.59-6.69,2.08-3.84,.8-7.8,1.3-11.17,3.31-4.89,2.9-6.07,5.52-4.36,10.35,.63,1.79,1.62,3.51,2.59,5.19,1.07,1.85,1.17,3.66-.07,5.42-4.76,6.78-10.72,12.51-18.87,16.41-3.41,1.63-7.11,1.39-10.71,1.78-1.78,.19-3.57,.17-5.34,.57-4.78,1.08-7.29,3.41-7.99,7.68-.15,.94-.27,1.92-.11,2.85,1.23,7.15-2.88,8.67-9.59,10.85-3.21,1.04-6.52,1.38-9.75-.22-1.22-.6-2.56-.59-3.53,.44-7.77,8.2-18.6,10.62-30.01,11.56-8.75,.72-17.39,2.21-26.22,2.35-11.54,.19-22.96-.86-34.28-2.48-6.62-.95-12.92,.07-19.3,.91-3.38,.44-6.77,.42-10.48,.42,1.32,2.16,3.4,3.02,5.72,3.73,2.84,.86,6.05,1.24,7.75,3.87,.4,.61,.98,1.29,.67,1.9-.38,.76-1.42,.35-2.15,.35-18.01,.05-36.02,.06-54.04,.11-1.72,0-3.34-.36-5.01-.61-3.91-.59-5.64,.78-5.4,4.2,.25,3.66-.03,3.78-4.19,3.12-15.49-2.46-30.89-5.69-46.51-7.05-19.74-1.72-37.95-7.23-56.04-13.58-9.45-3.32-19.36-5.02-29.51-4.83-30.7,.59-58.37-7.54-84.31-21.12-11.71-6.13-22.76-13.04-33.54-20.29-2.28-1.54-4.64-3.09-5.44-5.7-.79-2.59-.24-3.22,2.77-3.33,5.98-.2,10.1-3.03,11.81-8.03,.63-1.86,.55-3.61-.79-5.19-4.63-5.44-14.2-9.03-20.86-.85-2.78,3.41-2.95,3.39-6.81,.86-4.76-3.11-7.51-7.56-10.49-11.81-4.82-6.87-10.35-13.32-15.45-20.02-8.02-10.54-14.32-21.7-17.57-34.07-.67-2.54-.34-5.02,.54-7.42,2.88-7.85,3.24-15.63-.6-23.32-.64-1.29-.08-1.6,1.23-1.97,6.6-1.83,8.67-4.42,8.71-10.54,.02-3.18-.72-6.22-2.43-9.01-1.58-2.57-4.08-4.65-7.53-4.38-4.27,.33-6.14-1.93-8.24-4.32-10.06-11.41-16.57-24.33-21.46-37.93-2.69-7.47-5.23-14.98-7.86-22.47-.1-.3-.39-.55-.59-.82,0-18.03,0-36.05,0-54.08,1.88-1.99,3.18-4.26,4.34-6.62,5.34-10.82,5.79-22.47,7.73-33.86,.66-3.86,.49-7.89,2.92-11.4,.56-.82,.36-1.4-.21-2.27-3.44-5.21-4.16-10.79-2.44-16.59,1.64-5.52,3.5-11.05,3.78-16.75,.35-7.11,1.01-14.15,2.51-21.15,2.69-12.62,7.68-24.47,15.55-35.38,.47,1.66,1.96,2.51,3.51,3.31,4.69,2.43,10,3.86,14.39,6.77,3.84,2.55,4.05,2.29,7.07-1.04,4.42-4.87,5.07-10.7,6.32-16.42,.98-4.47,1.91-8.95,4.72-12.92,.03,.78,.02,1.56,.08,2.34,.38,4.94,2.7,7.68,7.8,8.31,3.45,.43,6.75-.46,9.71-2.29,5.29-3.26,7.51-9.56,4.96-14.69-.72-1.45-.93-2.98-.86-4.54,.3-.02,.61,0,.9-.07,21.47-5.25,42.28-12.2,63.28-18.65,4.84-1.49,9.71-2.88,14.69-4.36,0,.97-.58,1.24-.97,1.61-3.81,3.68-9.26,5-14.03,7.29-4.94,2.38-9.56,5-11.46,9.98-.26-.44-.73-.49-1.24-.53-5.34-.5-7.58,3.45-10.98,5.73-5.52,1.66-11.28,2.97-15.03,7.34-1.81-.65-3.57-1.46-5.44-1.9-1.73-.41-4.24-1.02-4.54,1.33-.4,3.1-2.55,5.16-4.67,7.24-4.75,4.67-5.02,6.03-1.43,11.53-.2,2.38-1.8,2.36-3.76,1.6-.54-.21-1.03-.52-1.53-.8-1.68-.95-2.83-.98-3.43,1.05-.41,1.4-1.29,2.7-1.97,4.05-1.64,3.25-3.27,6.52-3.11,10.15,.13,2.86,1.51,5.3,4.72,6.39,3.03,1.02,5.59-.22,7.87-1.97,2.66-2.05,3.87-4.75,4.78-7.62,.47-1.47,.62-3.1,2.29-4.08,.24,1.18,.59,2.34,.69,3.53,.24,2.84,1.87,4.93,4.79,6.01,2.84,1.05,5.82,.56,8.05-1.22,2.53-2.02,5.24-3.95,7.09-6.57,1.75-2.48,2.4-5.05,1.19-7.81-.73-1.66-1.6-3.27-2.41-4.9,1.5,.01,2.99,.02,4.49,.03,7.78,.08,14.9-1.73,21.21-5.7,2.65-1.67,5.08-3.56,7.41-5.57,4.34-3.73,9.31-3,11.97,1.68,.92,1.62,1.71,3.29,2.58,4.93,1.06,1.99,2.64,2.39,4.77,1.17,1.93-1.11,3.7-2.33,4.45-4.34,1.85-.7,2.59-2.32,3.83-3.51,4.16-4.02,9.51-6.73,14.32-10.05,4.8-3.31,8.99-7.09,9.48-12.84,4.97-5.1,11.37-8.16,18.7-10,1.61-.4,3.71,.17,4.8-1.5,1.44,.56,2.88,1.11,4.3,1.73,3.98,1.73,8.13,2.89,12.37,.37,1.75-1.04,3.11-2.36,4.42-3.8,2.62-2.85,3.79-6.45,6.5-9.24,.46-.13,.96-.21,1.38-.41,5.83-2.83,10.77-6.72,16.03-10.22,6.5-4.33,13.56-7.8,21.88-7.95,8.93-.16,17.4,1.55,23.75,7.72,1.91,4.42,5.59,5.77,10.33,3.79,1.79-.75,3.52-1.62,5.36-2.28,8.24-2.96,15.1-2.28,18.93,6.27,.21,.48,.39,.97,.55,1.47,1.12,3.43,3.89,5.57,7.58,6.74,3.33,1.06,6.77,1.91,10.21,2.66,12.7,2.75,25.63,3.42,38.67,3.15,4.84-.1,6.27-1.39,5.71-5.54-.28-2.1-2.21-2.98-4.06-3.78-9.76-4.25-19.49-8.58-29.36-12.63-9.05-3.72-18.41-6.67-28.32-8.34-4.24-.72-8.7-.27-12.76-1.84-1.03-1.65-3.1-1.72-4.8-2.22-5.19-1.51-9.69-3.82-12.1-8.23-2.95-5.4-7.44-5.28-12.86-4.47-5.26,.78-10.33,2.49-15.59,3.34-9.62,1.57-18.8,4.3-27.88,7.35-3.38,1.13-6.66,2.57-10.83,3.21,2.2-3.86,5.23-6.45,8.73-8.56,9.77-5.88,21.52-7.98,32.11-12.35,5.66-2.34,12.06-2.57,18.28-3.26,9.34-1.02,18.65-1.35,28-.43,4.47,.44,5.9,2.68,3.95,6.11-.93,1.62-2.1,3.14-2.98,4.77-.64,1.19-.88,2.62,.13,3.69,1.01,1.07,2.46,.9,4.09,.73,4.6-.47,9.16-.87,13.92-.36,11.27,1.21,19.7,6.32,26.89,13.39,2.23,2.2,4.1,2.84,7.5,1.86,.64,.4,.67,1.24,1.58,1.46,2.84,.69,5.65,1.49,8.51,2.13,2.98,.67,6.01,1.13,9-.03,1.77,5.12,5.95,8.03,11.48,10.05,7.41,2.71,16.02,1.54,22.95,5.59-.71,2.81-1.18,5.72,1.16,8.06,4.17,4.16,9.93,6.45,15.35,9.09,2.14,1.05,5.55,.7,6.07,3.46,.51,2.73-2.17,3.96-4.32,5.37-2.55,1.67-2.38,3.47,.22,5.2,2.19,1.46,4.72,2.19,7.36,2.58,10.11,1.48,18.64,5.61,26.06,11.56,6.22,4.98,11.18,10.93,16.74,16.42,9.62,9.48,14.07,20.54,14.64,32.88,.36,7.95-.02,15.92,.6,23.87l-1.1,.03c-1.03-2.14-2.03-4.29-3.11-6.41-3.41-6.74-5.99-13.52-2.21-20.84,.82-1.59-.27-2.77-1.5-3.82-3.25-2.8-6.09-5.9-8.91-9.03-7.5-8.31-13.82-17.45-23.15-24.48-5.84-4.4-12.45-7.57-20.16-8.11-12.17-.86-23.38-4.28-34.37-8.51-9.44-3.64-18.49-7.98-28.06-11.39-9.22-3.29-18.7-5.73-28.68-6.1-4.03-.15-7.31-1.09-10.24-3.42-4.06-3.22-8.58-5.62-14.45-4.98-5.4,.59-10.76,1.33-15.97,2.76-9.43,2.58-18.14,6.54-26.94,10.33-2.32,1-4.69,1.74-7.31,2.01-5.32,.55-8.83-2.13-12.19-4.98-7.64-6.49-17.24-7.92-26.8-3.73-4.88,2.13-9.9,3.95-14.97,5.7-7.96,2.73-15.7,5.88-21.93,11.11-10.33,8.67-22.02,15.05-36.39,17.44-7.1,1.18-11.67,4.95-12.89,11.31-.51,2.65-1.43,5.17-4.23,6.49-5.05,2.38-10.59,3.74-16.12,5.05-7.09-.28-14.14,.19-21.13,1.06-5.35,.67-10.55,2.04-14.91,4.95-3.94,2.63-7.68,5.47-11.46,8.27-10.35,7.67-20.64,15.42-32.28,21.62-2.79,1.49-4.08,3.39-3.8,6.2,.38,3.84-.26,7.54-1.89,11.17-2.1,4.65-3.99,9.38-5.86,14.11-4.23,10.7-8.56,21.36-13.95,31.68-3.26,6.24-4.08,12.83-3.34,19.52,.86,7.79,.77,15.48-1.12,23.17-2.05,8.37-5.2,16.47-7.78,24.71-2.48,7.89-3.76,15.88-2.37,24.01,1.53,8.96,5.37,17.29,9.68,25.5,1.63,3.12,4.08,5.98,4.55,9.52-4.94,.94-6.2,2.22-6.06,6.48,.08,2.39,.38,4.77,.59,7.16-1.23-.02-2.46-.03-3.69-.05-1.14-3.8-1.81-7.7-3.54-11.36,.58-.33,.58-.85,.64-1.37,.47-4.16-2.05-7.11-5.44-9.55-6.56-4.71-11.19-10.37-13.38-17.64-2.13-7.08-1.6-14.23-1.58-21.37,.01-3.46-.85-6.64-2.63-9.71-3.84-6.64-3.17-12.97,2.01-18.92,2.91,4.36,5.92,8.67,8.67,13.11,1.04,1.68,1.99,1.5,3.39,.6,5.7-3.68,7.13-7.95,5.22-14.05-1.02-3.26-2.77-6.43-2.35-9.96,1.06-2.88,2.23-5.73,3.17-8.64,1.28-3.96,2.27-8-1.05-11.63-2.63-2.88-6.46-3.92-10.39-4.75-4.67-.98-6.58-2.95-6.68-7.09-.08-3.72,.01-7.45-.07-11.17-.11-4.74,.99-9.26,3.04-13.63,1.97-4.2,5.41-7.65,7.89-11.6,5.51-8.74,5.2-13.9-1.89-21.87-1.76-1.97-4.2-3.46-5.44-5.78,7.82-2.23,8.82-3.29,8.47-10.26-.13-2.7-1.15-5.37,.11-8.05,2.68,2.67,3.71,6.07,5.26,9.21,6.36,12.87,9.93,26.33,10.84,40.32,.03,.41-.13,.94,.42,1.15,.74,.28,1.02-.29,1.36-.7,1.94-2.3,3.67-4.66,4.81-7.37,1.68-4,2.18-8.19,2.93-12.33,.62-3.43,2.3-6.56,3.13-9.93,1.44-5.83-.3-11.47-.97-17.18-.52-4.5-.71-8.95,1.99-13.08,.24,3.53,.49,7.05,.73,10.58,.29,4.35,3.46,5.78,7.63,3.41,4.47-2.53,6.22-6.23,6.18-10.71-.07-8.38-1.75-9.78-11.35-9.41,.05-2.49-.47-5.01,.32-7.46,.44-1.38,.26-2.69-.96-3.57-1.27-.92-2.8-.51-4.22,.05-3.92,1.56-7.4,3.64-10.54,6.23-4.05,3.33-7.55,7.09-11.08,10.8-2.31,2.43-5.08,4.58-6.75,7.46-1.65-1.3-3.78-1.89-5.77-2.5-3.72-1.15-7.26,.03-8.37,2.88-1.78,4.54-2.46,9.22,.19,13.73,1.34,2.28,2.99,4.42,4.51,6.63-2.82,1.44-3.44,4.16-4.87,6.39-1.7,2.64-3.56,3.19-6.61,1.69-1.16-.57-2.2-1.32-3.43-2.07v25.35c1.76,.04,2.46-1.24,3.63-1.82,2.29-1.13,4.39-.32,4.62,1.94,.08,.86,.05,1.71-.42,2.53-6.33,11.1-7.16,23.2-8.55,35.2-.88,7.62-1.46,15.28-2.61,22.87-1.37,9.06-2.06,18.16-2.77,27.26-.43,5.45,.22,10.88,.66,16.3,.39,4.84,1.29,9.67,2.72,14.79,2.42-2.45,2.69-5.47,4.72-7.71,2.37,1.52,4.08,3.19,3.97,5.84-.11,2.57,.07,5.15-.16,7.71-.54,5.99,1.87,10.63,7.91,13.74-.8,.02-1.61,.13-2.38,.03-3.95-.47-5.25,1.94-5.45,4.67-.1,1.37,.14,2.78-.05,4.14-.5,3.56,3.13,6.21,6.14,7.06,3.24,.92,5.31-.96,7.21-2.89,.98,.04,1.96,.07,2.94,.11-2.12,4.12-1.31,8.25,.32,12.25,.96,2.37,2.15,4.8,5.11,5.98,.65,4.92,2.01,9.61,5.25,13.82,1.49,1.94,2.18,1.47,3.01-.29,1.09-2.31,2.26-4.59,3.39-6.88,.63,2.83,.28,5.69,.35,8.54,.16,6.66,4.15,11.71,10.58,13.53,7.52,2.13,15.62-.36,17.31-7.62,.5-2.17,.35-4.45,.49-6.68,.57,.12,1.22,.13,1.71,.37,8.35,4.2,14.07,10.13,16.06,18.47,1.68,7.06,.26,13.98-1.99,20.7-1.95,5.84-.57,10.75,3.68,15.25,6.39,6.75,11.99,13.99,14.4,22.5,1.75,6.17,4.31,11.42,11.02,14.56-4.76,.67-9.83,.82-12.21,5.48-1-1.18-2.03-2.34-2.99-3.54-8.14-10.21-14.99-20.96-18.71-33.07-1.33-4.34-3.25-8.58-7.07-11.82-2.75-2.34-5.88-4.3-8.4-6.91-2.59-2.69-5.55-3.14-8.22-1.92-2.56,1.17-4.57,4.91-4.15,7.55,.85,5.25,3.29,9.91,6.92,14.12,2.04,2.37,3.6,4.92,4.93,7.64,1.38,2.81,.86,5.95,2.32,8.72-1.41,2.58-1.01,5.37-1.27,8.09-.51,5.31,.87,10.02,5.74,13.62,5.54,4.09,12,2.57,14.31-3.42,1.07-2.76,1.48-5.64,1.81-8.53,1.43,.11,1.58,1.13,1.92,2.01,.92,2.35,1.76,4.73,2.75,7.06,1.01,2.39,2.6,4.42,5.23,5.72,4.05,2,5.05,1.58,5.77-2.43,3.66-.05,6.51,1.93,9.75,2.92,3.94,1.2,5.62,.49,7.03-2.85,.78-1.83,.05-3.76,.93-5.53,1.72-2.46,2.17-5.07,1.66-7.93-.62-3.46-2-6.66-3.56-9.85-1.08-2.21-2.42-4.39-2.66-7.27,.65,.51,.99,.7,1.21,.96,8.61,10.15,18.55,19.21,29.43,27.56,14.36,11.01,30.31,19.99,47.17,27.79,8.73,4.04,17.66,7.73,26.75,11.13,.76,.28,1.99,.37,1.95,1.33-.03,.79-.95,1.3-1.7,1.72-1.92,1.07-3.97,.84-6.08,.45-4.63-.86-6.19-.33-7.72,2.47-3.14-1.14-6.07-2.71-9.59-3.05-2.33-.23-4.02,.08-5.09,2.06-1.44,2.67-1.41,5.42-.91,8.23-3.51-1.43-6.18-3.43-7.98-6.6-3.34-5.86-8.86-10.01-15.78-12.51-10.09-3.65-20.9-4.86-31.56-6.52-1.66-2.03-3.23-4.12-5.01-6.07-3.76-4.12-8.55-6.33-14.8-5.78-6.22,.55-9.91,5.24-8.33,10.48,.67,2.21,1.82,4.2,3.13,6.11,2.69,3.89,6.27,6.96,11.67,7.7,4.69,.64,8.96-.95,13.18-2.47,2.96,.08,5.48,1.17,7.5,2.9,6.96,5.94,14.87,10.74,23.32,14.88,9.57,4.68,19.73,7.88,30.75,8.77,4.31,5.8,10.25,9.26,18.27,10.33,5.63,.75,9.06-2.17,7.42-6.91-1.13-3.29-4.92-5.91-8.92-5.93-5.49-.03-10.99,.09-16.48,.15-.91-1.78-1.83-3.55-2.74-5.33,1.38-.01,2.77-.1,4.14-.03,5.02,.28,8.8-1.34,11.1-5.31,12.38,5.94,25.7,10.06,38.54,15.11,10.36,4.07,20.32,8.71,28.74,15.48,.83,.67,1.61,1.29,2.84,1.18-1.27,3.71,2.06,11.02,5.87,12.87,.25,.12,.58,.1,.87,.16,3.23,.65,6.54,.72,9.78,.39,6.3-.62,9.88-6.59,6.43-10.48-1.63-1.84-3.36-3.61-5.04-5.42,.49-.06,1-.08,1.48-.17,6.12-1.14,9.69-6,4.85-10.69-4.6-4.46-5.94-9.81-3.77-15.64,.61-1.63,1.13-3.27-.93-4.39-1.94-1.05-3.55-.19-5.17,.84-3.87,2.47-8.12,3.32-12.96,2.54-5.41-.87-10.29-3.25-15.77-3.84-2.09-3.76-5.33-6.17-10.3-6.51,.14-4.45-3.08-6.83-7.09-8.79-2.49-1.21-5.45-1.78-7.35-3.85,1.68-.01,3.35-.07,5.03-.03,4.75,.09,6.07-1.05,6.07-5.27,2.58,.03,5.17-.29,7.68,.62,15.55,5.61,31.24,5.11,47.02,.8,12.12-3.31,23.55-8.02,34.86-12.97,2.94-1.29,5.17-.27,5.66,2.61,.34,2.04-.23,3.96-1.46,5.71-3.57,5.09-7.28,10.1-10.72,15.26-2.08,3.12-4.76,5.97-6.09,9.46-2.96-.95-5.81-2.29-8.98-2.58-7.45-.69-14.59-.42-15.83,8.7-.47,3.47,1.44,6.12,5.31,6.79,2.67,.47,5.3-.36,7.94-.01,6.68,.89,12.33-2.76,14.33-8.35,1.13,.08,2.14-.26,3.17-.63,3.14-1.12,6.43-1.81,9.71-2.54,9.27-2.05,18.8-2.81,28.23-4.03,5.71-.74,11.28-2.05,16.99-2.76,.44,.45,.81,.97,1.32,1.35,6.92,5.31,10.3,5.69,16.28,1.46,2.09-1.48,3.09-3.72,4.88-5.42,2.81,.16,5.52-.21,8.24-.88,5.55-1.37,11.19-2.31,17.02-2.23,2.87,.04,4.81,1.26,5.6,3.53,.84,2.42-.59,4.16-2.95,5.37-1.47,.75-3.05,1.26-4.73,1.54-2.43,.41-4.27,1.48-4.98,3.61-.94,2.83-2.52,5.03-6.33,5.23-2.3-.93-4.86-.69-7.26-.96-3.73-.41-7.59-.33-11.34,0-3.03,.27-5.93,1.18-8.04,3.43-3.21,3.41-3.49,7.54-4.13,11.6-1.41-1.87-2.68-3.83-4.26-5.59-2.11-2.35-5.01-2.53-7.51-.48-1.8,1.48-3.43,3.13-4.95,4.83-.9,1.01-1.59,1.16-2.97,.67-12.9-4.57-23.89-.69-34.21,5.96-1.26,.81-1.36,1.64-.43,2.86,2.52,3.33,6.66,4.79,11.52,3.19,6.22-2.05,12.18-2.06,18.32,.11,2.48,.88,5.16,1.32,7.87,.4,3.08-1.05,4.05-3.16,2.7-5.77-.89-1.71-2.58-3.07-2.97-5.01,6.65-1.6,6.11-1.94,7.99,3.59,.06,.17,.09,.34,.16,.5,1.52,3.5,3.83,3.97,7.25,1.54,1.44-1.03,2.73-2.27,4.62-2.74l10.19,.15c1.94,2.05,4.79,1.72,7.31,1.88,7.94,.52,15.28-1.78,22.59-4.04,5.15-1.6,10.36-2.93,15.78-3.74,5.9-.87,11.98-1.62,14.83-7.23-.14,1.96-.36,3.92-.39,5.89-.03,2.23,1.47,3.55,3.87,3.95,2.73,.46,5.35,.06,7.67-1.36,2.28-1.4,4.32-3.05,6.16-4.85,2.7-2.66,3.98-5.77,3.4-9.35,5.9-5.4,12.72-9.75,20.36-13.26-1.36-.22-2.62-.14-3.86-.24-3.13-.23-6.33,.6-9.41-.45,1.32-1.96,1.98-4.04,1.9-6.35-.11-3.19-1.57-6.15-1.83-9.3,2.58,0,4.86-.93,7.12-1.83,16.15-6.44,26.04-18.09,34.31-31.06,1.06-1.67,1.29-3.63-.8-4.91-2.16-1.32-4.58-1.61-6.84-.05-3,2.07-6.48,3.33-9.94,4.68-6.99,2.73-14.25,5.22-17.76,11.87-.47-.31-1.02-.56-1.41-.93-3.55-3.36-7.1-6.73-10.59-10.14-1.48-1.44-3.1-2.67-5.18-3.39-4.33-1.49-7.24-.18-7.42,3.84-.15,3.35-.81,6.67-.75,10.03,.09,5.46,2.8,8.38,9.06,9.47-5.49,3.56-11.64,4.15-18.07,2.73-5.38-1.19-10.72-2.56-16-4.08-6.71-1.92-9.04-6.8-6.19-12.32,.65-1.25,1.21-2.56,1.61-3.89,.93-3.09-.58-5.11-4.21-5.96-1.34-.31-2.63-.78-3.92-1.23-2.39-.83-4.81-1.82-7.4-1.71-3.68,.16-5.68,2.23-7.19,5.06-2.85,5.31-6.39,7.18-11.74,6.72-1.18-.1-2.34-.39-3.52-.49-6.42-.51-12.8-1.23-19.23-1.69-9.49-.69-18.94-1.72-28.47-1.91-2.22-.04-4.37-.39-6.49-.72-1.82-.29-3.97-.88-4.4-3.01,.78-3.3,2.45-4.43,6.31-4.66,4.15-.26,8.3-.58,12.41-1.11,9.91-1.28,19.86-2.14,29.86-2.61,6.03-.28,12.18-.04,17.18-3.87,1.01-.77,2.44-1.15,3.72-1.63,2.37-.88,2.71-2.13,.64-3.48-1.29-.84-2.51-1.73-3.52-2.79-2.09-2.2-1.84-5,.58-6.25,1.82-.94,3.99-1.66,6-1.02,6.58,2.11,13.38,1.46,20.12,1.47,6.66,.01,13.04,.78,19.09,3.33,1.85,.78,3.91,1.24,6,1.32,6.48,.27,10.23-3.09,13.09-7.55,.71-1.11,1.04-2.53,3.03-2.4,1.45,.84,3.09,.64,4.65,.5,7.53-.68,14.76-2.48,21.94-4.49,4.42-1.24,8.91-2.48,13.48-3.1,4.86-.66,9.55-1.7,13.95-3.48,11.33-4.59,19.12-12.31,25.13-21.61,1.36-2.1,1.91-4.66,4.31-6.23,.09,2.23,.57,4.41,1.12,6.59,1.98,7.78,6.76,14.37,11.68,20.91-3.33-.25-6.22,.78-9.09,2.12-2.19,1.02-3.95,2.68-6.45,3.21-.06-1.55-.16-3.1-.15-4.65,0-1.32-.57-1.85-2.16-2.24-5.97-1.47-11.21,1.91-12.07,6.47-1.07,5.65-.4,7.22,5,8.59,1.02,.26,2.17,.14,3.27,.19-.12,3.59-2.11,6.8-2.78,10.29-.68,3.55,1.35,5.4,5.36,4.52,2.72-.6,5.27-1.6,7.74-2.74,2.43-1.12,5-1.31,6.85,.59,1.64,1.68,1.04,3.72-.26,5.54-4.93,6.9-9.86,13.8-14.76,20.72-2.58,3.64-5.09,7.31-7.89,11.34,2.64-.27,4.33-1.11,6.01-1.99,5.62-2.94,9.07-7.38,11.58-12.47,.82,.99,.64,2.13,.71,3.25,.2,3.28,2.18,5.73,4.9,5.55,3.55-.23,6.77-1.49,8.66-4.24,1.65-2.4,1.31-5-.36-7.33-.9-1.24-1.19-2.51-1.23-3.9,5.79-.69,10.76-3.06,15.39-5.92,5.57-3.43,10.01-7.86,13.75-12.8,5.08-6.7,9.64-13.64,13.53-20.92,1.53-1.7-.26-3.96,1.26-5.66,2.76,.14,4.46-.95,4.61-3.35,.14-2.24,.05-4.49-.09-6.73-.24-3.84-1.44-7.62-.48-11.55,.5-2.07,1.35-3.95,2.4-5.81,1.4-2.5,1.02-3.12-2.01-3.81-2.27-.52-4.46-.53-6.78-.1-4.36,.8-7.36,3.31-10.46,5.74-3.29,2.58-6.72,4.97-11.36,5.3-3.77,.27-3.67,.16-2.33,3.2,1.46,3.3,1.39,5.26-1.23,6.25-1.94-2.25-3.8-4.53-5.96-6.64-3-2.93-4.79-6.22-2.65-10.29,.78-1.49,.14-2.96-1.05-4.3-1.52-1.71-3.69-2.16-5.87-2.7,5-5.32,9.9-10.71,15.05-15.92,2.67-2.71,5.26-5.6,9.26-7.06-.11,2.99-.34,5.99-.31,8.98,.03,2.79,3.32,5.99,6.54,6.63,3.02,.6,5.93-.8,7.67-3.74,1.31-2.21,2.11-4.57,2.8-6.98,1.52-5.31-1.58-10.72-7.47-12.73,.11-1.75,1.44-3.02,2.49-4.32,3.93-4.86,7.97-9.65,12.03-14.44,6.19-7.29,11.85-14.83,15.43-23.52,1.65,3.57,2.78,7.17,3.14,10.93,.64,6.77-1.17,13.18-3.9,19.45-.53,1.21-1.04,2.41-.94,3.76,.11,1.53,.64,2.3,2.62,1.68,1.68-.52,3.43-.85,5.15-1.27,.16,2.35-.77,4.57-1.32,6.8-.77,3.11-.54,6.11,1.4,8.69,3.47,4.62,8.92,7.18,13.15,3.39,3.21-2.88,4.58-6.64,4.01-10.69-.72-5.08-3.97-9.11-7.71-12.85-1.73-1.73-3.51-1.47-5.17,.43-1.06,1.21-1.59,2.85-3.55,3.35,.11-.5,.16-1.01,.34-1.49,2.78-7.28,5.75-14.52,8.35-21.85,3.26-9.21,4.87-18.57,2.33-28.17-1.05-3.98,.72-6.62,5.23-8.02,2.97-.93,6.16-1.25,8.92-2.8,5.88-3.3,8.3-8.4,10.16-13.86,2.51-7.4,3.68-14.83,.46-22.29-1.24-2.88-1.82-5.79-1.73-8.86,.18-6.66-.07-13.31-.56-19.96-.17-2.34-.95-4.42-2.97-6.28-3.83-3.53-6.68-7.61-8.5-12.29-2.53-6.54-2.08-13.23-1.63-19.89,.15-2.17,.1-4.49,1.21-6.59Zm-123.18,318.98c0-1.31-.1-2.27,.02-3.21,.23-1.85-.57-2.82-2.55-3.8-8.53-4.25-23.61,2.29-25.17,11.03-1.26,7.06,7.34,13.78,14.87,11.19,6.23-2.14,14.3-7.67,12.82-15.21Zm-225.86,61.28c2.41,.28,5.1-.37,7.68-1.3,2.18-.79,3.77-2.12,3.02-4.4-.64-1.98-1.52-3.88-3.32-5.39-4.65-3.9-10.45-4.95-16.59-5.08-5.56-.11-8.4,3.45-6.55,8.02,2.08,5.15,7.58,8.08,15.77,8.15Zm47.46,17.66c2.39,.07,4.67,.03,6.91-.54,3.84-.98,5.6-3.78,5.1-8.16-.27-2.36-2.08-3.13-6.03-3.92-5.31-1.06-10.46,.13-15.68,.17-2.66,.02-4.02,1.86-4.1,4.03-.09,2.37,.69,4.45,3.21,5.98,3.28,1.99,6.85,2.53,10.59,2.44ZM-61.78,397.07c0-1.12,0-1.64,0-2.16-.01-3.17-1.74-5.18-4.82-5.6-3.85-.53-5.59,.5-6.88,4.11-1.4,3.92,2.33,9.29,6.96,9.88,1.52,.19,2.76-.31,3.69-1.6,1.21-1.68,1.1-3.43,1.04-4.62Z"/><path class="cls-4" d="M-61.15,71.66c.63-4.43-2.08-7.08-6.45-8.59-2.58-.89-2.74-2.09-2.05-4.18,3.03-9.17,9.48-16.5,16.55-23.51,3.88-3.84,7.93-7.56,11.75-11.45,1.18-1.2,1.75-1.1,2.94-.07,7.35,6.4,14.78,4.14,21.63-1.17,1.04-.8,.84-1.68,.45-2.6-.86-1.99-2.38-3.61-4.14-5.04-1.22-.99-2.62-1.81-3.69-3.05C-15.59,10.3-10.22,5.82-5.71,.17-.78-6,6.13-8.93,14.88-8.31c5.7,.4,10.29-1.67,14.38-4.83,3.83-2.96,7.19-6.33,9.74-10.15,7.79-11.71,19.27-19.93,32.56-26.55,9.01-4.48,18.27-8.57,26.94-13.57,4.61-2.66,10.18-3.45,15.23-5.29,3.2-1.17,4.88,0,6.04,3.26q1.64,4.63,7.09,3.42c15.88-3.55,30.97-8.55,44.07-17.42,3.08-2.09,7-3.04,10.79-2.07,13.92,3.58,27.49,1.6,41.05-1.4,6.05-1.34,12.1-2.72,18.14-4.08h35.44c5.29,2.65,11.22,3.34,17.09,4.18,9.23,1.32,18.65,1.61,27.65,4.09,4.29,1.18,8.35,2.81,12.4,4.47,.8,.33,1.55,.79,2.25,1.27,1.43,.98,3.26,2.28,2.85,3.69-.48,1.66-2.9,.8-4.46,.97-2.82,.3-5.67,.41-9.32,.65,8.16,3.05,13.79,8.05,20.31,11.97,.82,.49,1.57,1.19,2.48,1.43,4.25,1.09,5.61,3.67,5.24,7.22-.79,.11-1.59,.15-2.36,.33-3.39,.79-4.09,2.37-2.23,4.99,1.73,2.44,4.12,4.17,7.28,5.1,3.01,.88,6.02,1.8,9.03,2.7,.2,5.87,3.89,9.12,11.46,10.1,4.38,.57,6.87-1.11,7.21-4.94,.12-1.37,.07-2.75,.1-4.13,1.82,1.81,3.26,3.86,5.55,5.38,4.57,3.03,9.66,5.17,14.85,7.22,6.56,2.59,12.93,5.45,17.46,10.6,2.12,2.4,4.44,4.64,7.35,6.42,4.24,2.59,9.41,3.09,13.06,1.06,4.85,2.54,9.47,5.47,15.4,5.94,4.22,.34,7.54-1.23,8.5-4.26,3.05-9.53-5.01-19.81-16.36-20.86-4.34-.4-7.62,1.17-9.4,4.62-.6,1.17-.94,2.45-1.39,3.68-.95-1.83-2.32-3.3-4.1-4.64-2.86-2.16-6.39-3.55-9-6-2.91-2.74-3.45-5.07-1.58-8.47q2.18-3.95-2.98-4.29c-.6-.04-1.22,.07-1.8-.05-1.82-.37-3.8-.59-4.47-2.52,8.09,.43,16.04,1.74,23.96,3.11,15.09,2.61,29.55,6.71,42.41,14.29,4.38,2.58,8.56,5.38,12.46,8.99-4.48,1.1-8.72,2.25-10.7,6.13-1.26,2.48-1.22,5.11-.56,7.66,1.2,4.68,6.26,7.34,13.31,7.22,6.65-.11,9.18-2.57,11.37-11.26,1.71,8.9,7.35,15.78,13.54,22.3,6.42,6.76,10.95,14.45,15.56,22.11,2.58,4.28,1.8,6.82-2.96,10.49-2.22,1.71-2.26,3.19-.72,5.15,5.94,7.59,11.83,15.22,17.74,22.84,.16,.21,.33,.41,.9,1.11,.57-7.95-6.35-13.17-7.67-20.21,5.62,1.09,9.37,3.98,12.29,7.66,4.93,6.21,6.35,13.35,6.78,20.69,.2,3.38-.24,6.74-.54,10.11-.14,1.57-.81,2.37-2.75,2.35-2.89-.04-5.79,.05-8.69,.09,5.65-5.45-.68-9.24-2.42-14.03-1.76,1.92-3.27,3.58-4.79,5.24-.31-2.65,.47-5.34-.48-7.97-1.06-2.94-4.56-4.56-8.65-3.95-2.68,.4-3.47,1.66-3.44,5.17,.01,1.43,.56,2.92-.44,4.28-3.61-6.37-7.42-12.64-12.06-18.52-3.83-4.85-7.64-9.72-11.32-14.66-2.85-3.83-2.16-6.1,2.23-8.32,1.03-.52,2.09-1.03,3.05-1.65,2.28-1.48,2.29-2.65-.15-3.99-1.84-1.01-3.76-1.99-5.92-2.46,6.73-7.64,3.46-18.2-1.41-24.54-1.03-1.34-2.68-1.96-4.64-2.01-5.92-.15-11.02,3.58-11.99,8.67-.87,4.6,.5,8.71,3.16,12.62-3.35,2.25-3.97,4.3-2.68,8.24,1.05,3.22,2.94,6.25,2.63,9.77-.17,1.92-.93,3.34-2.99,4.12-2.07,.79-3.88,.29-5.52-.96-1.44-1.1-2.54-2.43-3.56-3.82-2.57-3.5-5.37-6.87-8.68-9.88-10.67-9.71-24.36-14.78-38.73-18.79-5.5-1.53-11.04-2.91-16.75-3.75-2.14-.32-4.34-.9-4.9-3.23-.77-3.23,1.06-5.28,5.13-5.46,2.53-.11,5.06-.02,7.74-.02-.44-1.19-1.22-1.6-1.96-2.02-12.76-7.14-26.36-12.66-41.34-15.16-7.81-1.3-10.05-2.62-12.4,5.58-.97,3.38-4.39,4.28-8.13,2.76-2.91-1.18-5.43-2.9-7.76-4.81-3.69-3.01-7.68-4.95-12.9-2.99-2.01-5.74-3.97-7.41-9.2-7.73-1.19-.07-2.4,.03-3.6,.05-4.87-4.01-10.97-5.3-17.38-5.9-7.67-.72-14.47-2.87-19.43-8.4-1.62-1.8-4.15-2.47-6.72-3.08-4.24-1.01-8,.68-11.97,1.16-1.53-7.55-4.78-14.6-8.33-21.57-2.73-5.36-8.26-7.82-13.98-9.86-3.3-1.17-6.49-.03-9.1,2.02-1.34,1.05-2.01,2.45-1.6,3.99,1.2,4.56,3.89,8.15,9.26,9.72,1.5,.44,3.1,.67,4.67,.82,1.51,.15,1.9,1.09,2.38,2.04,.57,1.12-.66,1.3-1.28,1.71-3,2-6.04,3.96-9.07,5.93-.31-.21-.7-.38-.91-.64-5.43-6.87-12.72-9.24-22.28-7.87-9.74,1.39-19.92-3.85-18.18-13.42,.44-2.44-.86-2.15-2.51-1.89-3.77,.6-7.5,.45-11.29,.05-6.51-.69-13.04-1.33-19.59-1.66-8.37-.43-16.19,1.41-23.46,5.02-3.38,1.68-6.98,2.39-10.9,2.25-2.88-.1-5.79-.36-8.65,.22-7.24,1.47-12.59,5.33-17.18,10.15-.68-1.78-.33-3.61-.38-5.42-.12-4.52-1.79-5.72-6.72-4.26-7.08,2.09-13.44,5.2-14.23,12.49-.66,6.08,1.9,9.14,8.84,6.52,1.81-.68,3.66-1.41,5.71-1.4,.02,2.49-2.5,3.1-4.27,4.19-3.28,2.03-3.61,2.92-1.8,5.93-.89,.08-1.78,.14-2.67,.25-4.59,.56-9.41,.47-13.1,3.52-1.29-.01-2.53,.05-3.82,.34-9.53,2.1-17.45,7.27-26.51,10.25-2.63-2.18-5.79-3.25-9.41-3.38-6.89-.26-11.98,2.88-16.45,6.83-3.71,3.28-4.19,7.8-1.71,11.74,2.39,3.82,6.39,3.49,10.47,2.97,1.27-.16,2.59-.28,3.78,.36-4.69,1.78-8.87,4.21-12.77,7.08-5.48,4.04-11.52,6.9-19.1,5.92-.19-.93-.53-1.86-.55-2.79-.05-2.23-.6-4.12-3.33-4.99-3.11-.98-6.34-.53-8.24,1.52-1.86,2.01-3.49,4.2-4.24,6.76-1.15-.76-1.86-.39-2.69,.54-2,2.25-4.19,4.39-6.25,6.6-9.08,9.72-18.08,19.49-27.24,29.15-4.03,4.26-7.62,8.85-12.27,12.66ZM316.81-39.08c-1.4-.2-3.18,.13-4.9,.54-3.75,.89-5.64,4.36-4.13,7.35,2.68,5.32,14.22,10.99,20.88,10.26,3.39-.37,6.51-4.45,5.54-7.23-2.1-6.02-9.69-10.91-17.38-10.93Zm-34.51-37.31c-1.02,.35-2.32,.25-3.62,.27-1.3,.01-2.6-.02-3.88,.07-3.44,.23-4.95,1.69-4.98,4.7-.04,4.63,2.56,7.91,7.52,9.56,3.01,1,6.17,1.43,9.33,1.63,3.98,.24,7.21-2.19,7.52-5.32,.55-5.66-5.07-10.93-11.89-10.89Zm-82.75,.35c-1.8,0-3.61-.11-5.4,.02-4.33,.31-6.61,2.41-6.69,5.99-.09,4.46,1.75,6.47,6.39,7,4.48,.52,8.96,.48,13.44,.03,4.23-.43,6.25-1.67,6.63-4.17,.62-4.08-1.12-6.68-5.2-8.04-2.99-.99-6.08-.91-9.17-.84ZM462.77,24.93c1.18-.15,2.37-.26,3.54-.46,2.95-.51,5.03-2.09,5.47-4.58,.39-2.21-1.39-3.89-3.37-5.17-2.3-1.47-5-2.14-7.77-2.59-2.9-.46-5.87,.9-7.47,3.34-1.59,2.43-.72,4.47,1.29,6.36,2.24,2.12,5.02,3.07,8.32,3.08ZM279.29-47.83c-.19,2.17,1.06,3.95,3.26,5.26,1.66,.99,3.61,1.44,5.48,2.04,1.65,.53,3.13,.57,4.33-.71,1.26-1.34,2-2.8,1.15-4.55-.81-1.69-2.3-2.81-4.16-3.57-1.53-.63-3.13-1.12-4.68-1.72-3.8-1.46-5.4-.57-5.39,3.24Z"/><path class="cls-6" d="M107.81-41.71c4.59-4.82,9.94-8.68,17.18-10.15,2.87-.58,5.78-.32,8.65-.22,3.92,.14,7.52-.57,10.9-2.25,7.27-3.61,15.1-5.45,23.46-5.02,6.54,.34,13.07,.98,19.59,1.66,3.79,.4,7.52,.55,11.29-.05,1.65-.26,2.96-.55,2.51,1.89-1.75,9.58,8.44,14.82,18.18,13.42,9.56-1.37,16.85,1,22.28,7.87,.21,.27,.6,.43,.91,.64,1.33,4.58,4.7,7.68,9.89,8.68,6.2,1.2,11.92-.56,17.17-3.47,3.97-.48,7.73-2.17,11.97-1.16,2.57,.61,5.1,1.28,6.72,3.08,4.96,5.52,11.75,7.68,19.43,8.4,6.41,.6,12.51,1.9,17.38,5.9-1.94,1.59-3.03,3.45-2.18,5.79,1.07,2.95,3.39,4.88,6.88,5.49,3.59,.63,5.91-.5,8.1-3.59,5.22-1.97,9.21-.03,12.9,2.99,2.33,1.91,4.85,3.62,7.76,4.81,3.74,1.52,7.16,.61,8.13-2.76,2.36-8.19,4.59-6.88,12.4-5.58,14.98,2.5,28.58,8.03,41.34,15.16,.74,.41,1.51,.83,1.96,2.02-2.68,0-5.22-.09-7.74,.02-4.07,.18-5.9,2.23-5.13,5.46,.55,2.33,2.76,2.92,4.9,3.23,5.72,.84,11.25,2.22,16.75,3.75,14.37,4,28.05,9.08,38.73,18.79,3.31,3.01,6.11,6.37,8.68,9.88,1.02,1.39,2.12,2.72,3.56,3.82,1.63,1.25,3.44,1.75,5.52,.96,2.06-.78,2.82-2.21,2.99-4.12,.31-3.53-1.58-6.56-2.63-9.77-1.29-3.93-.67-5.99,2.68-8.24,1.62,1.14,3.23,2.29,4.86,3.42,2.98,2.07,6.25,2.98,10.02,1.84,2.16,.48,4.08,1.45,5.92,2.46,2.44,1.34,2.43,2.5,.15,3.99-.95,.62-2.01,1.13-3.05,1.65-4.39,2.22-5.08,4.49-2.23,8.32,3.68,4.94,7.49,9.81,11.32,14.66,4.64,5.87,8.44,12.15,12.06,18.52,.99,2.54,1.9,5.3,4.98,6.4,2.15,.77,6.45-1.64,8.03-3.94,1.51-1.66,3.03-3.32,4.79-5.24,1.74,4.79,8.07,8.58,2.42,14.03-3.9,1.97-7.23,8.55-6.39,12.66,1.06,5.21,5.4,9.29,10.6,10.06,1.43,.21,2.85,.12,4.14-.27,2.5-.75,3.56,.28,4.48,2.09,1.68,3.29,1.88,6.7,1.44,10.17-.35,2.76-.76,5.51-.62,8.27,.07,1.52-.62,1.99-2.19,1.96-.59-.01-1.19,.1-1.79,.13q-5.66,.26-5.89,5.21c-.44,9.12,3.33,11.73,13.74,9.36,2-.46,3.32-.65,3.09,1.67-1.11,2.09-1.06,4.42-1.21,6.59-.45,6.66-.91,13.35,1.63,19.89,1.81,4.67,4.67,8.76,8.5,12.29,2.02,1.86,2.79,3.94,2.97,6.28,.49,6.64,.74,13.3,.56,19.96-.08,3.07,.49,5.98,1.73,8.86,3.22,7.47,2.05,14.9-.46,22.29-1.85,5.46-4.28,10.56-10.16,13.86-2.76,1.55-5.95,1.87-8.92,2.8-4.51,1.41-6.28,4.04-5.23,8.02,2.53,9.59,.92,18.96-2.33,28.17-2.6,7.33-5.56,14.57-8.35,21.85-.18,.48-.23,.99-.34,1.49-.27,.29-.53,.58-.8,.88-1.72,.42-3.47,.75-5.15,1.27-1.98,.61-2.51-.15-2.62-1.68-.1-1.35,.42-2.56,.94-3.76,2.73-6.27,4.54-12.68,3.9-19.45-.36-3.76-1.49-7.35-3.14-10.93-3.58,8.69-9.24,16.23-15.43,23.52-4.06,4.78-8.11,9.57-12.03,14.44-1.05,1.3-2.38,2.57-2.49,4.32-3.68,2.08-6.57,4.87-9.24,7.85-4,1.45-6.59,4.35-9.26,7.06-5.15,5.21-10.05,10.61-15.05,15.92-.27,.46-.78,.43-1.27,.46-6.06,.46-10.86,2.84-14.41,7.1-.54,.65-1.22,1.32-.69,2.24-2.4,1.57-2.95,4.12-4.31,6.23-6,9.31-13.8,17.03-25.13,21.61-4.4,1.78-9.09,2.82-13.95,3.48-4.57,.62-9.06,1.86-13.48,3.1-7.18,2.02-14.41,3.81-21.94,4.49-1.57,.14-3.2,.34-4.65-.5,.83-2.23,3.61-2.22,5.35-3.42,3.02-2.09,3.93-4.52,2.32-7.74-1.07-2.15-3.11-2.79-6.91-2.03-1.5,.3-2.95,.35-4.44,.09,.69-1.63,2.5-1.88,4.04-2.38,3.84-1.26,7.96-1.49,11.92-2.31,23.06-4.76,42.84-14.37,58.38-30.08,1.64-1.66,3.75-3.13,4.36-5.45,.22-.28,.56-.54,.64-.84,2.36-9.17,7.86-17.13,12.87-25.29,3.98-6.49,8.56-12.7,11.81-19.53,1.38-2.9,1.37-6.09,3.08-8.88,5.95-9.67,9.28-20.08,11.35-30.83,.71-3.71,1.43-7.42,2.14-11.13,1.31-6.83,.41-13.68,.27-20.53-.1-4.99-1.58-9.85-2.74-14.65-.99-4.07-2.18-8.24-3.98-12.21-2.32-5.09-3.99-10.38-6.33-15.49-2.01-4.39-4.97-8.73-3.31-13.93,.41-1.28-.57-2.87-1.81-3.98-.81-.73-1.49-.9-2.43,.08-2.94,3.09-3.16,6.79-1.66,10.05,1.84,4,3.46,8.09,5.43,12.05,3.17,6.39,4.99,13.22,6.51,20.03,1.95,8.74,2.35,17.64,1.91,26.54-.09,1.73-.47,3.54-2.76,3.78-2.31,.24-4.75-.24-5.53-2.56-.99-2.94-1.84-5.93-2.46-8.94-.42-2.02-1.08-3.97-1.94-5.81-2.69-5.74-4.36-11.77-6.89-17.57-1.13-2.59-2.07-5.4-3.31-7.89-3.01-6.03-4.87-12.34-7.06-18.57-2.86-8.13-4.1-16.49-3.72-25.03,.29-6.58-2.45-11.99-8.96-15.86-2.55-1.52-4.3-3.75-5.52-6.33-2.94-6.24-4.54-12.9-9.46-18.51-3.04-3.46-.24-7.89,4.72-8.49,3.17-.38,3.58-3.3,5.95-4.34,.16-.07,.02-.65,0-.99-.28-4.28-2.4-7.9-5.07-11.42-4.13-5.44-8.38-10.86-9.82-17.45-.15-.68-.29-1.16-1.26-1.09-7.74,.63-12.58-3.3-16.88-8.07-3.3-3.67-5.92-7.78-9.97-10.97-2.71-2.13-2.01-4.2,1.47-5.43,2.51-.89,5.12-.68,7.7-.61,2.03,.05,3.73-.53,5.28-1.52,.75-.48,1.35-1.02,.05-1.77-2.27-1.31-4.26-2.94-6.55-4.28-5.92-3.46-11.49-7.35-17.68-10.5-10.18-5.18-20.45-10.06-31.76-13.31-7.09-2.04-14.08-3.56-21.57-2.95-6.93-4.05-15.55-2.88-22.95-5.59-5.54-2.03-9.72-4.93-11.48-10.05,.88-3.12,3.42-5.44,5.21-8.12,2.2-3.31,2.12-5.84-.69-7.99-4.82-3.69-10.46-5.74-17.02-5.13-7.25,.67-10.72,5.42-8.61,11.48,.71,2.06,2,3.98,2.02,6.2-3.41,.98-5.27,.33-7.5-1.86-7.2-7.07-15.62-12.18-26.89-13.39-4.76-.51-9.32-.11-13.92,.36-1.63,.17-3.08,.34-4.09-.73-1.01-1.07-.77-2.5-.13-3.69,.88-1.64,2.06-3.15,2.98-4.77,1.96-3.43,.52-5.68-3.95-6.11-9.35-.91-18.66-.59-28,.43-6.22,.68-12.61,.92-18.28,3.26-10.59,4.37-22.34,6.47-32.11,12.35-3.5,2.11-6.53,4.7-8.73,8.56,4.17-.65,7.45-2.08,10.83-3.21,9.08-3.05,18.26-5.78,27.88-7.35,5.25-.86,10.32-2.57,15.59-3.34,5.42-.8,9.91-.92,12.86,4.47,2.41,4.41,6.91,6.71,12.1,8.23,1.7,.5,3.77,.57,4.8,2.22-3.96,1.2-7.89,.04-11.72-.42-3.96-.48-7.99-.99-11.94-1.56-5.4-.78-11.06-.3-16.6-.1-1.41,.05-3.19,.02-4.66,1.27,1.19,.75,2.41,.98,3.66,1.2,3.05,.53,6.17,.31,9.21,.59,6.18,.58,9.47,1.46,9.26,8.32-.01,.35-.04,.69-.06,1.04-6.35-6.17-14.82-7.88-23.75-7.72-8.32,.15-15.38,3.62-21.88,7.95-5.26,3.51-10.2,7.39-16.03,10.22-.42,.2-.92,.28-1.38,.41-2.61-4.7-4.79-4.01-8.75-.98-2.7,2.07-5.98,3.32-9.17,4.71-4.43,1.93-9.54,1.7-14.13,3.41,1.29,1.55,3.81,1.86,4.47,3.79-1.1,1.67-3.19,1.1-4.8,1.5-7.33,1.84-13.73,4.9-18.7,10-9.09,5.84-18.2,11.66-27.28,17.52-2.31,1.49-4.85,2.7-6.89,4.51-1.58,1.39-1.62,2.96-.64,4.49,.97,1.52,2.56,.89,3.98,.43,1.03-.33,2.08-.61,3.2-.55-.75,2.01-2.51,3.23-4.45,4.34-2.14,1.22-3.72,.83-4.77-1.17-.87-1.64-1.66-3.31-2.58-4.93-2.66-4.68-7.63-5.41-11.97-1.68-2.33,2.01-4.76,3.9-7.41,5.57-6.32,3.97-13.43,5.78-21.21,5.7-1.5-.02-2.99-.02-4.49-.03-3.7-1.49-5.25-4.11-5.64-7.54-.35-3.03-.61-6.19-3.53-8.46,3.76-4.37,9.51-5.68,15.03-7.34,.03,1.64-.07,3.29,.12,4.91,.41,3.54,4.09,5.11,7.68,3.35,1.72-.84,2.8-2.18,3.64-3.67,1.78-3.17,1.51-6.47,.78-9.79,1.91-4.98,6.52-7.6,11.46-9.98,4.77-2.3,10.22-3.62,14.03-7.29,.39-.37,.97-.64,.97-1.61-4.98,1.47-9.85,2.87-14.69,4.36-21,6.45-41.81,13.4-63.28,18.65-.28,.07-.6,.05-.9,.07-.44-.2-.88-.4-1.32-.61-7.43-3.5-11.66-2.43-15.7,3.97-1.58,2.5-3.12,5.01-4.67,7.51-2.82,3.96-3.75,8.45-4.72,12.92-1.25,5.71-1.9,11.54-6.32,16.42-3.02,3.33-3.23,3.59-7.07,1.04-4.39-2.92-9.7-4.34-14.39-6.77-1.55-.81-3.04-1.65-3.51-3.31,3.02-6.38,6.05-12.76,9.17-19.35,1.29,.88,2.39,1.71,3.56,2.42,4.27,2.58,7.98,2.12,11.29-1.33,1.61-1.68,2.66-3.64,3.68-5.61,4.65-3.81,8.23-8.4,12.27-12.66,9.16-9.66,18.16-19.43,27.24-29.15,2.07-2.21,4.25-4.35,6.25-6.6,.82-.93,1.53-1.3,2.69-.54,1.14,1.7,2.28,3.41,3.98,4.77,2.71,2.16,5.39,2.12,8.11-.07,1.84-1.48,3.06-3.34,4.29-5.2,7.59,.98,13.62-1.88,19.1-5.92,3.89-2.87,8.08-5.3,12.77-7.08,3.72-.22,5.92-2.64,8.46-4.48,5.14-3.72,6.46-8.52,4.86-14.04,9.06-2.98,16.99-8.15,26.51-10.25,1.28-.28,2.53-.35,3.82-.34,.03,1.9,.1,3.81,.07,5.71-.04,2.76-.73,5.5,.05,8.27,.5,1.77,1.36,3.23,3.34,4.07,6.38,2.69,16.87-1.57,18.4-7.52,1.51-5.87-1.08-10.48-6.08-14.3-1.81-3.01-1.47-3.9,1.8-5.93,1.77-1.1,4.28-1.71,4.27-4.19,2.45-2.52,4.84-5.08,6.78-7.93Zm76.07,16.1c6.1-2.15,12.49-2.82,19-2.61,5,.16,9.96-.26,14.91-.62,2.16-.15,4.5-.17,6.58-1.25-10.15-4.94-27.47-8.85-43.45-9.08,.03-.52,.01-1.04,.1-1.54,1.55-9.49-1.97-12.69-13.15-11.93-.59,.04-1.18,.13-1.76,.24-8.14,1.59-11.2,6.8-12.57,13.22-3.4,.8-6.51,2.14-9.32,3.95-4.51,2.91-8.29,6.46-11.85,10.21-4.77,5.03-8.95,10.49-14.95,14.69,.85,.38,1.42,.23,2,.11,5.46-1.09,10.66-2.84,15.78-4.77,8.56-3.23,17.24-5.92,26.8-5.39,2.21,2.15,4.9,3.76,7.9,4.93,3.86,1.51,6.86,.81,9.42-2.13,2.11-2.42,3.52-5.16,4.55-8.04ZM534.1,113.65c1.29-4.35-.52-8.13-6.94-9.68-.65-.16-1.2-.61-1.83-.88-5.75-2.49-13.06-1.78-17.66,1.9-4.73,3.78-3.58,8.37-1.72,12.77,4.22,9.99,10.09,19.17,18.28,27.21,2.21,2.17,4.46,2.78,7.65,2.25,1.83-.3,1.89-.79,1.6-2.13-.78-3.65-1.16-7.32-.97-11.07,.33-6.49,1.73-12.9,1.59-20.36Zm-91.88-34.85c.02-5.86-4.71-12.82-10.88-15.69-7.97-3.71-17.29,.89-17.44,8.61-.03,1.81-.07,3.64,.11,5.44,.53,5.42,2.36,10.18,8.87,12.45,3.65,1.27,7.48,1.78,11.34,2.23,.96,.11,1.72-.09,2.37-.77,3.31-3.48,5.79-7.24,5.64-12.28ZM87.79,8.24c-5.23-.01-9.52,1.59-12.54,5.42-.86,1.09-1.21,2.13-.26,3.33,3.94,4.97,8.71,9.24,14.54,12.52,2.35,1.32,4.71,.32,6.49-1.21,1.86-1.58,3.28-4.12,1.96-5.82-2.03-2.61-2.16-5.28-2.46-8.08-.48-4.39-2.69-6.14-7.73-6.17Zm461.4,205.24c-4.62,.01-7.01,2.67-6.56,7.46,.29,3.1,.66,6.2,1.13,9.28,.78,5.15,4.28,7.63,9.98,7.22,3.05-.22,4.6-1.41,4.88-4.03,.51-4.74,.39-9.47-.93-14.13-1.19-4.19-3.59-5.81-8.5-5.8Zm-95.65-117.77c.03,2.26-.73,4.85,2.91,5.76,3.22,.8,7.27-.31,9.05-2.68,.7-.92,1.23-2,1.54-3.07,.59-2.01,1.02-4.05,1.4-6.1,1.05-5.56-3.96-9.77-10.48-8.82-3.15,.46-4.36,1.58-4.41,4.33-.07,3.52-.02,7.05-.02,10.57ZM386.57,25.13c4.88-.02,6.85-1.5,6.26-4.68-1.07-5.74-7.69-11.11-14.38-11.66-4.29-.35-7.11,1.84-6.62,5.15,.79,5.36,8.52,11.22,14.74,11.2Zm150.1,113.14c.03,2.6,2.42,7.47,4.61,9.37,2.66,2.31,9.07,2.08,11.41-.45,.28-.3,.49-.81,.42-1.17-.68-3.15-.1-6.38-.96-9.52-1.11-4.01-3.41-5.73-7.32-5.37-5.06,.47-8.19,3.21-8.15,7.15Zm-106.97-92.19c2.77-.02,5.22-1.12,7.59-2.46,1.48-.83,1.3-1.41-.07-2.23-2.45-1.49-4.73-3.19-7.18-4.67-2.7-1.63-5.46-3.18-8.54-4.26-1.23-.43-2.64-.87-3.7-.08-1.14,.85-.5,2.15-.13,3.18,.84,2.31,1.95,4.55,3.58,6.53,2.01,2.45,4.69,3.96,8.45,3.99Z"/><path class="cls-5" d="M375.31,409.92c1.49,.27,2.94,.21,4.44-.09,3.79-.76,5.83-.11,6.91,2.03,1.61,3.22,.7,5.65-2.32,7.74-1.74,1.2-4.52,1.19-5.35,3.42-1.99-.12-2.32,1.29-3.03,2.4-2.86,4.46-6.6,7.82-13.09,7.55-2.09-.09-4.16-.55-6-1.32-6.05-2.55-12.44-3.32-19.09-3.33-6.73-.01-13.54,.64-20.12-1.47-2.01-.64-4.18,.08-6,1.02-2.42,1.25-2.68,4.05-.58,6.25,1,1.06,2.23,1.94,3.52,2.79,2.07,1.35,1.73,2.6-.64,3.48-1.28,.48-2.71,.86-3.72,1.63-5,3.83-11.15,3.58-17.18,3.87-10,.47-19.95,1.34-29.86,2.61-4.11,.53-8.26,.86-12.41,1.11-3.87,.24-5.53,1.36-6.31,4.66-4.01-.18-7.28,1.49-10.51,3.2-3.2,1.69-6.49,3.03-10.39,2.52-1.23-2.85-4.47-2.05-6.83-2.89-9.36-3.35-19.32-4.12-29.18-5.36-9.94-1.25-19.29-3.67-26.91-9.75-2.19-1.75-4.62-3.32-7.1-4.76-6.61-3.82-12.81-3.5-19.05,.83-3,2.08-6.76,1.51-8.39-1.6-3.55-6.75-8.89-12.31-15.02-17.33-9.4-7.71-16.29-16.72-20.21-27.47-1.99-5.47-5.18-10.49-9.28-15.04-.62-.69-1.13-1.58-2.75-1.79,0,2.53,.15,4.86-.02,7.16-1.09,14.69,.58,29.01,7.18,42.73,1.02,2.13,2.08,4.3,2.25,6.67-5.27,1.77-8.29-.46-11.39-4-5.25-6-11.84-10.44-21.29-10.02,3.58-4.01,3.43-8.21,.9-12.56-1.6-2.75-3.14-5.53-4.71-8.29-.31-6.14-4.08-11.12-7.27-16.28-3.62-5.85-8.17-11.38-9.3-18.13-.56-3.34-1.07-6.51-3.38-9.41-2.96-3.72-6.22-7.08-10.14-10.12-4.52-3.49-9.46-6.81-12.34-11.59-6.69-11.13-9.8-23.12-10.4-35.57-.48-10.08,1.49-19.93,4.89-29.57,1.69-4.79,3.62-9.6,.02-14.7-15.1,14.76-19.35,33.26-24.5,52.2-3.27-8.19-8.11-14.88-11.87-22.02-2.64-5.01-4.31-10.3-3.34-15.85,.92-5.28,2.45-10.48,4.44-15.55,4.36-11.11,9.35-22.05,11.54-33.71,.44-2.36,1.94-4.23,4-5.62,5.28-3.56,9.33-8,13.04-12.74,6.55-8.35,11.86-17.42,19.6-25.1,1.55-1.53,1.38-3.92,.04-5.6-1.42-1.78-3.36-.58-5.12,.05-4.42,1.57-8.75,3.44-13.73,3.25-4.42-.17-7.11-3.6-5.8-7.28,.55-1.53,1.63-2.76,2.63-4.05,4.19-5.41,7.65-11.06,9.15-17.56,1.17-5.07,2.92-10.04,5.09-14.87,2.69-6,6.86-10.59,14.48-12.41,6.07-1.45,12.26-2.21,18.42-3.15,1.73-.26,3.84,.23,5.03-1.48,5.53-1.32,11.07-2.67,16.12-5.05,2.8-1.32,3.72-3.84,4.23-6.49,1.21-6.36,5.78-10.13,12.89-11.31,14.37-2.39,26.06-8.76,36.39-17.44,6.23-5.23,13.96-8.37,21.93-11.11,5.07-1.74,10.1-3.56,14.97-5.7,9.56-4.18,19.16-2.76,26.8,3.73,3.36,2.85,6.87,5.53,12.19,4.98,2.62-.27,4.99-1.01,7.31-2.01,8.8-3.79,17.51-7.76,26.94-10.33,5.21-1.42,10.57-2.17,15.97-2.76,5.87-.64,10.39,1.76,14.45,4.98,2.94,2.33,6.22,3.27,10.24,3.42,9.98,.37,19.46,2.81,28.68,6.1,9.57,3.42,18.62,7.76,28.06,11.39,10.99,4.24,22.2,7.66,34.37,8.51,7.71,.54,14.31,3.71,20.16,8.11,9.33,7.03,15.64,16.17,23.15,24.48,2.82,3.12,5.65,6.23,8.91,9.03,1.23,1.05,2.32,2.23,1.5,3.82-3.78,7.32-1.21,14.1,2.21,20.84,1.08,2.12,2.08,4.27,3.11,6.41,0,.78,.23,1.86,1.1,1.69,1.08-.21-.09-1.11,0-1.72-.62-7.95-.23-15.92-.6-23.87-.56-12.34-5.01-23.4-14.64-32.88-5.57-5.48-10.53-11.43-16.74-16.42-7.43-5.95-15.96-10.08-26.06-11.56-2.64-.39-5.17-1.12-7.36-2.58-2.6-1.73-2.77-3.53-.22-5.2,2.16-1.41,4.84-2.65,4.32-5.37-.52-2.76-3.93-2.41-6.07-3.46-5.42-2.65-11.18-4.93-15.35-9.09-2.34-2.34-1.87-5.25-1.16-8.06,7.48-.61,14.47,.91,21.57,2.95,11.31,3.25,21.58,8.13,31.76,13.31,6.19,3.15,11.76,7.03,17.68,10.5,2.29,1.34,4.28,2.96,6.55,4.28,1.29,.75,.7,1.29-.05,1.77-1.55,.99-3.25,1.58-5.28,1.52-2.58-.07-5.19-.28-7.7,.61-3.47,1.23-4.17,3.3-1.47,5.43,4.05,3.19,6.66,7.3,9.97,10.97,4.3,4.78,9.13,8.71,16.88,8.07,.96-.08,1.11,.41,1.26,1.09,1.44,6.58,5.7,12,9.82,17.45,2.66,3.51,4.79,7.14,5.07,11.42,.02,.34,.15,.93,0,.99-2.37,1.04-2.78,3.96-5.95,4.34-4.96,.6-7.76,5.02-4.72,8.49,4.92,5.61,6.53,12.27,9.46,18.51,1.22,2.58,2.97,4.81,5.52,6.33,6.5,3.87,9.25,9.28,8.96,15.86-.38,8.55,.86,16.91,3.72,25.03,2.19,6.22,4.05,12.53,7.06,18.57,1.24,2.49,2.18,5.31,3.31,7.89,2.53,5.79,4.19,11.83,6.89,17.57,.86,1.84,1.53,3.8,1.94,5.81,.62,3.01,1.47,6,2.46,8.94,.78,2.32,3.22,2.8,5.53,2.56,2.29-.24,2.68-2.05,2.76-3.78,.44-8.91,.05-17.8-1.91-26.54-1.52-6.81-3.34-13.64-6.51-20.03-1.97-3.97-3.59-8.06-5.43-12.05-1.49-3.25-1.28-6.96,1.66-10.05,.94-.98,1.62-.81,2.43-.08,1.24,1.11,2.22,2.69,1.81,3.98-1.65,5.2,1.3,9.53,3.31,13.93,2.34,5.11,4.01,10.4,6.33,15.49,1.8,3.97,3,8.14,3.98,12.21,1.16,4.8,2.64,9.65,2.74,14.65,.14,6.84,1.04,13.7-.27,20.53-.71,3.71-1.43,7.42-2.14,11.13-2.07,10.75-5.39,21.16-11.35,30.83-1.72,2.79-1.71,5.99-3.08,8.88-3.24,6.84-7.83,13.05-11.81,19.53-5.01,8.17-10.51,16.12-12.87,25.29-.08,.31-.42,.56-.64,.84-6.27,.37-10.87,3.51-15.43,6.82-12.88,9.37-27.06,16.52-43.88,19.14-1.38,.22-2.64,.68-3.73,1.51-3.11,2.38-6.77,3.96-10.63,5.2-3.74,1.2-7.49,2.38-11.24,3.57-1.21,.38-2.16,.94-2.07,2.22,.09,1.28,1.16,1.4,2.32,1.54,1.99,.24,3.96,.44,5.97,.22Zm-204.64-117.34l-.32-.24,.28,.28c3.58,7.68,6.96,15.49,13.56,21.74,4.8,4.54,13.29,7.72,18.7,7.25-8.11-9.55-17.17-18.25-27.54-25.9-1.49-1.1-2.64-2.63-4.68-3.12Zm278.67-57.19c-.1-.13-.04-.52-.4-.17l.39,.18c-.17,.81,.15,1.52,.48,2.26,5.23,12,7.26,24.56,8.59,37.24,.65,6.19,1.4,12.38,2.2,18.56,.73,5.68,1.59,11.37-.2,17.01-3.29,10.39-10.04,18.75-20.05,25.11-2.98,1.89-6.14,3.57-9.14,5.45-5.53,3.47-9.5,7.88-10.6,13.9-.9,4.94-5.67,8.62-11.49,8.88-1.29,.06-2.59,.19-3.85,.41-8.72,1.54-15.84,5.76-22.34,10.66-8.83,6.65-19.16,10.89-29.72,14.85-1.62,.61-3.45,.88-5.21,1.12-3.25,.44-6.54,.64-9.79,1.11-12.72,1.85-23.24,6.71-30,16.64-1.43,2.11-3.75,3.03-6.4,3.46-15.32,2.52-29.78,7.59-45.16,11.27,2.3,.68,4.18,.79,6.09,.83,15.81,.35,31.53-.94,47.26-2.04,12.36-.86,22.82-4.91,31.39-12.91,8-7.46,18.53-11.24,29.94-12.51,9.34-1.04,17.8-3.28,25.54-8,6.2-3.78,12.61-7.43,19.85-9.58,3.43-1.02,6.11-2.45,8.43-4.94,9.29-9.98,20.29-18.64,29.78-28.47,8.95-9.27,16.28-19.3,19.28-31.28,1.03-4.1,2.75-8.33,.96-12.49-3.07-7.14-4.27-14.53-4.89-22.06-.62-7.5-1.38-14.98-4.61-22.1-3.8-8.38-8.75-16.1-16.34-22.39ZM90.24,141.89c3.45-5.91,7.27-10.78,12.08-14.96,7.91-6.87,15.99-13.59,24-20.37,.36-.3,.74-.59,1.15-.84,2.64-1.59,4.78-1.07,5.92,1.51,.57,1.29,.84,2.67,1.34,3.98,1.92,5.09,6.66,6.23,11.36,2.74,.9-.67,1.78-1.42,2.45-2.27,3.17-4.02,7.56-6.62,12.72-8.33,3.26-1.08,6.58-2.05,9.87-3.06,5.23-1.6,10.15-3.58,13.89-7.35,1.28-1.29,3.19-1.69,5.21-1.57,6.5,.4,10.34,5.82,8.01,11.07-2.01,4.54-5.42,7.95-9.99,10.71-4.02,2.43-4.31,6.16-1,8.53,2.2,1.58,5.72,1.11,8.6-1.36,4.28-3.68,9.42-5.72,15.3-6.61,5.69-.87,11.52-1.06,17.08-2.57,2.83-.77,5.73-.77,8.62-.54,4.9,.38,8.58,3.39,8.86,7.14,.25,3.34-2.33,5.84-7.44,6.93-2.51,.53-5.12,.7-7.66,1.16-13.33,2.42-20.27,10.6-24.81,20.86-.34,.77-.3,1.71-.24,2.57,.18,2.75,1.61,3.54,4.54,2.47,5.15-1.88,10.53-2.58,16.08-2.65,4.19-.05,8.38-.02,12.59-.25,5.13-.29,9.55-2.41,14.35-3.51,3.22-.74,4.66-.11,5.96,2.46,.65,1.27,1.18,2.61,1.07,4.01-.24,3.02,1.37,5.34,3.59,7.44,3.19,3.02,6.8,5.57,10.93,7.62,5.06,2.51,9.42,5.77,13.34,9.54,5.66,5.44,10.13,11.59,14.59,17.75,3.87,5.35,7.86,10.64,9.33,17.01,.45,1.96,1.75,3.68,3.31,5.18,6.81,6.58,4.12,19.09-9.05,20.15-9.43,.76-10.6,3.8-4.86,10.42,1.8,2.08,3.63,4.12,4.53,6.67,1.81,5.11-.36,8.94-6.22,10.57-2.51,.7-4.79,1.7-6.9,3.07-2.16,1.4-4.28,2.86-6.53,4.14-5.92,3.37-10.21,2.6-14.31-2.47-1.54-1.91-2.88-3.97-4.55-5.79-3.17-3.45-7.42-3.65-11.18-.65-1.18,.94-2.23,1.99-3.38,2.95-4.74,4-7.6,3.79-11.4-.79-2.38-2.88-3.41-3.11-6.91-1.34-1.91,.96-3.82,1.92-6,2.3-4.49,.77-6.65-.77-6.85-4.7-.13-2.55,.66-4.97,1.29-7.41,1.5-5.79,.45-8.14-5.14-11.46-3.07-1.83-5.97-3.81-7.48-6.91-.99-2.04-1.09-4.05,.39-5.94,6.8-8.67,20.12-9.96,28.87-2.82,3.67,3,3.46,5.59-.68,8.04-.66,.39-1.38,.71-2.06,1.07-2.64,1.41-5.82,2.68-5.78,5.79,.03,3.3,3.25,4.74,6.18,6.13,.87,.42,1.81,.72,2.73,1.07,3.94,1.52,8.22,2.15,12.26,3.37,6.44,1.94,11.4,.38,15.69-4.05,6.33-6.53,5.46-10.52-3.45-14.27-2.15-.91-4.42-1.64-6.49-2.67-4.09-2.05-5.17-5.06-3.29-8.81,.63-1.27,1.48-2.46,2.19-3.7,2.3-4.01,1.24-6.79-3.49-8.63-3.38-1.31-7-2.02-10.71-2.27-4.48-.31-8.49,.72-11.99,3.24-.9,.65-2,1.16-3.1,1.53-3.31,1.12-5.92,.25-7.58-2.41-1.54-2.47-1.02-4.94,1.86-6.57,4.7-2.65,9.96-4.38,15.13-6.21,5.93-2.1,11.83-2.21,17.65,.45,1.21,.55,2.65,.81,4.01,.98,2.94,.38,7.09-1.29,8.01-3.17,1.31-2.68-.56-4.39-2.52-6.11-4.31-3.78-9.81-5.34-15.63-5.92-9.5-.93-18.32,.32-25.27,6.79-4.52,4.21-9.36,3.86-13.69-.81-6.06-6.54-11.23-6.67-17.74-.46-.54,.51-1.01,1.07-1.49,1.62-1.91,2.17-4.14,4-7.07,5.1-3.58,1.34-7.17,2.64-10.74,4-3.27,1.24-6.02,3.03-7.87,5.76-1.34,1.98-3.08,2.17-5,.57-.63-.53-1.06-1.25-1.55-1.9-3.3-4.36-6.78-5.08-11.51-1.99-4.3,2.81-8.63,5.62-12.28,9.11-4.72,4.52-8.42,9.68-12.27,14.73-5.63,7.39-4.03,14.22,4.5,19.23,3.06,1.8,6.28,3.38,9.43,5.07,6.71,3.59,10.11,8.53,8.2,15.49-.62,2.26,.29,3.85,2.15,5.26,5.49,4.14,11.5,7.44,18.65,9.04,6.61,1.47,13.28,2.39,20.16,2.21-4.72-2.3-8.84-5.13-12.27-8.67-4.06-4.19-7.26-8.91-10.78-13.43-4.64-5.96-4.63-8.46,.02-14.4,2.02-2.59,4.07-5.15,4.29-8.43,.11-1.73,1.65-2.26,3.17-2.03,6.31,.94,12.58,2.17,18,5.32,3.51,2.04,4.89,4.96,4.3,8.73-.63,4-2.99,7.31-5.01,10.77-4.6,7.88-2.51,13.46,8.09,14.69,6.77,.78,12.21,3.79,14.33,9.98,1.13,3.29,1.34,6.65,.74,10.02-.43,2.42-.51,4.84-.33,7.25,.41,5.48,4.8,9,11.1,8.99,3.2,0,6.42,.13,9.6-.08,6.8-.44,13.63-1.12,19.26-4.89,4.13-2.76,8.43-5.29,12.96-7.49,7.81-3.79,14.94-8.33,21.41-13.69,2.61-2.16,5.53-4,8.93-5.17,3.18-1.1,7.05-.57,8.58,1.32,1.78,2.2,.17,4.1-1.05,5.97-2.19,3.35-5.21,6.11-8.41,8.72-9.51,7.75-20.59,13.7-30.95,20.48-.97,.63-2.95,1.04-2.47,2.2,.48,1.15,2.34,1.39,3.9,1.47,1.59,.08,2.97-.42,4.24-1.11,8.54-4.71,17.64-8.52,26.76-12.28,13.1-5.4,26.02-10.98,38.15-17.98,16.64-9.62,27.25-31.77,18.62-47.13-1.25-2.23-1.08-4.77-.68-7.17,.39-2.33,1.8-4.33,4.45-5.17,2.3-.74,3.63,.99,5.04,2.16,1.18,.99,2.45,1.85,4.06,2.11,1.19,.19,2.63,.15,2.39-1.45-.86-5.94-2.25-11.75-5.62-17.1-2.63-4.18-6.71-7.3-10.14-10.89-2.85-2.98-5.57-6.13-5.57-10.11,0-8.9-3.66-16.71-8.71-24.21-5.17-7.69-10.45-15.3-13.11-24.09-1.49-4.93-5.82-8.23-11.53-9.79-3.47-.95-7.12-.92-10,1.17-6.45,4.67-10.03,3.42-15.27,.06-4.21-2.7-8.17-3.59-12.87-.84-2.77,1.61-6.13,2.18-8.91-.04-2.64-2.12-3.57-4.98-2.82-8.08,1.47-6.08,6.21-8.91,13-9.84,4.34-.59,8.96-1.13,11.76-4.47,1.61-1.91,2.88-1.62,4.64-.63,.75,.43,1.5,.86,2.24,1.29,4.06,2.38,7.5,5.48,11.75,7.62,2.28,1.15,4.71,1.57,7.01,0,2.39-1.62,2.49-3.77,1.7-6.11-1.13-3.35-2.89-6.4-5.09-9.34-2.07-2.77-.76-5.15,2.91-6.13,2.02-.53,3.77,.06,5.42,.85,2.62,1.26,5.19,2.62,7.44,4.35,.84,.65,1.71,1.18,2.84,1.35,1.27,.19,2.47-.07,3.32-.83,.92-.81-.1-1.61-.46-2.36-.43-.87-1.01-1.69-1.57-2.51-5.82-8.53-14.7-14.48-23.15-20.85-6.06-4.57-12.59-5.45-20.06-4.09-5.85,1.06-11.7,2.14-17.72,2.42-16.08,.73-31.41-1.91-46.13-7.43-5.22-1.96-10.38-2.09-15.69-.15-4.93,1.8-9.94,1.99-15.16,.46-5.96-1.74-11.66-1.1-16.5,2.76-2.16,1.73-3.54,3.96-5.13,6.05-4.32,5.69-8.94,6.94-16.14,4.29-4.22-1.55-8.39-1.56-12.42,.26-6.31,2.85-12.29,6.16-17.56,10.34-8.78,6.96-15.35,15.48-22.19,23.79-3.19,3.87-7.13,7.28-9.46,11.67-1.85,3.48-2.42,7.02-.44,11.4Zm96.02,255.07c-3.92-1.91-7.59-3.33-10.79-5.3-11.62-7.18-22.7-14.9-32.25-24.19-10.49-10.2-18.07-21.64-21.3-35.12-1.43-5.96-5.97-9.91-13.48-8.1-4.68,1.13-9.16,.62-12.65-2.66-2.8-2.63-3.97-6.02-4.89-9.36-1.84-6.73-5.44-11.48-14.34-12.1-4.62-.32-5.97-2.68-4.82-6.63,.29-.99,.72-2.01,1.36-2.87,5.68-7.66,7.7-16.2,8.06-25.13,.1-2.51,.07-5.02,.26-7.52,.47-6.28,1.23-12.54,1.47-18.82,.16-4.06-3.01-6.56-7.66-6.88-1.33-.09-3.43,.65-3.81-.47-.41-1.2,1.31-2.34,2.42-3.32,.91-.81,1.81-1.62,2.75-2.39,3.48-2.86,7.1-5.59,10.43-8.57,4.8-4.3,5.62-9.41,3.12-14.88-1.72-3.77-1.76-4.05,1.96-6.51,1.66-1.1,3.19-2.64,5.07-3.15,5.42-1.46,9.59-3.88,11.98-8.53,.85-1.66,2.91-2,4.95-1.33,2,.66,2.51,2.07,2.49,3.76-.03,1.99-.12,3.99,.02,5.98,.38,5.34,3.18,6.56,8.38,3.73,.25-.14,.48-.32,.73-.46,6.99-4,13.84-8.19,21.19-11.71,13.21-6.32,27.15-10.45,42.41-10.33,3.67,.03,7.34,.59,11.04,.48,3.61-.1,5.54-1.32,5.72-3.74,.26-3.56-1.6-5.52-5.14-6.22-3.43-.68-6.73,0-10.09,.02-9.38,.07-18.68-1.44-28.09-1.03-9.76,.42-18.03,3.39-24.18,10.19-2.09,2.31-6.37,3.04-9.54,1.67-3.02-1.31-3.97-3.79-2.83-7.08,.91-2.63,2.47-5.1,2.43-7.98-.03-1.95-.41-3.65-2.59-4.6-2.06-.91-3.91-.53-5.9,.5-7.81,4.01-15.76,7.82-23.55,11.85-5.09,2.63-10.79,4.1-15.92,6.6-5.52,2.68-9.72,6.23-9.09,12.29,.18,1.78,.82,3.55,1.49,5.26,.98,2.5,.51,4.62-1.21,6.8-2.57,3.26-6.27,5.53-9.37,8.31-7.45,6.69-14.09,13.88-19.64,21.82-3.41,4.89-6.38,9.98-8.59,15.37-1.72,4.17-.58,7.63,2.98,9.69,3.75,2.17,6.67,1.75,10.96-1.62,.45-.35,.83-.75,1.3-1.08,2.72-1.92,5.5-3.75,8.96-4.56,1.8-.42,3.39,.01,4.55,1.25,1.1,1.19,.68,2.42-.19,3.61-3.09,4.27-5.34,8.89-7.58,13.52-2.2,4.55-4.37,9.12-8.31,12.82-4.98,4.66-6.87,10.42-7.87,16.48-.79,4.8,1.61,8.81,4.6,12.56,3.52,4.4,5.78,9.04,5.04,14.54-.17,1.27-.11,2.63,.26,3.86,2.46,8.17,8.03,14.79,14.43,20.91,3,2.86,6.74,2.1,8.59-1.45,.94-1.81,1.51-3.73,2.03-5.67,.53-1.98,1.84-3.55,4.48-3.48,3.28,.09,6.19,2.23,6.69,5.09,.34,1.95,.81,3.89,.73,5.91-.12,3.29-.4,6.63,.14,9.86,3.1,18.73,24,34.25,47.79,30.46,2.9-.46,5.96-.38,8.82,.8,4.33,1.78,8.68,3.52,13.08,5.16,9.56,3.58,19.43,5.4,30.45,3.66Zm123.76-76c3.18,.29,6.39,.61,9.43-.36,4.47-1.42,8.57-3.72,13.54-3.88,1.78-.06,3.58-.23,5.33-.53,11.67-1.97,21.19-7.34,29.63-14.3,4.05-3.34,7.61-7.07,10.99-10.93,1.17-1.33,2.5-2.53,4.8-1.8,2.17,.69,2.57,2.08,2.58,3.91,.04,4.81-.88,9.52-2.79,13.95-6.2,14.35-17.48,24.98-32.83,32.41-9.61,4.65-20.26,7.38-29.93,11.93-4.4,2.07-8.58,4.4-12.55,7.83,10.74-.55,20.44-2.63,29.9-5.73,12.13-3.98,23.7-9.15,36.02-12.73,6.24-1.82,8.76-4.81,9.16-10.5,.56-7.86,2.82-11.35,12.22-13.06,4.8-.87,8.13-2.95,10.86-6.24,4.85-5.85,7.28-12.48,8.01-19.53,.55-5.28-.2-10.23-5.95-13.79-5.85-3.63-7.23-8.91-5.41-14.8,2.89-9.4,6.74-18.58,8.16-28.32,1.18-8.11,1.29-16.12-.62-24.18-2.03-8.56-8.08-15.91-9.47-24.69-.5-3.13-1.65-6.19-1.64-9.41,.03-7.86,.09-15.72-.02-23.57-.05-3.4-1.11-6.66-2.78-10.25-.34,1.5-.62,2.51-.78,3.52-1.52,9.46-2.89,18.94-4.45,28.39-1.47,8.93-1.47,17.88-2.04,26.82-.54,8.38-.12,16.8-.11,25.2,0,.86,.12,1.72,.17,2.58,.37,6.28,1.72,12.5,1.59,18.81-.07,3.44-2.08,4.45-5.65,2.85-2.03-.91-3.95-2.01-5.92-3.04-1.59-.83-2.39-.59-2.23,1.15,.24,2.7-.4,5.33-.9,7.96-1.82,9.58-6.03,18.39-11.54,26.79-6.41,9.76-14.54,18.1-25.58,24.23-9.28,5.16-19.21,9.17-29.2,13.29Zm45.68-1.44c-1.05-.35-1.38,.03-1.79,.25-7.04,3.84-14.5,6.93-22.27,9.47-15.51,5.08-31.72,8.1-47.55,12.27-10.7,2.82-21.23,6.01-31.06,10.78-6.44,3.13-13.46,5.19-20.87,4.62-9.54-.73-17.03-4.83-22.53-11.77-5.33-6.73-13.86-10.02-21.74-7.91-7.55,2.02-17.7-3.08-20.56-8.1-3.7-6.52-8.38-12.57-12.98-18.64-6.47-8.52-13.13-16.95-17.75-26.4-1.47-3.01-2.73-6.1-4.31-9.65,0,2.4-.2,4.24,.03,6.03,1.12,8.66,4.34,16.79,8.31,24.74,4.08,8.16,8.36,16.3,10.09,25.14,1.65,8.46,6.66,14.85,14.77,19.56,5.23,3.04,10.83,5.54,16.37,8.11,5.46,2.53,10.29,5.76,14.04,9.95,1.84,2.06,3.59,2.66,6.07,1.6,5.91-2.51,11.69-1.63,17.31,.54,8.13,3.14,16.39,5.28,25.47,4.71,7.49-.48,13.75-2.95,18.52-7.88,3.55-3.68,7.51-6.94,11.87-9.83,11.77-7.83,25.42-12.2,39.53-15.6,9.05-2.18,18.11-4.26,26.16-8.69,6.15-3.38,11.35-7.53,14.87-13.3ZM17.75,241.1c5.63-8.64,11.1-16.99,15.5-25.83,5.57-11.18,9.97-22.62,9.98-34.99,0-1.47,.66-2.64,1.7-3.77,3.05-3.32,5.86-6.8,8.42-10.42,9.08-12.82,17.3-26.17,30.26-36.62,2.69-2.17,3.68-5.28,3.58-8.57-.05-1.52-.66-1.55-1.98-.89-5.8,2.9-11.68,5.68-17.42,8.66-5.16,2.68-9.71,6.12-11.67,11.14-1.82,4.66-5.61,6.5-10.64,7.17-8.33,1.11-13.74,5.44-15.33,12.63-1.26,5.68-2.41,11.38-3.56,17.08-3.7,18.46-7.3,36.94-11.15,55.38-.69,3.33-.12,6.1,2.31,9.05Zm354.84-75.8l.77,.35c.32-.44,.59-.91,.96-1.33,6.11-6.95,9.53-14.74,9.53-23.52,0-7.94-2.55-15.47-4.85-23.08-2.41-7.97-7.98-13.8-15.34-18.6-7.88-5.13-16.69-8.83-25.6-12.36-1.92-.76-3.71-1.96-6.2-2.12,.8,2.23,2.14,3.92,3.56,5.57,3.57,4.16,8.25,7.54,11.45,11.95,4.14,5.71,5.88,11.55,.56,17.56-.95,1.08-1.67,2.35-1.31,3.87,.72,3.04,1.08,6.12,1.13,9.24,.09,5.64,3.47,8.9,9.82,10.11,2.19,.42,4.42,.07,6.52,.58,4.47,1.09,5.65,4.43,6.41,7.77,1.05,4.63,1.75,9.32,2.6,13.99Zm-167.3,237.72c8.94,5.81,18.89,7.28,29.52,5.76,11.87-1.7,23.01-5.62,34.42-8.71,2.18-.59,4.2-1.62,5.99-2.9,2.48-1.78,3.26-4.26,2.11-6.47-1.01-1.95-3.83-3.08-6.87-2.66-8.38,1.15-16.62,2.87-24.64,5.25-13.28,3.93-26.16,9.07-40.54,9.73Zm219.83-194.09c-.88,17.45,.37,34.92-.97,52.37-.42,5.5-1.29,10.95-2.04,16.42-.18,1.29-1.49,3.08-.2,3.72,1.47,.72,3.4-.44,4.88-1.34,1.56-.94,2.9-2.06,3.88-3.51,6.7-9.95,7.91-20.63,5.74-31.76-1.33-6.82-3.76-13.39-6.12-19.97-1.88-5.25-3.51-10.55-5.18-15.92ZM153.07,415.06c3.3,2.95,7.32,5.03,11.43,6.9,9.6,4.38,19.73,7.3,30.53,8.68,13.34,1.7,26.24,.96,38.61-3.92,2.73-1.08,5.24-2.57,7.96-4.67-30.17,.13-59.66,.03-88.53-6.99Zm183.81-50.1c-5.26-.45-9.86,.16-14.41,1.29-8.42,2.09-16.71,4.82-25.72,4.29-.95-.06-1.76,.32-2.42,.88-2.28,1.95-4.62,3.84-6.78,5.89-1.84,1.74-1.4,3.61,.99,4.71,1.6,.74,3.25,1.14,5.16,.59,5.78-1.64,11.67-3.03,17.42-4.74,9.39-2.8,18.25-6.46,25.76-12.91Zm110.75-143.11c.98-9.85,1.51-19.59-.1-29.31-1.31-7.89-4.2-15.22-9.51-21.83-1.87-2.32-3.69-.86-5.48-.44-2.15,.51-.68,1.95-.43,2.77,2.8,9.08,5.74,18.13,8.63,27.19,2.3,7.2,4.59,14.41,6.88,21.61Zm-70.28,.45c.99-6.33,2.75-12.52,3.81-18.8,1.59-9.43,1.86-18.79-2.8-27.74-.77-1.48-1.21-3.23-3.22-4.4-5.27,17.39,.55,34.09,2.22,50.94Zm27.78,117.42c10.79,.51,24.93-7.57,32.58-18.01,4.3-5.87,6.73-15.07,3.94-20.48-5.3,17.53-20.69,27.79-36.52,38.49Z"/><path class="cls-6" d="M46.97,109.62c-1.19,1.71-3.3,1.22-5.03,1.48-6.17,.94-12.36,1.7-18.42,3.15-7.62,1.82-11.79,6.41-14.48,12.41-2.17,4.84-3.92,9.8-5.09,14.87-1.5,6.5-4.95,12.15-9.15,17.56-1,1.29-2.08,2.52-2.63,4.05-1.31,3.68,1.38,7.11,5.8,7.28,4.98,.19,9.32-1.68,13.73-3.25,1.76-.62,3.7-1.83,5.12-.05,1.35,1.69,1.51,4.07-.04,5.6-7.74,7.68-13.05,16.75-19.6,25.1-3.71,4.74-7.76,9.19-13.04,12.74-2.05,1.38-3.56,3.26-4,5.62-2.19,11.66-7.18,22.61-11.54,33.71-1.99,5.07-3.52,10.27-4.44,15.55-.96,5.55,.71,10.84,3.34,15.85,3.75,7.14,8.6,13.83,11.87,22.02,5.14-18.95,9.4-37.45,24.5-52.2,3.59,5.1,1.67,9.91-.02,14.7-3.4,9.64-5.37,19.49-4.89,29.57,.59,12.45,3.71,24.44,10.4,35.57,2.87,4.78,7.82,8.1,12.34,11.59,3.92,3.03,7.19,6.39,10.14,10.12,2.31,2.91,2.82,6.07,3.38,9.41,1.13,6.75,5.68,12.28,9.3,18.13,3.19,5.16,6.97,10.15,7.27,16.28-2.76-1.37-5.47-2.81-8.29-4.09-4.55-2.07-8.36-1.43-11.86,1.84-6.46,6.05-6.85,13.49-1.11,21.14,4,5.32,9.18,7.14,16.17,5.54,3.19-.73,6.19-1.9,8.89-3.58,9.45-.42,16.05,4.02,21.29,10.02,3.1,3.54,6.12,5.77,11.39,4,1.5,4.65,3.49,8.78,9.96,9.81,7.12,1.13,12.37,4.92,16.75,9.74,4.06,4.47,7.39,9.39,12.17,13.42,7.49,6.32,16.08,8.1,25.74,4.96,4.03-1.31,7.09-1.09,9.91,1.67-2.23,8.21,.79,12.81,9.8,14.86,2.51,.57,5.07,.89,7.69,.8,4.44-.15,7.43-2.04,9.07-5.65,1.08-2.38,1.2-4.87,1.32-7.37,3.55-2.33,7.47-3.82,11.93-4.38,3.62-.45,7.26-1.07,10.76-1.97,4.5-1.16,8.4-3.18,10.22-7.26,3.9,.51,7.19-.82,10.39-2.52,3.23-1.71,6.5-3.38,10.51-3.2,.43,2.12,2.58,2.72,4.4,3.01,2.11,.33,4.27,.68,6.49,.72,9.53,.19,18.98,1.22,28.47,1.91,6.43,.47,12.81,1.19,19.23,1.69,1.18,.09,2.34,.39,3.52,.49,5.35,.46,8.89-1.41,11.74-6.72,1.52-2.83,3.52-4.91,7.19-5.06,2.58-.11,5.01,.88,7.4,1.71,1.29,.45,2.58,.91,3.92,1.23,3.63,.85,5.14,2.87,4.21,5.96-.4,1.33-.96,2.63-1.61,3.89-2.85,5.52-.52,10.39,6.19,12.32,5.27,1.51,10.61,2.88,16,4.08,6.43,1.43,12.58,.84,18.07-2.73,3.77-.43,7.42-1.28,10.7-2.95,2.65-1.35,5.14-2.97,5.6-5.94,3.52-6.65,10.78-9.14,17.76-11.87,3.46-1.35,6.94-2.6,9.94-4.68,2.27-1.57,4.69-1.27,6.84,.05,2.1,1.28,1.87,3.24,.8,4.91-8.26,12.97-18.16,24.62-34.31,31.06-2.26,.9-4.54,1.83-7.12,1.83-.64-.66-1.24-1.34-1.93-1.96-4.7-4.24-9.01-4.48-14.03-.61-2.29,1.77-4.33,3.78-6.48,5.68-.85,1.77-2.39,2.87-4.41,3.6-1.28,.46-2.47,1.12-3.69,1.7-2.1,1.01-3.34,2.34-2.61,4.61,.77,2.42,2.47,3.69,5.39,3.58,2.97-.11,5.94-.28,8.91-.43,1.64,1.57,3.46,2.97,6.03,3,4.69,.07,8.79-1.58,12.76-3.54,3.08,1.05,6.28,.22,9.41,.45,1.24,.09,2.5,.02,3.86,.24-7.64,3.5-14.46,7.86-20.36,13.26-3.38-3.41-7.67-4.1-11.58-1.63-3.37,2.13-6.23,4.77-9.12,7.36-2.86,5.61-8.94,6.36-14.83,7.23-5.41,.8-10.62,2.13-15.78,3.74-7.3,2.27-14.65,4.57-22.59,4.04-2.52-.17-5.37,.17-7.31-1.88,9.76-3.29,15.23-9.64,17.48-18.3,3.81-.2,5.39-2.39,6.33-5.23,.71-2.13,2.55-3.2,4.98-3.61,1.68-.28,3.26-.79,4.73-1.54,2.36-1.21,3.79-2.95,2.95-5.37-.79-2.27-2.73-3.49-5.6-3.53-5.82-.09-11.46,.86-17.02,2.23-2.72,.67-5.43,1.04-8.24,.88-6.23-6.25-18.12-4.87-22.47,2.6-5.71,.71-11.28,2.02-16.99,2.76-9.43,1.22-18.95,1.98-28.23,4.03-3.28,.73-6.57,1.42-9.71,2.54-1.03,.37-2.04,.71-3.17,.63-.92-1.52-1.84-3.03-2.76-4.55,1.33-3.49,4-6.34,6.09-9.46,3.43-5.16,7.15-10.17,10.72-15.26,1.23-1.75,1.8-3.66,1.46-5.71-.49-2.89-2.72-3.9-5.66-2.61-11.31,4.95-22.74,9.66-34.86,12.97-15.77,4.31-31.47,4.81-47.02-.8-2.51-.91-5.1-.59-7.68-.62-2.25-1.93-4.52-3.88-7.34-5.17-3.53-1.61-8.65,.45-8.42,3.46,.22,2.85,1.9,5.27,4.66,7.01,1.9,2.06,4.86,2.63,7.35,3.85,4.02,1.96,7.24,4.34,7.09,8.79-1.94,.77-3.71,.12-5.48-.52-1.66-.6-3.27-1.32-4.98-1.76-1.96-.5-3.51,.05-4.32,1.85-1.78,3.98-.54,9.19,3.15,11.96,3.97,2.99,8.71,4.55,13.93,4.86,3.5,.21,5.57-1.13,6.82-4.03,.81-1.89,.93-3.88,1.18-5.86,5.47,.59,10.36,2.97,15.77,3.84,4.85,.78,9.09-.06,12.96-2.54,1.62-1.04,3.23-1.89,5.17-.84,2.06,1.12,1.53,2.76,.93,4.39-2.17,5.83-.83,11.18,3.77,15.64,4.83,4.7,1.27,9.55-4.85,10.69-.49,.09-.99,.12-1.48,.17-1.89-.18-3.78-.36-5.67-.52-4.53-.39-8.81,.01-12.25,2.99-1.23,.11-2.01-.51-2.84-1.18-8.42-6.77-18.38-11.41-28.74-15.48-12.84-5.05-26.17-9.17-38.54-15.11-1.1-1.69-2.2-3.39-3.3-5.08,1.53-2.8,3.09-3.33,7.72-2.47,2.11,.39,4.16,.62,6.08-.45,.75-.42,1.67-.93,1.7-1.72,.04-.96-1.19-1.05-1.95-1.33-9.09-3.4-18.02-7.09-26.75-11.13-16.86-7.81-32.81-16.78-47.17-27.79-10.88-8.34-20.83-17.4-29.43-27.56-.22-.26-.56-.45-1.21-.96,.23,2.88,1.58,5.07,2.66,7.27,1.56,3.2,2.94,6.4,3.56,9.85,.51,2.85,.06,5.47-1.66,7.93-2.28-.74-3.98-2.44-6.42-2.91-6.71-3.14-9.28-8.39-11.02-14.56-2.41-8.52-8.01-15.75-14.4-22.5-4.25-4.49-5.63-9.41-3.68-15.25,2.24-6.72,3.67-13.64,1.99-20.7-1.99-8.34-7.71-14.27-16.06-18.47-.49-.25-1.14-.25-1.71-.37-.11-4-2.87-6.91-5.47-9.86-2.99-3.4-5.27-6.95-4.33-11.45,.8-1.86,1.02-3.79,1.18-5.76,.78-9.67-2.89-18.52-6.57-27.37-1.19-2.85-2.35-5.72-3.53-8.58l-.73,.12v30.45c-.98-.13-1.95-.26-2.93-.4-.48-3.54-2.92-6.41-4.55-9.52-4.3-8.21-8.15-16.55-9.68-25.5-1.39-8.12-.1-16.11,2.37-24.01,2.58-8.24,5.73-16.34,7.78-24.71,1.89-7.7,1.98-15.38,1.12-23.17-.74-6.69,.08-13.29,3.34-19.52,5.39-10.32,9.71-20.98,13.95-31.68,1.87-4.73,3.76-9.46,5.86-14.11,1.64-3.63,2.28-7.32,1.89-11.17-.28-2.81,1-4.71,3.8-6.2,11.65-6.21,21.93-13.95,32.28-21.62,3.78-2.8,7.52-5.65,11.46-8.27,4.36-2.91,9.56-4.28,14.91-4.95,6.99-.87,14.05-1.34,21.13-1.06ZM328.17,482.15c-1.8-1.83-4.19-2.7-6.61-3.41-15.64-4.58-31.63-5.2-47.83-2.93-3.73,.52-7.43,1.3-10.86,2.79-1.54,.67-1.53,1.14,0,1.81,2.23,.98,4.51,1.83,6.89,2.5,9.15,2.56,18.34,1.52,27.53,.25,10.23-1.41,20.44-3.01,30.89-1.02ZM8.84,403.95c4.25,.03,6.34-1.67,6.71-5.77,.31-3.42,.36-6.84,.11-10.28-.26-3.51-1.67-4.85-5.73-4.74-3.1,.09-5.7,1.04-6.89,3.72-1.55,3.5-2.29,7.16-1.72,10.88,.56,3.66,3.78,6.16,7.53,6.19Zm73.49,56c-5.49-.1-7.02,1.66-5.43,6.27,2.23,6.47,9.94,9.61,17.24,7.06,2.52-.88,3.23-2.35,2.36-4.55-2.06-5.23-7.53-8.65-14.17-8.78Zm-43.79-21.32c-.39,.03-1.5,.04-2.57,.22-1.26,.22-2.48,.65-3.74,.87-1.75,.31-1.65,1.13-1.07,2.28,.91,1.8,2.81,2.37,4.7,2.9,2.2,.61,3.85,1.55,4.76,3.54,.98,2.14,3.24,3,5.74,3.16,2.82,.18,5.01-1.49,4.83-3.47-.42-4.72-6.45-9.52-12.65-9.49Z"/><path class="cls-6" d="M494.35,398.74c2.62-.98,2.69-2.95,1.23-6.25-1.35-3.04-1.44-2.93,2.33-3.2,4.64-.33,8.07-2.72,11.36-5.3,3.1-2.43,6.1-4.94,10.46-5.74,2.32-.42,4.51-.42,6.78,.1,3.03,.7,3.41,1.32,2.01,3.81-1.05,1.86-1.9,3.74-2.4,5.81-.95,3.93,.25,7.7,.48,11.55,.14,2.24,.23,4.5,.09,6.73-.15,2.4-1.86,3.49-4.61,3.35-.19-1.72-.46-3.43-.57-5.16-.33-4.93-3-7.16-8.73-7.26-6.76-.11-13.34,4.84-15.41,11.51-.84,2.71-.77,5.39,.81,7.81,5.59,8.58,10.8,8.12,16.55,2.25,1.66-1.7,3.55-2.99,6.09-3.49-3.89,7.27-8.46,14.22-13.53,20.92-3.74,4.94-8.18,9.36-13.75,12.8-4.63,2.86-9.61,5.22-15.39,5.92-6.62-1.64-12.17,1.82-12.68,6.67-2.51,5.1-5.96,9.53-11.58,12.47-1.68,.88-3.37,1.73-6.01,1.99,2.8-4.03,5.31-7.7,7.89-11.34,4.9-6.92,9.84-13.81,14.76-20.72,1.3-1.82,1.9-3.86,.26-5.54-1.85-1.89-4.42-1.7-6.85-.59-2.48,1.14-5.02,2.14-7.74,2.74-4.01,.88-6.04-.97-5.36-4.52,.67-3.49,2.66-6.7,2.78-10.29,2.35-2.61,4.74-5.21,6.11-8.36,2.5-.53,4.26-2.19,6.45-3.21,2.87-1.34,5.76-2.36,9.09-2.12,4.98,1.42,8.85,.76,11.44-2.49,2.78-3.49,5.12-7.24,7.65-10.88Z"/><path class="cls-5" d="M201.83,21.22c.02-.35,.05-.69,.06-1.04,.21-6.86-3.08-7.75-9.26-8.32-3.05-.28-6.16-.06-9.21-.59-1.25-.22-2.47-.45-3.66-1.2,1.47-1.25,3.25-1.21,4.66-1.27,5.54-.21,11.21-.69,16.6,.1,3.95,.57,7.98,1.08,11.94,1.56,3.83,.46,7.76,1.62,11.72,.42,4.06,1.58,8.51,1.13,12.75,1.84,9.91,1.67,19.27,4.63,28.32,8.34,9.87,4.05,19.59,8.38,29.36,12.63,1.85,.81,3.78,1.68,4.06,3.78,.56,4.15-.87,5.44-5.71,5.54-13.04,.27-25.97-.4-38.67-3.15-3.45-.75-6.88-1.6-10.21-2.66-3.69-1.18-6.46-3.31-7.58-6.74-.16-.49-.33-.99-.55-1.47-3.82-8.55-10.69-9.24-18.93-6.27-1.83,.66-3.57,1.53-5.36,2.28-4.74,1.99-8.41,.63-10.33-3.79Z"/><path class="cls-5" d="M111.2,43.02c-.66-1.93-3.17-2.24-4.47-3.79,4.59-1.71,9.71-1.49,14.13-3.41,3.19-1.39,6.48-2.64,9.17-4.71,3.96-3.03,6.14-3.72,8.75,.98-2.71,2.79-3.88,6.38-6.5,9.24-1.32,1.43-2.67,2.75-4.42,3.8-4.24,2.52-8.39,1.36-12.37-.37-1.42-.62-2.85-1.17-4.3-1.73Z"/><path class="cls-5" d="M60.06,80.92c-1.12-.06-2.16,.21-3.2,.55-1.41,.45-3,1.08-3.98-.43-.98-1.53-.94-3.09,.64-4.49,2.04-1.8,4.58-3.02,6.89-4.51,9.08-5.86,18.18-11.68,27.28-17.52-.5,5.75-4.69,9.52-9.48,12.84-4.8,3.32-10.16,6.03-14.32,10.05-1.24,1.2-1.98,2.81-3.83,3.51Z"/><path class="cls-6" d="M418.63,153.2c-.09,.61,1.07,1.51,0,1.72-.86,.17-1.11-.92-1.1-1.69,.37,0,.74-.02,1.1-.03Z"/><path class="cls-4" d="M375.31,409.92c-2,.22-3.98,.02-5.97-.22-1.16-.14-2.23-.26-2.32-1.54-.09-1.28,.86-1.84,2.07-2.22,3.75-1.19,7.5-2.37,11.24-3.57,3.86-1.24,7.52-2.83,10.63-5.2,1.09-.84,2.35-1.3,3.73-1.51,16.82-2.62,31-9.77,43.88-19.14,4.56-3.32,9.16-6.45,15.43-6.82-.6,2.32-2.72,3.8-4.36,5.45-15.53,15.7-35.32,25.32-58.38,30.08-3.96,.82-8.08,1.05-11.92,2.31-1.54,.5-3.35,.76-4.04,2.38Z"/><path class="cls-4" d="M90.24,141.89c-1.98-4.38-1.41-7.92,.44-11.4,2.33-4.38,6.28-7.8,9.46-11.67,6.85-8.31,13.41-16.83,22.19-23.79,5.27-4.18,11.25-7.49,17.56-10.34,4.03-1.82,8.19-1.81,12.42-.26,7.2,2.65,11.82,1.4,16.14-4.29,1.59-2.09,2.97-4.32,5.13-6.05,4.83-3.87,10.53-4.51,16.5-2.76,5.22,1.53,10.22,1.34,15.16-.46,5.31-1.94,10.48-1.8,15.69,.15,14.72,5.52,30.04,8.16,46.13,7.43,6.02-.27,11.87-1.36,17.72-2.42,7.48-1.35,14-.48,20.06,4.09,8.46,6.37,17.33,12.32,23.15,20.85,.56,.82,1.13,1.64,1.57,2.51,.37,.74,1.38,1.54,.46,2.36-.85,.75-2.05,1.02-3.32,.83-1.13-.17-2-.7-2.84-1.35-2.25-1.74-4.82-3.09-7.44-4.35-1.65-.79-3.41-1.39-5.42-.85-3.68,.98-4.98,3.36-2.91,6.13,2.19,2.94,3.96,5.99,5.09,9.34,.79,2.34,.68,4.48-1.7,6.11-2.3,1.56-4.73,1.14-7.01,0-4.26-2.14-7.7-5.24-11.75-7.62-.74-.44-1.49-.87-2.24-1.29-1.76-1-3.04-1.28-4.64,.63-2.81,3.33-7.43,3.87-11.76,4.47-6.79,.93-11.53,3.76-13,9.84-.75,3.09,.18,5.95,2.82,8.08,2.78,2.23,6.14,1.66,8.91,.04,4.7-2.74,8.66-1.86,12.87,.84,5.23,3.36,8.82,4.61,15.27-.06,2.88-2.09,6.53-2.11,10-1.17,5.71,1.56,10.03,4.86,11.53,9.79,2.66,8.79,7.94,16.4,13.11,24.09,5.05,7.51,8.72,15.31,8.71,24.21,0,3.99,2.72,7.14,5.57,10.11,3.43,3.59,7.51,6.71,10.14,10.89,3.37,5.35,4.76,11.15,5.62,17.1,.23,1.6-1.21,1.64-2.39,1.45-1.6-.26-2.88-1.12-4.06-2.11-1.41-1.18-2.74-2.9-5.04-2.16-2.64,.84-4.06,2.84-4.45,5.17-.4,2.4-.57,4.95,.68,7.17,8.63,15.36-1.99,37.51-18.62,47.13-12.12,7.01-25.05,12.59-38.15,17.98-9.12,3.76-18.21,7.57-26.76,12.28-1.27,.7-2.64,1.19-4.24,1.11-1.56-.08-3.42-.31-3.9-1.47-.49-1.17,1.5-1.57,2.47-2.2,10.36-6.78,21.45-12.73,30.95-20.48,3.21-2.61,6.22-5.37,8.41-8.72,1.22-1.87,2.83-3.78,1.05-5.97-1.53-1.89-5.4-2.42-8.58-1.32-3.39,1.17-6.32,3.01-8.93,5.17-6.47,5.36-13.6,9.89-21.41,13.69-4.53,2.2-8.83,4.73-12.96,7.49-5.63,3.76-12.46,4.44-19.26,4.89-3.19,.21-6.4,.07-9.6,.08-6.29,0-10.69-3.51-11.1-8.99-.18-2.42-.1-4.83,.33-7.25,.6-3.36,.39-6.73-.74-10.02-2.12-6.19-7.56-9.2-14.33-9.98-10.6-1.23-12.69-6.81-8.09-14.69,2.02-3.46,4.38-6.77,5.01-10.77,.59-3.77-.78-6.7-4.3-8.73-5.42-3.14-11.69-4.37-18-5.32-1.52-.23-3.06,.29-3.17,2.03-.22,3.28-2.26,5.84-4.29,8.43-4.65,5.94-4.66,8.44-.02,14.4,3.52,4.52,6.72,9.24,10.78,13.43,3.43,3.54,7.54,6.37,12.27,8.67-6.88,.18-13.55-.74-20.16-2.21-7.15-1.59-13.16-4.9-18.65-9.04-1.87-1.41-2.77-3-2.15-5.26,1.9-6.96-1.49-11.91-8.2-15.49-3.15-1.68-6.37-3.27-9.43-5.07-8.52-5.01-10.12-11.84-4.5-19.23,3.85-5.06,7.54-10.21,12.27-14.73,3.65-3.49,7.98-6.3,12.28-9.11,4.73-3.09,8.21-2.37,11.51,1.99,.49,.65,.92,1.37,1.55,1.9,1.92,1.6,3.66,1.41,5-.57,1.85-2.73,4.6-4.52,7.87-5.76,3.57-1.36,7.16-2.66,10.74-4,2.93-1.1,5.16-2.93,7.07-5.1,.48-.55,.96-1.11,1.49-1.62,6.51-6.22,11.68-6.08,17.74,.46,4.33,4.67,9.17,5.02,13.69,.81,6.95-6.47,15.78-7.73,25.27-6.79,5.83,.57,11.32,2.14,15.63,5.92,1.96,1.72,3.83,3.42,2.52,6.11-.92,1.88-5.07,3.55-8.01,3.17-1.37-.18-2.81-.43-4.01-.98-5.83-2.66-11.72-2.55-17.65-.45-5.17,1.83-10.43,3.55-15.13,6.21-2.88,1.62-3.39,4.1-1.86,6.57,1.66,2.66,4.27,3.53,7.58,2.41,1.1-.37,2.2-.88,3.1-1.53,3.5-2.52,7.51-3.54,11.99-3.24,3.71,.25,7.32,.96,10.71,2.27,4.73,1.84,5.79,4.63,3.49,8.63-.71,1.24-1.56,2.43-2.19,3.7-1.88,3.75-.8,6.76,3.29,8.81,2.07,1.03,4.33,1.77,6.49,2.67,8.91,3.75,9.78,7.74,3.45,14.27-4.29,4.43-9.25,5.99-15.69,4.05-4.05-1.22-8.32-1.85-12.26-3.37-.91-.35-1.86-.66-2.73-1.07-2.93-1.39-6.14-2.84-6.18-6.13-.03-3.1,3.14-4.38,5.78-5.79,.68-.36,1.4-.68,2.06-1.07,4.14-2.45,4.35-5.04,.68-8.04-8.75-7.14-22.07-5.85-28.87,2.82-1.48,1.89-1.38,3.9-.39,5.94,1.51,3.1,4.41,5.09,7.48,6.91,5.59,3.33,6.65,5.67,5.14,11.46-.63,2.44-1.42,4.86-1.29,7.41,.2,3.93,2.36,5.48,6.85,4.7,2.18-.37,4.09-1.33,6-2.3,3.5-1.76,4.52-1.53,6.91,1.34,3.79,4.58,6.66,4.78,11.4,.79,1.15-.97,2.2-2.02,3.38-2.95,3.77-2.99,8.01-2.79,11.18,.65,1.67,1.82,3.01,3.87,4.55,5.79,4.1,5.08,8.39,5.84,14.31,2.47,2.25-1.28,4.37-2.74,6.53-4.14,2.1-1.36,4.38-2.37,6.9-3.07,5.86-1.63,8.04-5.46,6.22-10.57-.9-2.55-2.73-4.6-4.53-6.67-5.75-6.62-4.57-9.66,4.86-10.42,13.17-1.06,15.86-13.57,9.05-20.15-1.56-1.5-2.86-3.22-3.31-5.18-1.46-6.37-5.46-11.66-9.33-17.01-4.46-6.16-8.93-12.31-14.59-17.75-3.92-3.77-8.29-7.03-13.34-9.54-4.13-2.05-7.74-4.6-10.93-7.62-2.22-2.1-3.83-4.42-3.59-7.44,.11-1.41-.42-2.74-1.07-4.01-1.31-2.58-2.74-3.2-5.96-2.46-4.8,1.1-9.22,3.22-14.35,3.51-4.2,.24-8.39,.2-12.59,.25-5.55,.07-10.93,.77-16.08,2.65-2.93,1.07-4.36,.28-4.54-2.47-.06-.85-.1-1.79,.24-2.57,4.54-10.26,11.48-18.44,24.81-20.86,2.53-.46,5.15-.63,7.66-1.16,5.11-1.09,7.7-3.59,7.44-6.93-.29-3.75-3.97-6.76-8.86-7.14-2.89-.22-5.79-.22-8.62,.54-5.56,1.51-11.39,1.7-17.08,2.57-5.88,.89-11.02,2.93-15.3,6.61-2.88,2.47-6.41,2.94-8.6,1.36-3.3-2.37-3.02-6.1,1-8.53,4.57-2.76,7.98-6.17,9.99-10.71,2.32-5.25-1.52-10.67-8.01-11.07-2.02-.12-3.93,.28-5.21,1.57-3.74,3.77-8.66,5.75-13.89,7.35-3.3,1.01-6.61,1.98-9.87,3.06-5.16,1.71-9.55,4.3-12.72,8.33-.67,.85-1.55,1.6-2.45,2.27-4.71,3.5-9.44,2.35-11.36-2.74-.5-1.31-.77-2.69-1.34-3.98-1.14-2.58-3.28-3.1-5.92-1.51-.41,.25-.79,.53-1.15,.84-8.01,6.78-16.09,13.5-24,20.37-4.82,4.18-8.63,9.05-12.08,14.96Z"/><path class="cls-6" d="M186.26,396.96c-11.02,1.74-20.89-.09-30.45-3.66-4.4-1.64-8.76-3.38-13.08-5.16-2.86-1.18-5.93-1.26-8.82-.8-23.79,3.78-44.69-11.73-47.79-30.46-.53-3.23-.26-6.58-.14-9.86,.07-2.02-.39-3.96-.73-5.91-.5-2.86-3.41-5-6.69-5.09-2.64-.07-3.95,1.5-4.48,3.48-.52,1.94-1.09,3.86-2.03,5.67-1.85,3.55-5.59,4.32-8.59,1.45-6.4-6.11-11.98-12.74-14.43-20.91-.37-1.23-.43-2.6-.26-3.86,.74-5.5-1.52-10.13-5.04-14.54-3-3.74-5.39-7.76-4.6-12.56,1-6.06,2.89-11.82,7.87-16.48,3.95-3.69,6.11-8.27,8.31-12.82,2.24-4.63,4.49-9.25,7.58-13.52,.86-1.19,1.29-2.42,.19-3.61-1.15-1.24-2.75-1.67-4.55-1.25-3.46,.81-6.25,2.65-8.96,4.56-.46,.33-.85,.73-1.3,1.08-4.3,3.36-7.21,3.79-10.96,1.62-3.56-2.06-4.7-5.52-2.98-9.69,2.22-5.39,5.18-10.48,8.59-15.37,5.55-7.94,12.19-15.13,19.64-21.82,3.1-2.78,6.8-5.05,9.37-8.31,1.72-2.18,2.19-4.31,1.21-6.8-.67-1.71-1.31-3.48-1.49-5.26-.63-6.06,3.57-9.61,9.09-12.29,5.14-2.5,10.84-3.97,15.92-6.6,7.8-4.03,15.74-7.84,23.55-11.85,1.99-1.02,3.84-1.4,5.9-.5,2.17,.95,2.56,2.65,2.59,4.6,.04,2.88-1.52,5.34-2.43,7.98-1.14,3.29-.19,5.77,2.83,7.08,3.17,1.38,7.45,.65,9.54-1.67,6.15-6.8,14.42-9.77,24.18-10.19,9.41-.41,18.71,1.1,28.09,1.03,3.36-.03,6.66-.7,10.09-.02,3.53,.7,5.4,2.66,5.14,6.22-.18,2.43-2.11,3.64-5.72,3.74-3.7,.1-7.37-.45-11.04-.48-15.27-.13-29.2,4-42.41,10.33-7.35,3.52-14.2,7.71-21.19,11.71-.25,.14-.47,.32-.73,.46-5.19,2.83-7.99,1.61-8.38-3.73-.14-1.99-.05-3.98-.02-5.98,.02-1.69-.48-3.1-2.49-3.76-2.04-.67-4.1-.33-4.95,1.33-2.39,4.65-6.56,7.07-11.98,8.53-1.89,.51-3.41,2.05-5.07,3.15-3.72,2.46-3.68,2.74-1.96,6.51,2.5,5.47,1.68,10.58-3.12,14.88-3.33,2.98-6.95,5.71-10.43,8.57-.94,.77-1.84,1.59-2.75,2.39-1.11,.98-2.83,2.12-2.42,3.32,.38,1.12,2.48,.38,3.81,.47,4.65,.32,7.81,2.82,7.66,6.88-.24,6.28-1,12.55-1.47,18.82-.19,2.5-.16,5.01-.26,7.52-.37,8.93-2.38,17.47-8.06,25.13-.64,.86-1.07,1.87-1.36,2.87-1.15,3.95,.2,6.3,4.82,6.63,8.9,.62,12.5,5.36,14.34,12.1,.92,3.35,2.09,6.73,4.89,9.36,3.5,3.29,7.97,3.79,12.65,2.66,7.51-1.81,12.06,2.14,13.48,8.1,3.23,13.48,10.8,24.92,21.3,35.12,9.55,9.29,20.63,17.01,32.25,24.19,3.2,1.98,6.87,3.4,10.79,5.3Z"/><path class="cls-6" d="M310.03,320.96c10-4.12,19.92-8.14,29.2-13.29,11.05-6.14,19.18-14.47,25.58-24.23,5.51-8.4,9.73-17.21,11.54-26.79,.5-2.63,1.14-5.27,.9-7.96-.16-1.74,.65-1.98,2.23-1.15,1.96,1.03,3.88,2.13,5.92,3.04,3.57,1.6,5.58,.59,5.65-2.85,.13-6.31-1.22-12.53-1.59-18.81-.05-.86-.17-1.72-.17-2.58-.01-8.4-.42-16.83,.11-25.2,.57-8.94,.56-17.89,2.04-26.82,1.56-9.45,2.92-18.93,4.45-28.39,.16-1.02,.44-2.02,.78-3.52,1.66,3.59,2.73,6.85,2.78,10.25,.11,7.86,.05,15.71,.02,23.57-.01,3.22,1.14,6.28,1.64,9.41,1.39,8.78,7.44,16.13,9.47,24.69,1.91,8.06,1.8,16.07,.62,24.18-1.42,9.74-5.27,18.92-8.16,28.32-1.81,5.89-.44,11.17,5.41,14.8,5.75,3.56,6.49,8.51,5.95,13.79-.73,7.05-3.16,13.68-8.01,19.53-2.73,3.29-6.06,5.37-10.86,6.24-9.4,1.7-11.66,5.2-12.22,13.06-.4,5.69-2.92,8.68-9.16,10.5-12.32,3.59-23.89,8.75-36.02,12.73-9.46,3.1-19.16,5.18-29.9,5.73,3.97-3.44,8.15-5.76,12.55-7.83,9.67-4.55,20.32-7.28,29.93-11.93,15.35-7.43,26.63-18.07,32.83-32.41,1.92-4.43,2.84-9.14,2.79-13.95-.02-1.83-.42-3.22-2.58-3.91-2.3-.73-3.63,.47-4.8,1.8-3.38,3.86-6.94,7.59-10.99,10.93-8.44,6.96-17.97,12.33-29.63,14.3-1.75,.3-3.55,.47-5.33,.53-4.96,.16-9.07,2.46-13.54,3.88-3.05,.97-6.26,.64-9.43,.36Z"/><path class="cls-4" d="M449.34,235.4c7.59,6.29,12.53,14.01,16.34,22.39,3.23,7.12,3.99,14.59,4.61,22.1,.62,7.53,1.82,14.91,4.89,22.06,1.79,4.16,.07,8.39-.96,12.49-3,11.99-10.33,22.02-19.28,31.28-9.49,9.83-20.49,18.49-29.78,28.47-2.31,2.49-4.99,3.92-8.43,4.94-7.24,2.15-13.65,5.79-19.85,9.58-7.74,4.72-16.2,6.96-25.54,8-11.41,1.27-21.95,5.05-29.94,12.51-8.58,8-19.04,12.05-31.39,12.91-15.73,1.09-31.45,2.39-47.26,2.04-1.9-.04-3.78-.15-6.09-.83,15.38-3.68,29.84-8.74,45.16-11.27,2.65-.44,4.96-1.36,6.4-3.46,6.76-9.93,17.28-14.79,30-16.64,3.24-.47,6.54-.67,9.79-1.11,1.77-.24,3.59-.51,5.21-1.12,10.56-3.95,20.89-8.2,29.72-14.85,6.51-4.9,13.62-9.12,22.34-10.66,1.26-.22,2.56-.36,3.85-.41,5.82-.25,10.59-3.94,11.49-8.88,1.1-6.02,5.07-10.43,10.6-13.9,2.99-1.88,6.16-3.56,9.14-5.45,10.02-6.36,16.77-14.72,20.05-25.11,1.78-5.64,.93-11.33,.2-17.01-.8-6.18-1.56-12.36-2.2-18.56-1.32-12.68-3.36-25.24-8.59-37.24-.32-.74-.64-1.46-.48-2.26l.02-.02Z"/><path class="cls-4" d="M162.79,470.97c-2.81-2.76-5.87-2.98-9.91-1.67-9.66,3.15-18.25,1.36-25.74-4.96-4.77-4.03-8.11-8.95-12.17-13.42-4.38-4.82-9.63-8.6-16.75-9.74-6.47-1.03-8.46-5.16-9.96-9.81-.17-2.37-1.23-4.54-2.25-6.67-6.6-13.72-8.27-28.04-7.18-42.73,.17-2.3,.02-4.63,.02-7.16,1.62,.22,2.13,1.1,2.75,1.79,4.09,4.55,7.28,9.57,9.28,15.04,3.92,10.75,10.82,19.76,20.21,27.47,6.13,5.03,11.47,10.58,15.02,17.33,1.64,3.11,5.39,3.68,8.39,1.6,6.24-4.32,12.43-4.64,19.05-.83,2.49,1.44,4.91,3.01,7.1,4.76,7.63,6.09,16.97,8.5,26.91,9.75,9.86,1.24,19.82,2.02,29.18,5.36,2.36,.84,5.6,.04,6.83,2.89-1.83,4.09-5.72,6.1-10.22,7.26-3.5,.9-7.14,1.52-10.76,1.97-4.47,.55-8.38,2.05-11.93,4.38-4.15-4.44-9.01-7.53-16.12-6.89-4.45,.4-8.06,2.37-11.75,4.25Z"/><path class="cls-6" d="M355.71,319.52c-3.52,5.78-8.72,9.92-14.87,13.3-8.05,4.43-17.11,6.51-26.16,8.69-14.11,3.4-27.76,7.77-39.53,15.6-4.35,2.89-8.31,6.15-11.87,9.83-4.76,4.93-11.02,7.41-18.52,7.88-9.08,.58-17.34-1.57-25.47-4.71-5.62-2.17-11.4-3.05-17.31-.54-2.48,1.05-4.23,.45-6.07-1.6-3.75-4.2-8.59-7.43-14.04-9.95-5.54-2.57-11.14-5.06-16.37-8.11-8.11-4.72-13.12-11.11-14.77-19.56-1.73-8.84-6.01-16.98-10.09-25.14-3.97-7.95-7.19-16.09-8.31-24.74-.23-1.79-.03-3.63-.03-6.03,1.58,3.55,2.84,6.64,4.31,9.65,4.62,9.45,11.28,17.88,17.75,26.4,4.6,6.07,9.28,12.12,12.98,18.64,2.85,5.02,13.01,10.12,20.56,8.1,7.88-2.11,16.41,1.18,21.74,7.91,5.5,6.94,12.99,11.04,22.53,11.77,7.42,.57,14.43-1.49,20.87-4.62,9.83-4.77,20.35-7.96,31.06-10.78,15.82-4.16,32.04-7.19,47.55-12.27,7.77-2.54,15.23-5.63,22.27-9.47,.41-.22,.73-.61,1.79-.25Z"/><path class="cls-4" d="M17.75,241.1c-2.43-2.95-3-5.72-2.31-9.05,3.85-18.44,7.44-36.92,11.15-55.38,1.14-5.7,2.3-11.4,3.56-17.08,1.59-7.19,6.99-11.52,15.33-12.63,5.03-.67,8.82-2.51,10.64-7.17,1.96-5.02,6.51-8.46,11.67-11.14,5.74-2.98,11.62-5.76,17.42-8.66,1.32-.66,1.93-.63,1.98,.89,.1,3.28-.89,6.4-3.58,8.57-12.96,10.45-21.17,23.8-30.26,36.62-2.56,3.62-5.37,7.1-8.42,10.42-1.04,1.13-1.7,2.3-1.7,3.77,0,12.37-4.41,23.81-9.98,34.99-4.4,8.83-9.87,17.19-15.5,25.83Z"/><path class="cls-6" d="M372.59,165.3c-.85-4.67-1.55-9.36-2.6-13.99-.76-3.34-1.94-6.68-6.41-7.77-2.1-.51-4.33-.16-6.52-.58-6.35-1.21-9.73-4.46-9.82-10.11-.05-3.12-.4-6.19-1.13-9.24-.36-1.52,.35-2.8,1.31-3.87,5.32-6.01,3.59-11.85-.56-17.56-3.2-4.41-7.88-7.79-11.45-11.95-1.42-1.65-2.76-3.34-3.56-5.57,2.49,.16,4.28,1.36,6.2,2.12,8.91,3.52,17.73,7.23,25.6,12.36,7.36,4.79,12.94,10.63,15.34,18.6,2.3,7.6,4.85,15.14,4.85,23.08,0,8.79-3.42,16.57-9.53,23.52-.36,.41-.64,.88-.96,1.33l-.77-.35Z"/><path class="cls-4" d="M205.29,403.02c14.38-.67,27.26-5.8,40.54-9.73,8.03-2.38,16.26-4.1,24.64-5.25,3.03-.42,5.85,.71,6.87,2.66,1.15,2.21,.37,4.69-2.11,6.47-1.78,1.28-3.81,2.31-5.99,2.9-11.41,3.09-22.56,7.01-34.42,8.71-10.63,1.52-20.59,.05-29.52-5.76Z"/><path class="cls-6" d="M425.12,208.93c1.67,5.36,3.3,10.67,5.18,15.92,2.36,6.58,4.79,13.15,6.12,19.97,2.17,11.14,.95,21.82-5.74,31.76-.98,1.46-2.32,2.58-3.88,3.51-1.49,.89-3.42,2.05-4.88,1.34-1.29-.63,.02-2.43,.2-3.72,.75-5.47,1.62-10.92,2.04-16.42,1.34-17.45,.09-34.92,.97-52.37Z"/><path class="cls-6" d="M153.07,415.06c28.87,7.02,58.36,7.12,88.53,6.99-2.72,2.11-5.23,3.59-7.96,4.67-12.37,4.89-25.27,5.62-38.61,3.92-10.8-1.38-20.93-4.3-30.53-8.68-4.11-1.88-8.12-3.95-11.43-6.9Z"/><path class="cls-4" d="M336.88,364.97c-7.51,6.45-16.37,10.12-25.76,12.91-5.75,1.71-11.63,3.1-17.42,4.74-1.92,.54-3.56,.15-5.16-.59-2.39-1.1-2.83-2.97-.99-4.71,2.16-2.04,4.5-3.94,6.78-5.89,.66-.56,1.47-.94,2.42-.88,9.01,.53,17.3-2.2,25.72-4.29,4.55-1.13,9.15-1.74,14.41-1.29Z"/><path class="cls-4" d="M447.63,221.85c-2.29-7.2-4.58-14.41-6.88-21.61-2.89-9.06-5.84-18.11-8.63-27.19-.25-.83-1.73-2.27,.43-2.77,1.79-.42,3.61-1.88,5.48,.44,5.31,6.61,8.2,13.94,9.51,21.83,1.61,9.72,1.08,19.45,.1,29.31Z"/><path class="cls-4" d="M377.35,222.3c-1.68-16.85-7.49-33.55-2.22-50.94,2.01,1.17,2.45,2.92,3.22,4.4,4.66,8.95,4.39,18.31,2.8,27.74-1.06,6.28-2.81,12.47-3.81,18.8Z"/><path class="cls-4" d="M405.13,339.73c15.83-10.69,31.22-20.95,36.52-38.49,2.79,5.41,.36,14.61-3.94,20.48-7.65,10.44-21.78,18.51-32.58,18.01Z"/><path class="cls-4" d="M170.67,292.58c2.04,.49,3.19,2.02,4.68,3.12,10.36,7.66,19.43,16.36,27.54,25.9-5.41,.47-13.91-2.71-18.7-7.25-6.59-6.25-9.97-14.05-13.56-21.74l.04-.04Z"/><path class="cls-4" d="M170.63,292.62l-.28-.28c.11,.08,.21,.16,.32,.24l-.04,.04Z"/><path class="cls-4" d="M449.32,235.41l-.39-.18c.36-.36,.31,.04,.4,.17l-.02,.02Z"/><path class="cls-4" d="M328.17,482.15c-10.45-1.99-20.66-.39-30.89,1.02-9.18,1.26-18.38,2.31-27.53-.25-2.38-.67-4.66-1.52-6.89-2.5-1.53-.67-1.54-1.14,0-1.81,3.44-1.49,7.13-2.27,10.86-2.79,16.19-2.27,32.19-1.65,47.83,2.93,2.42,.71,4.81,1.58,6.61,3.41Z"/></g></g></g></g></g></svg>