<?xml version="1.0" encoding="UTF-8"?><svg id="Layer_2" xmlns="http://www.w3.org/2000/svg" viewBox="0 0 53.62 67.56"><defs><style>.cls-1{fill:#bfbfbf;stroke:#fff;stroke-linejoin:bevel;}</style></defs><g id="Layer_5"><g><path class="cls-1" d="M.5,30.48c.53,.04,1.03,0,1.49-.04,2.98-.35,4.26-2.39,4.26-6.95V.5h.36V23.49c0,4.91-1.56,7.08-4.62,7.39-.46,.04-.96,.09-1.49,.04v-.43Z"/><path class="cls-1" d="M9.81,23.36c0,3.87,1.1,7.34,4.69,7.34s4.65-3.48,4.65-7.34V.5h.36V23.36c0,4.08-1.24,7.78-5.01,7.78s-5.05-3.69-5.05-7.78V.5h.36V23.36Z"/><path class="cls-1" d="M29.78,30.83h-.5L22.71,.93V30.92h-.36V.5h.64l6.54,29.85L36.14,.5h.6V30.92h-.36V.93l-6.61,29.9Z"/><path class="cls-1" d="M44.38,.5c3.84,0,5.05,3.13,5.05,7.3v2.95c0,4.78-1.74,7.04-5.72,7.04h-3.77v13.12h-.36V.5h4.8Zm-.67,16.86c3.8,0,5.36-2.04,5.36-6.61v-2.95c0-3.95-1.07-6.87-4.69-6.87h-4.44V17.36h3.77Z"/><path class="cls-1" d="M.84,36.21h.13l-.3,1.43h.02v1.79h-.19v-1.79l.34-1.43Z"/><path class="cls-1" d="M2.62,48.38h-.18l.03-12.17h.24l3.75,11.94v-11.94h.14l.04,12.17h-.26l-3.78-11.99v11.99Z"/><path class="cls-1" d="M20.72,43.9v1.91h-.36v-1.91c0-3.87-1.21-7.26-4.76-7.26s-4.76,3.39-4.76,7.26v15.47c0,3.87,1.21,7.26,4.76,7.26s4.76-3.39,4.76-7.26v-7.08h-4.19v-.43h4.55v7.52c0,4.09-1.35,7.69-5.11,7.69s-5.12-3.61-5.12-7.69v-15.47c0-4.08,1.35-7.69,5.12-7.69s5.11,3.61,5.11,7.69Z"/><path class="cls-1" d="M25.41,59.46l-1.53,7.39h-.36l6.29-30.46h.5l6.43,30.46h-.36l-1.56-7.39h-9.41Zm.11-.43h9.2l-4.65-22.07-4.55,22.07Z"/><path class="cls-1" d="M39.94,29.92v36.93h-.36V29.92h.36Z"/><path class="cls-1" d="M43.14,66.84h-.36v-30.42h.6l9.38,29.85v-29.85h.36v30.42h-.53l-9.45-29.98v29.98Z"/></g></g></svg>