<?xml version="1.0" encoding="UTF-8"?><svg id="Layer_2" xmlns="http://www.w3.org/2000/svg" viewBox="0 0 1225.36 1514.93"><defs><style>.cls-1{fill:none;stroke:#080031;stroke-linejoin:bevel;stroke-width:37px;}</style></defs><g id="Laag_1"><g><path class="cls-1" d="M38.5,684.24c11.85,.97,22.89,0,33.15-.97,66.26-7.7,94.65-53.07,94.65-154.37V18.5h7.89v510.4c0,109.03-34.71,157.25-102.53,164.02-10.26,.97-21.3,1.94-33.15,.97v-9.64Z"/><path class="cls-1" d="M245.22,526.01c0,85.86,24.45,163.05,104.12,163.05s103.33-77.19,103.33-163.05V18.5h7.89v507.51c0,90.68-27.6,172.69-111.21,172.69s-112.03-82.01-112.03-172.69V18.5h7.91v507.51Z"/><path class="cls-1" d="M688.55,691.94h-11.04L531.59,28.14V693.88h-7.91V18.5h14.21l145.16,662.83L829.76,18.5h13.41V693.88h-7.91V28.14l-146.72,663.8Z"/><path class="cls-1" d="M1012.78,18.5c85.2,0,112.03,69.48,112.03,162.1v65.6c0,106.12-38.66,156.31-127,156.31h-83.61v291.37h-7.89V18.5h106.48Zm-14.98,374.37c84.41,0,119.1-45.37,119.1-146.67v-65.6c0-87.8-23.66-152.46-104.12-152.46h-98.59V392.87h83.61Z"/><path class="cls-1" d="M26.02,811.41h2.93l-6.68,31.68h.42v39.84h-4.19v-39.84l7.52-31.68Z"/><path class="cls-1" d="M85.52,1081.56h-3.89l.73-270.16h5.37l83.31,265.14v-265.14h3.15l.95,270.16h-5.68l-83.93-266.3v266.3Z"/><path class="cls-1" d="M487.38,982.18v42.46h-7.89v-42.46c0-85.86-26.81-161.13-105.68-161.13s-105.71,75.27-105.71,161.13v343.47c0,85.89,26.81,161.13,105.71,161.13s105.68-75.25,105.68-161.13v-157.25h-93.08v-9.64h100.97v166.9c0,90.71-29.96,170.78-113.57,170.78s-113.61-80.07-113.61-170.78v-343.47c0-90.68,29.98-170.78,113.61-170.78s113.57,80.1,113.57,170.78Z"/><path class="cls-1" d="M591.55,1327.59l-33.92,164.02h-7.89l139.6-676.35h11.06l142.78,676.35h-7.89l-34.71-164.02h-209.03Zm2.36-9.64h204.3l-103.33-490.14-100.97,490.14Z"/><path class="cls-1" d="M914.21,671.73v819.88h-7.91V671.73h7.91Z"/><path class="cls-1" d="M985.21,1491.61h-7.89V816.23h13.39l208.26,662.83V816.23h7.89v675.38h-11.83l-209.82-665.74v665.74Z"/></g></g></svg>