<?xml version="1.0" encoding="UTF-8"?><svg id="Layer_2" xmlns="http://www.w3.org/2000/svg" viewBox="0 0 632.07 305.18"><defs><style>.cls-1{fill:white;}</style></defs><g id="Laag_1"><g><path class="cls-1" d="M95.2,0V95.6c0,14.8-4.17,26.2-12.5,34.2-8.33,8-19.57,12-33.7,12s-26.67-4.2-35.6-12.6C4.47,120.8,0,108.87,0,93.4H34c0,5.87,1.2,10.3,3.6,13.3,2.4,3,5.87,4.5,10.4,4.5,4.13,0,7.33-1.33,9.6-4,2.27-2.67,3.4-6.53,3.4-11.6V0h34.2Z"/><path class="cls-1" d="M156.4,0V84c0,8.4,2.07,14.87,6.2,19.4,4.13,4.53,10.2,6.8,18.2,6.8s14.13-2.27,18.4-6.8c4.27-4.53,6.4-11,6.4-19.4V0h34.2V83.8c0,12.53-2.67,23.13-8,31.8-5.33,8.67-12.5,15.2-21.5,19.6-9,4.4-19.03,6.6-30.1,6.6s-20.97-2.17-29.7-6.5c-8.73-4.33-15.63-10.87-20.7-19.6-5.07-8.73-7.6-19.37-7.6-31.9V0h34.2Z"/><path class="cls-1" d="M422.79,0V140.4h-34.2V56.2l-31.4,84.2h-27.6l-31.6-84.4v84.4h-34.2V0h40.4l39.4,97.2L382.59,0h40.2Z"/><path class="cls-1" d="M548.79,67.5c-3.73,6.73-9.47,12.17-17.2,16.3-7.73,4.13-17.33,6.2-28.8,6.2h-21.2v50.4h-34.2V0h55.4c11.2,0,20.67,1.93,28.4,5.8,7.73,3.87,13.53,9.2,17.4,16,3.87,6.8,5.8,14.6,5.8,23.4,0,8.13-1.87,15.57-5.6,22.3Zm-34-9.3c3.2-3.07,4.8-7.4,4.8-13s-1.6-9.93-4.8-13c-3.2-3.07-8.07-4.6-14.6-4.6h-18.6V62.8h18.6c6.53,0,11.4-1.53,14.6-4.6Z"/></g><path class="cls-1" d="M109.77,220.3h-15.07l-25.21-38.17v38.17h-15.07v-61.88h15.07l25.21,38.34v-38.34h15.07v61.88Z"/><g><path class="cls-1" d="M240.87,208.18c-2.53-4.67-6.17-8.23-10.9-10.7-4.73-2.47-10.3-3.7-16.7-3.7-11.07,0-19.93,3.63-26.6,10.9-6.67,7.27-10,16.97-10,29.1,0,12.93,3.5,23.03,10.5,30.3,7,7.27,16.63,10.9,28.9,10.9,8.4,0,15.5-2.13,21.3-6.4,5.8-4.27,10.03-10.4,12.7-18.4h-43.4v-25.2h74.4v31.8c-2.53,8.53-6.83,16.47-12.9,23.8-6.07,7.33-13.77,13.27-23.1,17.8-9.33,4.53-19.87,6.8-31.6,6.8-13.87,0-26.23-3.03-37.1-9.1-10.87-6.07-19.33-14.5-25.4-25.3-6.07-10.8-9.1-23.13-9.1-37s3.03-26.23,9.1-37.1c6.07-10.87,14.5-19.33,25.3-25.4,10.8-6.07,23.13-9.1,37-9.1,16.8,0,30.97,4.07,42.5,12.2,11.53,8.13,19.17,19.4,22.9,33.8h-37.8Z"/><path class="cls-1" d="M387.47,279.38h-52.4l-8.4,24.8h-35.8l50.8-140.4h39.6l50.8,140.4h-36.2l-8.4-24.8Zm-8.8-26.4l-17.4-51.4-17.2,51.4h34.6Z"/><path class="cls-1" d="M481.67,118.9v185.28h-34.2V118.9h34.2Z"/><path class="cls-1" d="M632.07,304.18h-34.2l-57.2-86.6v86.6h-34.2V163.78h34.2l57.2,87v-87h34.2v140.4Z"/></g><path class="cls-1" d="M52.05,158.6l-7.36,19.03h-7.23l3.85-19.03h10.74Z"/></g></svg>