<?xml version="1.0" encoding="UTF-8"?><svg id="Layer_2" xmlns="http://www.w3.org/2000/svg" viewBox="0 0 1525.29 497.55"><defs><style>.cls-1{fill:#fff;}</style></defs><g id="Laag_1"><g><path class="cls-1" d="M0,0V64.05H337.48V328.19h82.3V64.05h89.52V0H0Z"/><path class="cls-1" d="M748.01,0l-64.97,137.45L617.59,0h-93.38l116.96,219.73v108.46h82.3v-108.46L840.42,0h-92.41Z"/><path class="cls-1" d="M873.63,328.19v169.36h82.3v-169.36h-82.3ZM1093.58,0V203.36L955.93,0h-82.3V328.19h82.3V125.76l137.65,202.43h82.3V0h-82.3Z"/><path class="cls-1" d="M1432.89,0l-64.98,137.45L1302.46,0h-93.38l116.96,219.73v108.46h82.3v-108.46L1525.29,0h-92.4Z"/></g><g><path class="cls-1" d="M1020.38,423.09l-9.73-14.09-8.18,14.09h-16.82l16.73-25.91-17.18-24.82h17.46l9.73,14,8.18-14h16.82l-17,25.55,17.46,25.18h-17.46Z"/><path class="cls-1" d="M1069.38,411.09h20.37v12h-35.91v-63.82h15.55v51.82Z"/><path class="cls-1" d="M1136.93,411.82h-23.82l-3.82,11.27h-16.27l23.09-63.82h18l23.09,63.82h-16.46l-3.82-11.27Zm-4-12l-7.91-23.37-7.82,23.37h15.73Z"/><path class="cls-1" d="M1211.76,395.86c2.24,2.88,3.36,6.17,3.36,9.86,0,5.33-1.86,9.56-5.59,12.68-3.73,3.12-8.93,4.68-15.59,4.68h-29.73v-63.82h28.73c6.48,0,11.56,1.49,15.23,4.46,3.67,2.97,5.5,7,5.5,12.09,0,3.76-.99,6.88-2.95,9.36-1.97,2.49-4.59,4.21-7.86,5.18,3.7,.79,6.67,2.62,8.91,5.5Zm-32-10.77h10.18c2.55,0,4.5-.56,5.86-1.68,1.36-1.12,2.05-2.77,2.05-4.96s-.68-3.85-2.05-5c-1.36-1.15-3.32-1.73-5.86-1.73h-10.18v13.36Zm17.5,23.68c1.42-1.18,2.14-2.89,2.14-5.14s-.74-4-2.23-5.27c-1.49-1.27-3.53-1.91-6.14-1.91h-11.27v14.09h11.46c2.61,0,4.62-.59,6.05-1.77Z"/><path class="cls-1" d="M1234.67,421.46c-3.7-1.51-6.65-3.76-8.86-6.73-2.21-2.97-3.38-6.55-3.5-10.73h16.55c.24,2.36,1.06,4.17,2.45,5.41,1.39,1.24,3.21,1.86,5.45,1.86s4.12-.53,5.45-1.59c1.33-1.06,2-2.53,2-4.41,0-1.58-.53-2.88-1.59-3.91-1.06-1.03-2.36-1.88-3.91-2.55-1.55-.67-3.74-1.42-6.59-2.27-4.12-1.27-7.49-2.55-10.09-3.82-2.61-1.27-4.85-3.15-6.73-5.64-1.88-2.48-2.82-5.73-2.82-9.73,0-5.94,2.15-10.59,6.46-13.96,4.3-3.36,9.91-5.05,16.82-5.05s12.7,1.68,17,5.05c4.3,3.36,6.61,8.05,6.91,14.05h-16.82c-.12-2.06-.88-3.68-2.27-4.86-1.4-1.18-3.18-1.77-5.36-1.77-1.88,0-3.4,.5-4.55,1.5-1.15,1-1.73,2.44-1.73,4.32,0,2.06,.97,3.67,2.91,4.82,1.94,1.15,4.97,2.39,9.09,3.73,4.12,1.4,7.47,2.73,10.05,4,2.58,1.27,4.8,3.12,6.68,5.55,1.88,2.43,2.82,5.55,2.82,9.36s-.92,6.94-2.77,9.91c-1.85,2.97-4.53,5.33-8.05,7.09-3.52,1.76-7.67,2.64-12.46,2.64s-8.85-.76-12.55-2.27Z"/></g></g></svg>