<?xml version="1.0" encoding="UTF-8"?><svg id="Layer_2" xmlns="http://www.w3.org/2000/svg" xmlns:xlink="http://www.w3.org/1999/xlink" viewBox="0 0 434.57 303.98"><defs><style>.cls-1{fill:none;}.cls-2{clip-path:url(#clippath);}.cls-3{fill:#a6ca54;}.cls-4{fill:#208d45;}.cls-5{fill:#2b258d;}.cls-6{fill:#5cad4a;}.cls-7{clip-path:url(#clippath-1);}.cls-8{opacity:.35;}</style><clipPath id="clippath"><path class="cls-1" d="M416.4,303.98H11.8c0-6.51-5.29-11.78-11.8-11.78V11.8C6.51,11.8,11.8,6.51,11.8,0H416.4c9.85,0,17.85,8,17.85,17.85V286.15c0,9.85-8,17.83-17.85,17.83Z"/></clipPath><clipPath id="clippath-1"><rect class="cls-1" x="-63.2" y="-35.39" width="539.97" height="404.25"/></clipPath></defs><g id="Laag_4"><g><path class="cls-5" d="M416.72,303.98H12.12c0-6.51-5.29-11.78-11.8-11.78V11.8C6.83,11.8,12.12,6.51,12.12,0H416.72c9.85,0,17.85,8,17.85,17.85V286.15c0,9.85-8,17.83-17.85,17.83Z"/><g class="cls-8"><g class="cls-2"><g class="cls-7"><g><path class="cls-3" d="M288.96,358.08c-.12,.66-.06,1.29,.29,1.94,1.22,2.29,.93,2.8-2.15,3.42-4.3,.86-8.49,1.94-12.57,3.31-6.37,2.15-12.71,4.37-19.14,6.4-8.16,2.58-16.57,4.14-25.49,3.75-3.45-.15-6.93,.05-9.05,2.78-.45,.58-1.24,.34-1.9,.39-11.77,.88-22.73-1.74-33.64-4.7-17.64-4.79-34.75-10.78-52.82-14.6-4.42-.94-8.9-1.66-12.96-3.46-4.2-1.86-6.74-4.9-9.59-7.77-4.87-4.9-10.53-5.7-16.15-1.13-3.26,2.65-6.7,4.48-11.61,4.19-4.82-.28-12.94-3.63-16.04-6.77,1.89-.64,3.78-1.24,5.61-1.93,2.28-.85,2.84-2.37,2.48-4.22-.84-4.3-6.18-6.69-10.6-4.76-1.97,.86-2.61,2.46-3.59,3.87-.14,.2-.17,.45-.24,.69-1.39,5.16-6.32,5.06-10.69,2.57-4.29-2.45-7.71-5.68-11.41-8.64-4.33-3.47-8.42-7.13-12.73-10.61-1.39-1.12-1.8-1.75-.04-2.98,4.54-3.15,4.54-8.98-.07-12.34-2.02-1.47-3.38-1.51-5.33,.05-.9,.72-1.7,1.52-2.43,2.35-1.69,1.93-3.06,1.88-4.72-.15-1.02-1.25-1.41-2.63-1.84-4.03-.71-2.31-1.16-4.7-2.93-6.73-2.58-2.94-4.9-3.65-9.18-2.63-1.59,.38-3.11,.98-4.61,1.56-1.64,.64-3.25,.7-4.81-.04-6.01-2.87-11.1-6.45-14.56-11.36-1.45-2.05-1.23-4.28-1.58-6.45-.17-1.07-.15-2.15-.51-3.21-.96-2.88-3.03-4.39-6.81-4.81-.83-.09-1.71-.17-2.53-.07-6.34,.74-7.7-1.73-9.63-5.78-.93-1.94-1.23-3.93,.19-5.87,.54-.74,.52-1.54-.39-2.13-7.28-4.68-9.42-11.2-10.26-18.07-.64-5.27-1.96-10.47-2.09-15.79-.17-6.95,.76-13.82,2.2-20.64,.84-3.98-.07-7.78-.81-11.62-.39-2.04-.37-4.08-.37-6.31-1.92,.8-2.68,2.05-3.31,3.45-.77,1.71-1.1,3.64-3.43,4.67-.54,.24-1.14,.59-1.68,.4-.67-.23-.31-.86-.31-1.29-.04-10.85-.05-21.69-.1-32.54,0-1.04,.32-2.01,.54-3.01,.52-2.36-.69-3.39-3.73-3.25-3.25,.15-3.36-.02-2.77-2.52,2.18-9.32,5.05-18.6,6.26-28,1.53-11.88,6.41-22.85,12.05-33.74,2.94-5.69,4.46-11.66,4.28-17.77-.52-18.48,6.69-35.15,18.74-50.76C-26.16,14.31-20.02,7.66-13.58,1.17c1.36-1.37,2.75-2.79,5.06-3.27,2.3-.48,2.86-.15,2.95,1.67,.18,3.6,2.69,6.08,7.13,7.11,1.65,.38,3.2,.33,4.6-.48,4.83-2.79,8.02-8.55,.76-12.56-3.03-1.67-3.01-1.77-.77-4.1,2.76-2.87,6.71-4.52,10.48-6.32,6.1-2.9,11.82-6.23,17.76-9.3,9.35-4.83,19.26-8.62,30.24-10.58,2.25-.4,4.46-.21,6.59,.32,6.97,1.73,13.87,1.95,20.7-.36,1.14-.39,1.42-.05,1.74,.74,1.63,3.97,3.93,5.22,9.35,5.24,2.82,.01,5.52-.43,7.99-1.46,2.28-.95,4.12-2.46,3.89-4.53-.29-2.57,1.72-3.7,3.83-4.96,10.13-6.06,21.59-9.98,33.66-12.92,6.63-1.62,13.3-3.15,19.94-4.73,.26-.06,.49-.23,.73-.35,16,0,31.99,0,47.99,0,1.77,1.13,3.78,1.91,5.88,2.62,9.6,3.21,19.94,3.49,30.05,4.66,3.42,.4,7,.29,10.12,1.76,.72,.34,1.24,.22,2.02-.13,4.62-2.07,9.58-2.5,14.72-1.47,4.9,.99,9.81,2.11,14.86,2.28,6.31,.21,12.56,.61,18.77,1.51,11.2,1.62,21.72,4.63,31.4,9.37-1.47,.28-2.22,1.18-2.94,2.11-2.16,2.82-3.42,6.02-6.01,8.66-2.26,2.31-2.03,2.44,.92,4.26,4.32,2.66,9.5,3.05,14.57,3.8,3.97,.59,7.94,1.15,11.46,2.84-.69,.02-1.38,.02-2.07,.05-4.38,.23-6.81,1.63-7.37,4.69-.38,2.08,.41,4.06,2.03,5.85,2.9,3.18,8.49,4.52,13.04,2.99,1.29-.43,2.64-.56,4.03-.52,.02,.18,0,.37,.06,.54,4.66,12.93,10.82,25.46,16.55,38.1,1.32,2.91,2.56,5.85,3.87,8.85-.86,0-1.1-.35-1.43-.58-3.26-2.29-4.44-5.57-6.47-8.45-2.11-2.98-4.44-5.76-8.85-6.9,.39-.16,.43-.44,.47-.74,.44-3.22-3.06-4.56-5.09-6.61-1.48-3.33-2.63-6.79-6.51-9.05,.58-1.09,1.3-2.15,1.69-3.28,.36-1.04,.91-2.55-1.18-2.73-2.75-.24-4.58-1.54-6.42-2.81-4.15-2.86-5.35-3.02-10.23-.86-2.12-.12-2.09-1.08-1.42-2.27,.18-.33,.46-.62,.71-.92,.84-1.01,.87-1.71-.94-2.07-1.24-.25-2.4-.78-3.59-1.18-2.88-.99-5.79-1.97-9.01-1.87-2.54,.08-4.71,.91-5.67,2.84-.91,1.82,.19,3.37,1.75,4.74,1.82,1.6,4.21,2.33,6.76,2.88,1.3,.28,2.75,.37,3.62,1.38-1.04,.14-2.08,.36-3.13,.42-2.52,.14-4.38,1.13-5.33,2.88-.93,1.71-.49,3.5,1.08,4.85,1.79,1.53,3.51,3.16,5.83,4.27,2.2,1.05,4.48,1.45,6.93,.72,1.47-.44,2.9-.96,4.35-1.45-.01,.9-.02,1.8-.03,2.7-.07,4.69,1.54,8.97,5.06,12.77,1.48,1.6,3.16,3.06,4.94,4.46,3.31,2.61,2.66,5.61-1.49,7.21-1.44,.55-2.92,1.03-4.38,1.55-1.77,.64-2.12,1.59-1.03,2.87,.98,1.16,2.07,2.23,3.85,2.68,.62,1.11,2.06,1.56,3.12,2.31,3.57,2.5,5.97,5.73,8.92,8.62,2.94,2.89,6.29,5.41,11.39,5.71,4.53,2.99,7.25,6.84,8.87,11.26,.36,.97-.15,2.23,1.33,2.89-.49,.87-.99,1.73-1.53,2.59-1.53,2.4-2.56,4.9-.33,7.45,.92,1.05,2.1,1.87,3.37,2.66,2.53,1.58,5.72,2.28,8.2,3.91,.12,.28,.19,.58,.37,.83,2.51,3.51,5.96,6.49,9.07,9.65,3.84,3.91,6.92,8.16,7.06,13.17,.15,5.38-1.37,10.48-6.85,14.3-3.92,1.15-5.12,3.37-3.36,6.22,.67,1.08,1.44,2.12,2.02,3.23,2.63,4.96,2.03,9.09-5.57,11.4-.42,.13-.86,.23-1.3,.33-3.05,.68-4.94,2.34-5.99,4.57-.94,2.01-1.7,4.07-2.36,6.15-2.44,7.65-3.04,15.43-2.8,23.29,.09,2.92,1.23,3.78,4.91,3.44,1.86-.17,2.64-1.33,3.36-2.45,3.77-5.88,7.61-11.73,11.21-17.68,3.3-5.45,5.92-11.09,7.41-17.05,.64-2.55,.24-5.24,1.63-7.68,1.46-.62,1.53-1.87,1.97-2.89,1.34-3.13,3.39-5.84,7.3-7.29,4.79-1.78,4.68-4.48,3.97-7.74-.69-3.17-2.21-6.22-2.97-9.38-1.39-5.79-3.82-11.32-6.52-16.79-1.01-2.04-2.28-4.01-2.85-6.52,3.42,1.33,5.72,3.15,7.59,5.26,5.22,5.88,7.08,12.96,10.96,19.33,2.07,3.41,2.28,7.26,2.89,11.01,.91,5.62,1.2,11.23,.39,16.86-.39,2.69-2.38,3.56-5.43,2.38-1.44-.56-2.78-1.26-4.24-1.8-1.06-.39-2.33-.53-3.28,.08-.95,.61-.8,1.48-.65,2.46,.42,2.77,.78,5.52,.32,8.38-1.08,6.79-5.61,11.86-11.89,16.19-1.95,1.35-2.52,2.47-1.65,4.52-.35,.38-1.1,.4-1.3,.95-.61,1.71-1.32,3.4-1.89,5.13-.59,1.8-1.01,3.62,.03,5.42-4.54,1.06-7.12,3.58-8.92,6.91-2.41,4.46-1.37,9.65-4.96,13.82-2.49-.43-5.08-.71-7.15,.7-3.69,2.51-5.72,5.98-8.07,9.24-.93,1.29-.62,3.34-3.07,3.66-2.42,.31-3.51-1.3-4.77-2.6-1.49-1.54-3.08-1.43-4.62,.13-1.29,1.32-1.95,2.84-2.29,4.43-1.31,6.09-4.98,11.22-10.26,15.69-4.42,3.74-9.7,6.73-14.57,10.08-8.41,5.79-18.23,8.47-29.18,8.81-7.05,.22-14.13-.01-21.19,.36l-.02-.66c1.9-.62,3.8-1.23,5.69-1.87,5.98-2.06,12-3.61,18.49-1.33,1.41,.5,2.46-.16,3.39-.9,2.48-1.96,5.24-3.66,8.01-5.36,7.37-4.52,15.48-8.32,21.72-13.94,3.9-3.52,6.72-7.5,7.2-12.14,.76-7.33,3.8-14.08,7.56-20.7,3.23-5.68,7.08-11.14,10.11-16.9,2.92-5.55,5.08-11.26,5.41-17.27,.13-2.43,.96-4.4,3.03-6.17,2.86-2.45,4.99-5.17,4.42-8.7-.52-3.25-1.18-6.48-2.45-9.62-2.29-5.68-5.81-10.92-9.17-16.22-.89-1.4-1.55-2.83-1.79-4.4-.49-3.2,1.89-5.32,4.42-7.34,5.76-4.6,7.02-10.38,3.31-16.14-1.89-2.94-3.51-5.96-5.05-9.01-2.43-4.79-5.22-9.45-9.86-13.2-7.7-6.22-13.36-13.26-15.47-21.91-1.05-4.28-4.39-7.03-10.03-7.76-2.35-.3-4.59-.86-5.76-2.54-2.11-3.04-3.32-6.38-4.48-9.71,.25-4.27-.17-8.51-.94-12.72-.59-3.22-1.81-6.35-4.39-8.98-2.33-2.37-4.86-4.63-7.34-6.9-6.81-6.23-13.68-12.43-19.19-19.44-1.32-1.68-3.01-2.45-5.5-2.29-3.41,.23-6.69-.15-9.91-1.14-4.13-1.27-8.32-2.4-12.52-3.53-9.49-2.55-18.96-5.16-28.11-8.4-5.53-1.96-11.39-2.45-17.33-2.01-6.92,.52-13.73,.46-20.56-.68-7.43-1.24-14.62-3.13-21.93-4.68-7-1.49-14.09-2.26-21.3-1.43-7.95,.92-15.34,3.24-22.63,5.83-2.76,.98-5.31,2.45-8.45,2.74-.83-2.98-1.97-3.74-5.75-3.65-2.12,.05-4.23,.23-6.35,.35,.01-.74,.03-1.48,.04-2.22,3.37-.69,6.83-1.09,10.08-2.13,.29,.35,.75,.35,1.22,.38,3.69,.29,6.31-1.24,8.47-3.28,4.18-3.95,9.2-6.74,15.65-8.06,6.28-1.28,12.62-.96,18.96-.95,3.07,0,5.89-.51,8.62-1.58,5.89-2.31,11.51-1.91,16.79,1.21-3.87,1.75-7.7,3.56-11.63,5.22-1.49,.63-1.33,1.2-.53,2.04,3.26,3.43,7.06,4.29,12.47,3.15,2.89-.61,5.71-1.67,8.84-1.41,2.55,.64,5.09,1.34,7.67,1.91,3.52,.77,7.1,1.36,10.32-.63,2.55-1.58,3.48-3.89,4.21-6.25,.87-2.81,2.61-3.96,6.3-4.02,3.3-.05,6.61,0,9.92-.05,4.21-.07,8.22,.6,12.09,1.83,3.73,1.19,6.79,3.26,10.29,4.75,7.76,3.32,12.34,3.13,19.41-1.14,1.75-1.06,3.07-2.53,5.13-3.27,1.98,4.71,2.92,5.31,9.11,5.1,2.4-.08,4.77-.69,7.14,.07-2.37,1.61-5.39,2.24-8.17,3.17-11.42,3.83-23.37,5.98-35.78,6.53-.36,.02-.83-.08-1.02,.25-.25,.44,.25,.61,.62,.82,2.04,1.17,4.13,2.21,6.54,2.9,3.55,1.01,7.27,1.31,10.94,1.76,3.05,.37,5.83,1.39,8.81,1.88,5.18,.86,10.18-.18,15.25-.58,4-.32,7.95-.43,11.61,1.2-3.13,.15-6.26,.3-9.39,.44-3.86,.17-5.13,2.08-3.03,4.6,2.24,2.69,5.53,3.74,9.51,3.72,7.43-.04,8.68-1.06,8.35-6.83,2.21,.03,4.44-.29,6.62,.19,1.22,.27,2.39,.15,3.17-.58,.82-.76,.45-1.69-.04-2.54-1.38-2.36-3.23-4.46-5.52-6.34-2.96-2.44-6.29-4.55-9.59-6.67-2.16-1.39-4.07-3.06-6.62-4.06,1.15-.99,1.67-2.28,2.22-3.47,1.02-2.24-.03-4.37-2.55-5.04-4.03-1.07-8.18-1.48-12.18,.12-2.02,.81-3.93,1.8-5.88,2.71-1.28-1.7-3.69-2.07-5.67-2.93-2.35-1.02-2.83-2.15-1.5-3.98,.51-.7,1.17-1.33,1.84-2.07h-22.5c-.03,1.06,1.1,1.48,1.62,2.19,1,1.38,.29,2.65-1.72,2.78-.76,.05-1.52,.03-2.25-.25-9.85-3.81-20.59-4.31-31.23-5.15-6.77-.53-13.56-.88-20.3-1.57-8.04-.82-16.12-1.24-24.19-1.67-4.84-.26-9.66,.13-14.47,.4-4.3,.24-8.58,.78-13.13,1.64,2.17,1.46,4.86,1.62,6.84,2.84-1.35,1.43-2.83,2.46-5.18,2.39-2.28-.07-4.57,.04-6.84-.1-5.32-.33-9.44,1.12-12.2,4.76-.01-.48-.11-.97-.03-1.44,.42-2.38-1.72-3.16-4.15-3.28-1.22-.06-2.46,.08-3.67-.03-3.16-.3-5.51,1.88-6.26,3.69-.81,1.95,.86,3.2,2.56,4.34-.03,.59-.06,1.18-.09,1.77-3.66-1.28-7.32-.79-10.87,.19-2.1,.58-4.26,1.29-5.31,3.08-4.37,.39-8.53,1.21-12.26,3.16-1.72,.9-1.31,1.31,.26,1.81,2.05,.66,4.07,1.36,6.11,2.04-2.51,.38-5.05,.17-7.58,.21-5.91,.1-10.39,2.5-12,6.37-1.89,4.53,.32,9.41,6.76,10.42,1.92,.3,3.95,.21,5.93,.3-.11,.35-.11,.74-.33,1.03-3.72,5.03-8.99,8.47-16.39,9.67-6.26,1.01-12.41,.15-18.37-1.2-5.18-1.17-9.54-.34-13.53,2.22-5.99,3.85-12.41,7.22-19.97,8.67-5.48,1.05-10.14,2.6-12.92,6.64-.59-2.87-.73-5.92-4.86-7.35,1.05-.6,2.07-1.22,3.14-1.8C32.94,5.5,42.48,1.37,53.23-.86c3.86-.8,7.61-1.96,10.49-4.26,2.08-1.66,3.82-3.54,6.13-5.06,2.38-1.56,2.78-3.34,1.71-4.95-1.04-1.54-4.36-2.75-6.7-2.5-4.66,.51-8.79,1.98-12.53,4.17-2.1,1.23-4.37,2.17-6.78,2.97-2.5,.83-5.28,.52-7.74,1.39-2.29-.85-4.77-.61-7.18-.76-4.71-.31-8.9,.52-12.09,3.46-3.63,3.34-2.28,7.22,3.03,8.62,2.45,.64,5.01,.89,7.57,1.09-.09,.86-1,.95-1.78,1.16-2.09,.55-4.2,1.06-6.27,1.66-2.12,.61-3.93,1.57-5.08,3.15-1.78,2.44-1.4,3.04,2.15,3.47,.04,2.2-1.72,3.92-2.59,5.87-1.06,2.37-.43,3.38,2.53,4.24,1.62,.47,3.34,.03,4.9,.56,2.18,1.03,4.5,1.31,7.03,1,3.07-.37,5.91-1.21,8.74-2.14,1.96-.65,3.9-1.46,6.46-1.6-.45,.39-.62,.59-.85,.73-9.01,5.18-17.05,11.17-24.45,17.72C10.17,47.77,2.2,57.37-4.72,67.52c-3.58,5.25-6.86,10.63-9.88,16.11-.25,.46-.33,1.2-1.18,1.18-.7-.02-1.15-.57-1.52-1.02-.95-1.15-.75-2.39-.4-3.66,.77-2.79,.29-3.73-2.19-4.65,1.01-1.89,2.41-3.65,2.71-5.78,.2-1.4-.07-2.42-1.83-3.06-2.37-.87-4.81-.85-7.3-.55,1.27-2.11,3.05-3.72,5.86-4.81,5.2-2.01,8.88-5.34,11.1-9.5,3.24-6.07,4.31-12.58,5.78-19,1.8-1,3.66-1.95,5.39-3.01,3.66-2.26,5.61-5.15,5.13-8.91-.49-3.75-4.65-5.97-9.3-5.01-1.96,.4-3.73,1.09-5.42,1.89-3.46,1.62-6.18,3.77-6.83,7.03-.57,2.83,.84,5.39,2.19,7.94-.07,1.78-1.04,3.3-2.57,4.51-5.27,4.19-9.53,8.95-13.2,14.04-4.15,5.76-6.99,11.88-7.78,18.51-5.15,2.59-8.22,6.17-9.16,11-.66,3.39,1.93,5.45,6.13,4.47,2.92-.68,5.25-2.96,5.27-5.37,.03-3.31-.08-6.62-.13-9.92,1.58-.55,3.15-1.1,4.73-1.65,.01,.83,.09,1.67,.03,2.49-.25,3.02,1.19,5.3,4.71,6.68-5.27,7.45-8.93,15.47-13.41,23.21-3.61,6.24-7.73,12.24-13.74,17.3-.59,.5-1.15,.97-1.05,1.71-3.29-.76-9.78,1.24-11.42,3.54-.11,.15-.09,.35-.14,.52-.58,1.95-.63,3.94-.35,5.89,.55,3.8,5.85,5.95,9.3,3.87,1.63-.98,3.21-2.02,4.81-3.03,.05,.3,.07,.6,.15,.89,1.01,3.69,5.32,5.83,9.49,2.92,3.96-2.77,8.71-3.58,13.88-2.27,1.45,.37,2.91,.68,3.9-.56,.93-1.17,.17-2.14-.75-3.11-2.19-2.33-2.94-4.89-2.25-7.8,.77-3.26,2.88-6.2,3.41-9.49,3.34-1.26,5.47-3.21,5.78-6.2,3.95,.09,6.06-1.85,7.8-4.27,1.08-1.5,1.58-3.28,3.41-4.43,.01,1.01,.06,2.02,.03,3.03-.08,2.86,.93,3.66,4.67,3.66-.02,1.55,.26,3.12-.55,4.63-4.98,9.36-4.54,18.81-.71,28.31,2.94,7.3,7.12,14.18,11.51,20.99,1.14,1.77,.24,3.12-2.32,3.41-1.81,.21-3.51-.14-5.06-.88-4.52-2.15-8.97-4.39-13.54-6.45-2.77-1.25-5.3-2.87-8.4-3.66,.84-1.78,2.03-3.5,2.29-5.41,.61-4.48,.37-8.78-7.72-9.53-3.08-.28-5.43,.87-6.03,3.2-.41,1.61,.32,3.19,0,4.78-.79,4.02,2.45,7.42,7.41,8.63-.07,.68,.23,1.29,.56,1.91,.99,1.89,1.61,3.87,2.25,5.85,1.82,5.58,2.49,11.32,3.57,17,.66,3.44,1.82,6.79,2.45,10.23-.4,.26-.86,.49-1.2,.79-4.71,4.17-5.05,6.2-1.3,9.8,1.31,1.26,3.3,1.86,4.81,2.94-.15,1.69,.18,3.33,.78,4.96,1.21,3.34,2.05,6.74,1.98,10.25-.04,1.73-1.12,2.9-3.14,3.37-2.15,.51-3.69-.35-4.77-1.78-.67-.88-1.12-1.84-1.37-2.85-.36-1.46-1.31-2.57-3.21-3-2.52-.57-4.46-1.52-4.64-3.81,.82-1.39,.61-2.93,.85-4.37,.37-2.24,.29-4.57,0-6.83-.24-1.82-1.05-3.57-3.05-4.84-3.03-1.93-6.69-2.1-10.3-2.49,1.66-.85,3.4-1.62,4.96-2.57,2.08-1.27,2.24-3.02,.42-4.52-1.31-1.08-2.78-2.07-4.29-2.98-.9-.54-1.03-.96-.6-1.79,4.05-7.77,.61-14.38-5.29-20.6-.72-.76-1.45-.82-2.53-.26-2.96,1.52-4.25,4.01-2.83,6.93,1.82,3.74,1.82,7.34-.1,11.03-.78,1.49-1.18,3.1-.35,4.74,.93,1.85,2.81,2.44,5.12,1.62,1.52-.54,2.73-1.56,4.45-1.79,1.42,4.01,1.72,3.68-3.18,4.81-.15,.03-.3,.05-.44,.1-3.11,.91-3.52,2.31-1.36,4.37,.91,.87,2.02,1.64,2.43,2.78l-.13,6.13c-1.82,1.17-1.52,2.88-1.67,4.4-.46,4.78,1.58,9.2,3.59,13.6,1.42,3.1,2.6,6.24,3.32,9.5,.78,3.55,1.43,7.21,6.42,8.93-1.74-.08-3.48-.22-5.22-.24-1.98-.02-3.15,.89-3.51,2.33-.41,1.64-.05,3.22,1.21,4.62,1.24,1.37,2.7,2.6,4.31,3.71,2.36,1.63,5.12,2.4,8.3,2.05,4.79,3.55,8.65,7.66,11.76,12.26,.2-.82,.13-1.58,.21-2.33,.21-1.89-.53-3.81,.4-5.67,1.74,.8,3.58,1.19,5.63,1.14,2.83-.07,5.46-.94,8.26-1.1,0,1.55,.83,2.93,1.63,4.29,5.72,9.72,16.06,15.68,27.56,20.66,1.48,.64,3.22,.78,4.35-.48,1.17-1.3,1.43-2.76,.04-4.12-1.84-1.81-2.95-3.9-4.15-5.98-2.42-4.21-4.63-8.58-10.53-10.7,.27-.29,.49-.61,.82-.85,2.98-2.14,5.97-4.27,8.99-6.38,1.28-.89,2.37-1.87,3-3.12,1.32-2.6,.16-4.36-3.41-4.47-2.98-.09-5.92-.49-8.9-.45-4.85,.06-7.43,1.69-8.4,5.45-3.16-3.3-3.69-7.01-2.42-10.88,1.06-3.24,2.28-6.46,3.62-9.63,1.71-4.04,6.03-5.44,10.93-3.73,1.11,.39,2.27,.73,3.45,.97,2.74,.56,4.54-.35,5.29-2.53,.28-.8,.69-1.58,1.09-2.36,.74-1.44,1.62-2.9,1.52-4.45-.14-2.22-1.98-3.42-4.49-4.33-4.71-1.72-6.38-3.85-5.97-7.07,.09-.71,.35-1.41,.43-2.12,.45-3.86,1.09-7.71,1.5-11.58,.61-5.71,1.53-11.41,1.69-17.14,.04-1.34,.34-2.63,.64-3.91,.25-1.1,.78-2.39,2.67-2.65,2.93,.47,3.93,1.47,4.14,3.8,.23,2.5,.52,5,.99,7.47,1.13,5.97,1.9,11.96,2.32,17.98,.25,3.63,.04,7.33,3.43,10.34,.68,.61,1.02,1.47,1.45,2.24,.78,1.43,1.89,1.63,3.09,.39,.75-.78,1.54-1.51,2.47-2.12,1.95-1.26,4.44-1.11,5.55,.35,.83,1.1,1.48,2.4,.91,3.61-1.87,3.96-1.29,8.06-1.31,12.11-.01,4.01-.69,7.85-2.96,11.5-.69,1.11-1.1,2.36-1.18,3.62-.24,3.9,2.74,6.16,6.7,7.88,.99,.43,2.24,.63,2.13,1.83-.75,.87-.57,1.86-.44,2.8,.6,4.54,2.2,8.89,3.99,13.21,1.1,2.66,2.2,5.36,2.75,8.11,.59,2.93,1.51,5.75,3.09,8.4,4.07,6.82,10.92,11.52,19.18,15.13,1.87,.82,4.14,1.15,5.53,2.59-1.98,.05-3.91,.34-5.84,.67-6.9,1.19-12.75,4.07-18.55,7.03,.22-2-.69-3.75-1.88-5.48-.9-1.32-2.38-2.38-2.85-3.88,1.38-.03,2.75-.1,4.13-.09,1.17,0,1.64-.34,1.99-1.3,1.3-3.59-1.7-6.75-5.74-7.27-5.02-.64-6.4-.24-7.62,3.01-.23,.62-.12,1.31-.17,1.97-3.19-.07-6.03-1.27-9.13-1.67-3.15-.41-4.79,.81-4.01,3.23,.53,1.64,1.42,3.17,2.43,4.66,.99,1.46,1.16,3.01-.52,4.12-1.49,.99-3.3,.62-4.92-.16-6.12-2.97-12.25-5.94-18.38-8.89-3.23-1.55-6.48-3.06-10.06-4.75,.24,1.59,.99,2.61,1.77,3.62,2.61,3.38,6.55,5.46,11.07,6.97-.88,.49-1.89,.39-2.88,.43-2.91,.12-5.08,1.31-4.93,2.95,.21,2.14,1.33,4.07,3.76,5.22,2.13,1,4.44,.79,6.51-.22,1.1-.54,2.23-.72,3.46-.74,.61,3.48,2.71,6.48,5.25,9.27,3.05,3.35,6.98,6.02,11.36,8.28,5.94,3.06,12.11,5.81,18.56,8.15,1.51,.92,3.51-.16,5.02,.76-.13,1.66,.84,2.68,2.97,2.78,1.98,.09,3.99,.03,5.98-.05,3.41-.14,6.76-.86,10.25-.29,1.84,.3,3.5,.81,5.16,1.44,2.22,.84,2.77,.61,3.38-1.21,.46-1.37,.47-2.69,.09-4.08-.71-2.62-2.94-4.43-5.09-6.3-2.29-1.98-4.41-4.04-4.71-6.84-.24-2.27-.14-2.21-2.84-1.4-2.93,.88-4.67,.84-5.54-.74,1.99-1.17,4.02-2.29,5.89-3.59,2.6-1.81,5.52-2.88,9.13-1.59,1.32,.47,2.62,.08,3.82-.63,1.52-.91,1.92-2.22,2.4-3.53,4.72,3.01,9.51,5.96,14.13,9.06,2.4,1.61,4.97,3.17,6.26,5.58-2.66-.07-5.31-.2-7.97-.18-2.48,.02-5.31,2-5.88,3.94-.53,1.82,.71,3.57,3.32,4.62,1.96,.79,4.05,1.27,6.19,1.69,4.71,.92,9.51-.95,11.3-4.5,1.55,.06,2.68,.86,3.83,1.5,4.32,2.36,8.57,4.8,12.81,7.25,6.47,3.73,13.16,7.13,20.88,9.29-3.17,.99-6.36,1.67-9.7,1.89-6.01,.39-11.7-.7-17.26-2.35-1.07-.32-2.14-.63-3.34-.57-1.36,.07-2.04,.39-1.49,1.58,.46,1.01,.76,2.06,1.13,3.1-2.09,.1-4.05-.46-6.04-.79-2.76-.46-5.43-.32-7.72,.84-4.1,2.09-6.37,5.37-3.01,7.92,2.56,1.94,5.89,2.76,9.49,2.41,4.51-.43,8.09-2.39,11.4-4.64,1.53-1.04,1.3-2.12-.38-3.12-1.07-.64-2.53-.96-2.97-2.14,.44,.07,.9,.09,1.32,.2,6.46,1.68,12.88,3.46,19.39,5.02,8.17,1.96,16.48,2.93,25,1.41,3.53-.63,5.87,.43,7.12,3.15,.83,1.79,1.11,3.71,2.49,5.37,2.93,3.54,7.45,5,12.3,6.12,6.56,1.51,13.16,2.22,19.78,.28,2.55-.75,5.14-1.09,7.86-1.04,5.91,.11,11.81-.04,17.71-.34,2.08-.1,3.93-.57,5.58-1.79,3.13-2.31,6.76-4.03,10.9-5.12,5.8-1.53,11.74-1.25,17.65-.98,1.92,.09,3.99,.06,5.85,.73ZM5.89,283.91c1.16,0,2.02-.06,2.85,.01,1.64,.14,2.5-.34,3.38-1.53,3.77-5.14-2.04-14.22-9.79-15.15-6.26-.76-12.23,4.42-9.93,8.95,1.9,3.75,6.81,8.61,13.49,7.72ZM-48.49,147.91c-.25,1.45,.33,3.07,1.16,4.62,.7,1.31,1.88,2.27,3.91,1.82,1.76-.39,3.44-.92,4.78-2,3.46-2.8,4.39-6.29,4.5-9.99,.1-3.35-3.06-5.06-7.12-3.95-4.57,1.25-7.17,4.56-7.23,9.49Zm-15.67,28.57c-.06,1.44-.03,2.81,.48,4.16,.87,2.31,3.36,3.37,7.25,3.07,2.09-.16,2.78-1.25,3.48-3.63,.94-3.19-.12-6.3-.15-9.44-.02-1.6-1.65-2.42-3.58-2.47-2.11-.05-3.95,.41-5.31,1.93-1.77,1.97-2.24,4.13-2.16,6.38ZM81.27-22.8c1,0,1.46,0,1.92,0,2.81,0,4.6-1.05,4.97-2.9,.47-2.32-.45-3.37-3.65-4.14-3.48-.84-8.25,1.4-8.76,4.19-.17,.91,.28,1.66,1.42,2.22,1.49,.73,3.04,.66,4.1,.63Z"/><path class="cls-3" d="M370.04-22.42c3.93,.38,6.28-1.25,7.62-3.88,.79-1.55,1.85-1.65,3.71-1.23,8.14,1.82,14.64,5.71,20.86,9.96,3.41,2.34,6.71,4.77,10.16,7.07,1.06,.71,.98,1.06,.07,1.77-5.68,4.43-3.67,8.9,1.04,13.02,.71,.62,1.49,.51,2.31,.27,1.77-.52,3.2-1.43,4.47-2.49,.88-.73,1.6-1.58,2.71-2.22,1.51,5.16,5.48,8.39,10.5,11.11,5.48,2.97,8.08,7.13,7.53,12.4-.36,3.43,1.48,6.2,4.28,8.66,2.63,2.31,5.61,4.33,9.01,5.86,10.39,4.69,17.69,11.61,23.56,19.61,3.98,5.42,7.61,11,12.05,16.22,2.36,2.77,3.06,6.13,4.69,9.17,1.03,1.93,0,2.94-2.9,3.63q-4.11,.99-3.04,4.27c3.15,9.56,7.59,18.65,15.46,26.54,1.85,1.86,2.7,4.22,1.83,6.5-3.18,8.38-1.42,16.55,1.24,24.72,1.19,3.65,2.41,7.28,3.62,10.92v21.34c-2.35,3.18-2.96,6.76-3.71,10.29-1.17,5.55-1.43,11.23-3.63,16.65-1.05,2.58-2.5,5.03-3.96,7.47-.29,.48-.7,.93-1.13,1.36-.87,.86-2.02,1.96-3.27,1.72-1.48-.29-.71-1.75-.86-2.69-.26-1.7-.36-3.41-.58-5.61-2.71,4.91-7.14,8.31-10.62,12.23-.44,.49-1.06,.95-1.26,1.49-.97,2.56-3.25,3.38-6.41,3.15-.09-.47-.13-.96-.29-1.42-.7-2.04-2.1-2.46-4.43-1.34-2.16,1.04-3.7,2.48-4.53,4.38-.78,1.82-1.59,3.62-2.39,5.43-5.21,.12-8.09,2.34-8.97,6.9-.5,2.64,.99,4.14,4.39,4.34,1.21,.07,2.44,.04,3.66,.06-1.61,1.1-3.43,1.96-4.77,3.34-2.69,2.75-4.59,5.81-6.4,8.94-2.3,3.95-4.84,7.78-9.41,10.51-2.13,1.28-4.12,2.67-5.7,4.42-2.3,2.55-2.74,5.66-.94,7.86-2.25,2.92-4.85,5.7-5.27,9.27-.3,2.54,1.09,4.54,3.78,5.12,8.46,1.84,17.58-3.02,18.51-9.85,.36-2.61-1.04-4.59-4.1-5.66-1.04-.36-2.17-.56-3.27-.84,1.62-.57,2.93-1.4,4.12-2.47,1.92-1.73,3.15-3.85,5.33-5.42,2.43-1.75,4.5-2.08,7.51-.95q3.51,1.31,3.8-1.79c.03-.36-.06-.74,.04-1.08,.33-1.1,.52-2.29,2.23-2.69-.38,4.87-1.54,9.66-2.76,14.43-2.32,9.09-5.95,17.79-12.68,25.54-2.29,2.64-4.77,5.15-7.98,7.5-.97-2.7-1.99-5.25-5.44-6.44-2.2-.76-4.53-.73-6.8-.34-4.15,.72-6.51,3.77-6.41,8.01,.1,4,2.28,5.53,9.99,6.85-7.9,1.03-14,4.43-19.79,8.15-6,3.86-12.83,6.59-19.62,9.37-3.8,1.56-6.05,1.09-9.31-1.78-1.52-1.34-2.83-1.36-4.57-.43-6.74,3.58-13.51,7.12-20.26,10.68-.18,.1-.36,.2-.98,.54,7.06,.34,11.69-3.82,17.94-4.62-.97,3.39-3.53,5.64-6.8,7.4-5.51,2.97-11.84,3.82-18.36,4.08-3,.12-5.98-.14-8.97-.33-1.39-.09-2.11-.49-2.08-1.66,.04-1.74-.05-3.49-.08-5.23,4.83,3.4,8.2-.41,12.45-1.46-1.71-1.06-3.18-1.97-4.65-2.88,2.35-.19,4.74,.28,7.07-.29,2.61-.64,4.05-2.75,3.5-5.21-.36-1.61-1.47-2.09-4.59-2.07-1.27,0-2.59,.34-3.8-.26,5.65-2.18,11.22-4.47,16.43-7.26,4.31-2.31,8.63-4.6,13.01-6.82,3.4-1.72,5.41-1.3,7.38,1.34,.46,.62,.91,1.26,1.46,1.83,1.32,1.37,2.35,1.38,3.54-.09,.9-1.11,1.76-2.26,2.19-3.56,6.78,4.05,16.15,2.09,21.78-.85,1.19-.62,1.74-1.61,1.78-2.79,.13-3.56-3.18-6.64-7.69-7.22-4.08-.53-7.73,.3-11.2,1.9-1.99-2.02-3.82-2.39-7.31-1.61-2.85,.63-5.54,1.77-8.67,1.59-1.7-.1-2.97-.56-3.66-1.8-.7-1.25-.26-2.34,.85-3.32,.98-.87,2.16-1.53,3.39-2.14,3.11-1.55,6.09-3.23,8.76-5.23,8.61-6.43,13.12-14.67,16.67-23.32,1.36-3.31,2.58-6.65,3.33-10.09,.28-1.29,.8-2.61,2.87-2.95,2.87-.46,4.69,.64,4.85,3.09,.1,1.52,.02,3.05,.02,4.66,1.06-.27,1.42-.73,1.79-1.18,6.33-7.68,11.24-15.87,13.46-24.89,1.16-4.71,2.32-6.05-4.95-7.47-3-.58-3.8-2.64-2.45-4.9,1.05-1.75,2.57-3.27,4.26-4.67,2.67-2.22,4.4-4.63,2.65-7.77,5.09-1.21,6.58-2.39,6.86-5.54,.07-.72-.03-1.44-.04-2.17,3.56-2.93,4.71-6.6,5.24-10.47,.64-4.62,2.55-8.71,7.45-11.7,1.6-.97,2.19-2.5,2.74-4.05,.89-2.55-.6-4.82-1.03-7.21,6.7-.92,12.96-2.88,19.14-5.02,4.76-1.65,6.94-4.97,8.75-8.42,1.04-1.99,.03-3.91-1.79-5.48-.93-.81-2.17-1.21-3.54-.97-4.05,.72-7.23,2.34-8.62,5.58-.39,.9-.6,1.87-.73,2.81-.13,.91-.97,1.14-1.81,1.43-.99,.35-1.15-.4-1.52-.77-1.78-1.8-3.51-3.64-5.26-5.46,.19-.19,.33-.42,.57-.55,6.1-3.27,8.2-7.66,6.99-13.42-1.24-5.86,3.41-12,11.91-10.94,2.16,.27,1.91-.52,1.68-1.51-.53-2.27-.4-4.52-.04-6.8,.61-3.92,1.18-7.85,1.47-11.79,.38-5.04-1.25-9.75-4.45-14.13-1.49-2.03-2.12-4.2-2-6.56,.09-1.73,.32-3.48-.19-5.21-1.3-4.36-4.73-7.58-9.01-10.34,1.58-.41,3.2-.2,4.81-.23,4.01-.07,5.08-1.08,3.78-4.05-1.86-4.26-4.62-8.09-11.09-8.57-5.4-.4-8.11,1.15-5.79,5.32,.61,1.09,1.25,2.2,1.25,3.44-2.21,0-2.75-1.5-3.72-2.57-1.8-1.97-2.59-2.17-5.26-1.08-.07-.54-.12-1.07-.22-1.61-.5-2.76-.42-5.67-3.13-7.89,.01-.77-.05-1.52-.3-2.3-1.86-5.74-6.45-10.51-9.09-15.96,1.93-1.58,2.88-3.49,3-5.67,.23-4.15-2.55-7.21-6.06-9.9-2.91-2.23-6.92-2.52-10.42-1.03-3.39,1.44-3.1,3.85-2.64,6.3,.14,.77,.25,1.56-.32,2.28-1.58-2.82-3.73-5.34-6.28-7.69-3.59-3.3-6.12-6.93-5.25-11.5,.83-.12,1.65-.32,2.48-.33,1.98-.03,3.66-.36,4.43-2.01,.87-1.87,.47-3.82-1.35-4.96-1.78-1.12-3.73-2.1-6-2.56,.67-.69,.34-1.12-.48-1.62-2-1.21-3.89-2.52-5.86-3.77-8.62-5.47-17.3-10.89-25.87-16.4-3.78-2.43-7.85-4.59-11.23-7.39Zm98.28,227.58c.18-.84-.12-1.92-.48-2.95-.79-2.26-3.87-3.4-6.53-2.49-4.72,1.62-9.75,8.56-9.11,12.57,.33,2.04,3.95,3.92,6.42,3.34,5.34-1.26,9.68-5.84,9.7-10.47Zm33.11-20.78c-.31-.61-.22-1.4-.24-2.18-.01-.78,.02-1.56-.06-2.34-.21-2.07-1.5-2.98-4.17-3-4.11-.03-7.02,1.54-8.48,4.53-.89,1.81-1.27,3.71-1.44,5.62-.22,2.4,1.94,4.34,4.72,4.53,5.03,.33,9.7-3.05,9.67-7.16Zm-.31-49.82c0-1.08,.09-2.17-.02-3.25-.28-2.61-2.14-3.98-5.32-4.03-3.96-.06-5.74,1.05-6.22,3.84-.46,2.7-.43,5.39-.03,8.09,.38,2.55,1.48,3.76,3.7,3.99,3.62,.37,5.93-.67,7.14-3.13,.88-1.8,.81-3.66,.75-5.52Zm-89.6,158.49c.13,.71,.23,1.43,.41,2.13,.45,1.78,1.86,3.03,4.06,3.29,1.96,.23,3.45-.83,4.58-2.03,1.31-1.38,1.9-3.01,2.29-4.68,.41-1.75-.8-3.54-2.97-4.5-2.16-.96-3.96-.43-5.65,.78-1.88,1.35-2.72,3.02-2.74,5.01Zm64.57-110.48c-1.93-.12-3.5,.64-4.67,1.97-.88,1-1.28,2.17-1.81,3.3-.47,.99-.51,1.88,.63,2.61,1.19,.76,2.48,1.2,4.03,.69,1.5-.49,2.5-1.39,3.17-2.5,.56-.92,1-1.89,1.52-2.82,1.3-2.29,.51-3.25-2.88-3.25Z"/><path class="cls-6" d="M470.65,79.31c4.28,2.77,7.71,5.99,9.01,10.34,.52,1.73,.28,3.48,.19,5.21-.12,2.36,.51,4.53,2,6.56,3.2,4.38,4.83,9.09,4.45,14.13-.3,3.94-.87,7.87-1.47,11.79-.35,2.28-.49,4.53,.04,6.8,.23,1,.49,1.78-1.68,1.51-8.5-1.05-13.15,5.08-11.91,10.94,1.21,5.75-.89,10.14-6.99,13.42-.24,.13-.38,.36-.57,.55-4.06,.8-6.81,2.83-7.7,5.95-1.06,3.73,.5,7.17,3.08,10.34,.43,2.39,1.93,4.65,1.03,7.21-.54,1.55-1.14,3.07-2.74,4.05-4.9,2.99-6.81,7.08-7.45,11.7-.53,3.86-1.68,7.53-5.24,10.47-1.41-1.17-3.06-1.83-5.14-1.32-2.62,.64-4.33,2.04-4.87,4.14-.56,2.16,.45,3.56,3.19,4.88,1.75,3.14,.02,5.55-2.65,7.77-1.69,1.4-3.22,2.92-4.26,4.67-1.35,2.25-.54,4.31,2.45,4.9,7.27,1.42,6.11,2.76,4.95,7.47-2.22,9.02-7.12,17.21-13.46,24.89-.37,.44-.73,.91-1.79,1.18,0-1.61,.08-3.14-.02-4.66-.16-2.45-1.98-3.55-4.85-3.09-2.07,.33-2.59,1.66-2.87,2.95-.75,3.44-1.97,6.78-3.33,10.09-3.55,8.65-8.06,16.89-16.67,23.32-2.67,1.99-5.66,3.68-8.76,5.23-1.23,.61-2.41,1.28-3.39,2.14-1.11,.98-1.55,2.07-.85,3.32,.69,1.24,1.96,1.7,3.66,1.8,3.13,.19,5.82-.95,8.67-1.59,3.49-.78,5.32-.4,7.31,1.61-1.01,.98-2.03,1.95-3.03,2.93-1.83,1.79-2.65,3.76-1.63,6.03-.42,1.3-1.29,2.45-2.19,3.56-1.19,1.47-2.22,1.46-3.54,.09-.55-.57-1-1.21-1.46-1.83-1.97-2.64-3.99-3.06-7.38-1.34-4.38,2.22-8.7,4.51-13.01,6.82-5.21,2.79-10.78,5.08-16.43,7.26-2.25,.6-4.7,1.14-5.68,3-.68,1.29,1.46,3.89,3.5,4.83,1.47,.91,2.94,1.82,4.65,2.88-4.25,1.05-7.62,4.86-12.45,1.46-1.75-2.35-7.59-4.35-11.23-3.85-4.63,.64-8.25,3.25-8.93,6.38-.19,.86-.11,1.72,.24,2.49,.67,1.51-.25,2.14-1.85,2.7-2.92,1.01-5.95,1.13-9.02,.87-2.44-.21-4.89-.46-7.34-.38-1.35,.05-1.77-.37-1.74-1.32,0-.36-.09-.72-.11-1.08q-.23-3.41-4.62-3.55c-8.09-.26-10.41,2.01-8.3,8.27,.4,1.2,.58,2-1.48,1.86-1.86-.67-3.92-.64-5.85-.73-5.91-.27-11.84-.55-17.65,.98-4.15,1.09-7.77,2.81-10.9,5.12-1.65,1.22-3.5,1.68-5.58,1.79-5.9,.29-11.8,.45-17.71,.34-2.72-.05-5.31,.3-7.86,1.04-6.63,1.94-13.22,1.24-19.78-.28-4.85-1.12-9.37-2.58-12.3-6.12-1.38-1.66-1.66-3.58-2.49-5.37-1.25-2.71-3.59-3.78-7.12-3.15-8.51,1.52-16.83,.56-25-1.41-6.51-1.56-12.93-3.35-19.39-5.02-.42-.11-.88-.14-1.32-.2-.26-.16-.52-.32-.78-.48-.37-1.03-.67-2.09-1.13-3.1-.54-1.19,.14-1.51,1.49-1.58,1.2-.06,2.27,.25,3.34,.57,5.56,1.64,11.25,2.73,17.26,2.35,3.33-.21,6.53-.9,9.7-1.89-7.71-2.15-14.41-5.56-20.88-9.29-4.24-2.44-8.5-4.88-12.81-7.25-1.16-.63-2.28-1.43-3.83-1.5-1.85-2.22-4.32-3.95-6.96-5.56-1.29-2.41-3.86-3.97-6.26-5.58-4.63-3.1-9.41-6.05-14.13-9.06-.41-.16-.38-.47-.41-.76-.41-3.65-2.52-6.54-6.3-8.68-.58-.33-1.17-.74-1.99-.42-1.39-1.45-3.66-1.78-5.53-2.59-8.26-3.61-15.11-8.31-19.18-15.13-1.58-2.65-2.5-5.47-3.09-8.4-.55-2.75-1.65-5.45-2.75-8.11-1.79-4.33-3.38-8.68-3.99-13.21-.13-.94-.3-1.93,.44-2.8,1.98,.5,1.97,2.17,3.04,3.22,1.85,1.82,4.01,2.37,6.87,1.4,1.9-.65,2.47-1.87,1.8-4.16-.27-.9-.31-1.78-.08-2.67,1.44,.41,1.67,1.51,2.12,2.43,1.12,2.31,1.33,4.79,2.05,7.18,4.22,13.88,12.76,25.8,26.69,35.15,1.47,.99,2.78,2.26,4.84,2.62,.25,.13,.48,.34,.75,.38,8.14,1.42,15.2,4.73,22.45,7.75,5.76,2.4,11.27,5.16,17.33,7.11,2.57,.83,5.41,.82,7.88,1.86,8.58,3.59,17.82,5.59,27.36,6.83,3.29,.43,6.59,.86,9.88,1.29,6.06,.79,12.14,.25,18.21,.16,4.43-.06,8.74-.95,13-1.65,3.61-.59,7.31-1.31,10.83-2.4,4.52-1.39,9.22-2.4,13.75-3.81,3.9-1.21,7.75-2.99,12.36-1.99,1.14,.25,2.55-.34,3.53-1.09,.65-.49,.8-.9-.07-1.46-2.74-1.77-6.03-1.9-8.92-1-3.55,1.11-7.18,2.08-10.7,3.27-5.67,1.91-11.73,3.01-17.78,3.92-7.76,1.17-15.65,1.41-23.55,1.15-1.54-.05-3.14-.28-3.36-1.66-.21-1.39,.21-2.86,2.27-3.33,2.61-.6,5.26-1.11,7.93-1.48,1.79-.25,3.53-.65,5.16-1.17,5.1-1.62,10.45-2.62,15.59-4.15,2.3-.68,4.79-1.24,7-1.99,5.35-1.81,10.95-2.93,16.48-4.25,7.21-1.72,14.63-2.47,22.22-2.24,5.84,.18,10.64-1.48,14.07-5.39,1.35-1.54,3.33-2.59,5.62-3.32,5.54-1.77,11.45-2.73,16.43-5.7,3.07-1.83,7-.14,7.53,2.84,.34,1.91,2.93,2.15,3.86,3.58,.06,.09,.58,.01,.88,0,3.79-.17,7.01-1.45,10.13-3.05,4.83-2.48,9.64-5.05,15.48-5.91,.6-.09,1.03-.18,.96-.76-.56-4.66,2.93-7.57,7.16-10.16,3.25-1.99,6.9-3.56,9.73-6,1.89-1.63,3.73-1.21,4.82,.88,.79,1.51,.6,3.08,.54,4.63-.05,1.22,.47,2.25,1.35,3.18,.43,.45,.91,.81,1.57,.03,1.16-1.37,2.61-2.56,3.79-3.94,3.07-3.56,6.52-6.92,9.32-10.65,4.59-6.13,8.93-12.32,11.81-19.12,1.81-4.27,3.16-8.48,2.61-12.99,3.59-4.17,2.56-9.36,4.96-13.82,1.8-3.33,4.38-5.85,8.92-6.91,2.77,.53,4.82,2.06,7.2,3.14,2.93,1.33,5.18,1.28,7.09-.41,3.28-2.9,5.09-6.3,4.55-10.25-.59-4.36-4.81-6.46-10.19-5.19-1.83,.43-3.53,1.21-5.51,1.22-.87-2.05-.29-3.17,1.65-4.52,6.28-4.33,10.81-9.41,11.89-16.19,.46-2.87,.1-5.61-.32-8.38-.15-.98-.3-1.85,.65-2.46,.95-.61,2.22-.47,3.28-.08,1.45,.53,2.8,1.24,4.24,1.8,3.04,1.18,5.04,.31,5.43-2.38,.81-5.63,.52-11.24-.39-16.86-.6-3.74-.82-7.59-2.89-11.01-3.87-6.37-5.74-13.45-10.96-19.33-1.87-2.11-4.17-3.93-7.59-5.26,.57,2.51,1.84,4.48,2.85,6.52,2.7,5.47,5.13,10.99,6.52,16.79,.76,3.16,2.28,6.22,2.97,9.38,.71,3.27,.82,5.97-3.97,7.74-3.91,1.45-5.96,4.16-7.3,7.29-.44,1.02-.51,2.27-1.97,2.89-1.06-2.38-.04-4.75,.37-7.06,.42-2.39,.88-4.81,1.38-7.19,.69-3.25,.27-6.66,.09-10-.05-.85-.02-1.92-1.12-2.8-.67,.72-.87,1.45-1.06,2.2-.47,1.84-.27,3.71-.52,5.55-.51,3.72-1.3,5.7-7.39,5.57-.31,0-.61-.02-.92-.03,5.48-3.82,7-8.92,6.85-14.3-.14-5.01-3.21-9.26-7.06-13.17-3.11-3.17-6.56-6.14-9.07-9.65-.18-.25-.25-.55-.37-.83,4.17-1.57,3.56-2.89,.87-5.27-1.84-1.62-2.95-3.6-4.18-5.52-1.71-2.67-1.51-5.74-3.03-8.51-1.37,.78-1.65,2.29-3.36,2.69-1.48-.66-.97-1.92-1.33-2.89-1.63-4.42-4.35-8.27-8.87-11.26-5.18-5.48-10.35-10.96-15.55-16.42-1.32-1.39-2.4-2.92-4-4.15-1.24-.95-2.63-.98-3.98-.39-1.35,.59-.79,1.54-.38,2.39,.29,.62,.54,1.25,.48,1.92-1.78-.45-2.87-1.51-3.85-2.68-1.09-1.29-.73-2.24,1.03-2.87,1.46-.52,2.94-1,4.38-1.55,4.15-1.6,4.8-4.59,1.49-7.21-1.78-1.4-3.46-2.87-4.94-4.46-3.52-3.8-5.13-8.09-5.06-12.77,.01-.9,.02-1.8,.03-2.7,1.32-2.23,3.64-3.16,6.69-3.4,2.69-.21,5.49-.37,7.51-2.12,3.88,2.26,5.04,5.73,6.51,9.05-1.45,.02-2.92-.04-4.36,.07-3.14,.25-4.54,2.46-2.98,4.63,.75,1.04,1.93,1.69,3.26,2.19,2.81,1.07,5.74,.91,8.69,.47,4.42,1.15,6.74,3.93,8.85,6.9,2.04,2.87,3.21,6.15,6.47,8.45,.33,.23,.57,.59,1.43,.58-1.31-3-2.55-5.93-3.87-8.85-5.73-12.65-11.89-25.17-16.55-38.1-.06-.17-.04-.36-.06-.54,.18-.26,.36-.53,.54-.79,3.1-4.47,2.16-7.02-3.52-9.46-2.21-.95-4.45-1.88-6.67-2.81-3.52-1.7-7.5-2.26-11.46-2.84-5.07-.75-10.25-1.14-14.57-3.8-2.95-1.82-3.19-1.95-.92-4.26,2.59-2.64,3.85-5.84,6.01-8.66,.71-.93,1.46-1.83,2.94-2.11,5.66,1.82,11.32,3.64,17.17,5.52-.78,.78-1.51,1.44-2.15,2.15-2.29,2.57-1.88,4.8,1.18,6.8,1.49,.97,3.23,1.6,4.98,2.22,3.38,2.8,7.46,4.96,11.23,7.39,8.57,5.51,17.25,10.94,25.87,16.4,1.96,1.24,3.86,2.56,5.86,3.77,.82,.5,1.15,.92,.48,1.62-1.51,.69-3.03,1.37-4.23,2.39-1.92,1.63-1.88,3.25,.06,4.88,1.32,1.11,2.96,1.84,4.61,2.58-.87,4.57,1.67,8.2,5.25,11.5,2.55,2.34,4.7,4.87,6.28,7.69,.19,2.24,2.34,3.56,3.97,5.09,3.3,3.1,7.56,3.89,12.46,2.93,2.64,5.45,7.23,10.23,9.09,15.96,.25,.77,.31,1.52,.3,2.3-1.69,.02-3.38,.06-5.07,.04-2.45-.02-4.88-.44-7.34,.03-1.57,.3-2.87,.82-3.61,2.01-2.39,3.84,1.39,10.16,6.67,11.08,5.21,.91,9.3-.65,12.69-3.66,2.67-1.09,3.46-.89,5.26,1.08,.97,1.06,1.51,2.58,3.72,2.57,2.24,1.47,4.51,2.92,7.04,4.08Zm-14.29,45.8c1.91,3.67,2.51,7.52,2.32,11.44-.14,3.01,.23,6,.55,8.98,.14,1.3,.15,2.71,1.11,3.96,4.39-6.11,7.85-16.54,8.06-26.16,.46,.02,.92,0,1.37,.06,8.43,.93,11.26-1.19,10.58-7.92-.04-.36-.11-.71-.22-1.06-1.41-4.9-6.03-6.74-11.73-7.57-.71-2.05-1.9-3.92-3.51-5.61-2.58-2.71-5.73-4.99-9.06-7.13-4.46-2.87-9.31-5.39-13.04-9-.34,.51-.2,.85-.1,1.21,.96,3.29,2.52,6.42,4.23,9.5,2.86,5.15,5.26,10.38,4.78,16.14-1.9,1.33-3.33,2.95-4.37,4.76-1.34,2.33-.72,4.13,1.89,5.67,2.15,1.27,4.58,2.12,7.14,2.74Zm-123.58,210.88c3.86,.78,7.22-.31,8.59-4.18,.14-.39,.54-.72,.78-1.1,2.21-3.46,1.58-7.86-1.69-10.64-3.35-2.85-7.42-2.16-11.33-1.03-8.86,2.54-17.01,6.08-24.14,11.01-1.93,1.33-2.47,2.68-2,4.61,.27,1.1,.7,1.14,1.89,.96,3.24-.47,6.49-.7,9.83-.59,5.76,.2,11.45,1.04,18.07,.96Zm30.92-55.32c5.2,0,11.38-2.84,13.93-6.55,3.29-4.8-.79-10.41-7.64-10.5-1.61-.02-3.23-.04-4.83,.07-4.81,.32-9.04,1.42-11.05,5.34-1.13,2.2-1.58,4.5-1.98,6.83-.1,.58,.08,1.04,.68,1.43,3.09,1.99,6.43,3.49,10.9,3.39Zm62.62-213.41c.01-3.15-1.41-5.73-4.81-7.55-.96-.52-1.89-.73-2.96-.16-4.41,2.37-8.2,5.24-11.11,8.76-1.17,1.41-.28,2.83,1.07,3.91,1.41,1.12,3.65,1.97,5.16,1.18,2.31-1.22,4.68-1.3,7.17-1.48,3.9-.29,5.45-1.62,5.47-4.66ZM244.19,345.07c0-2.78-2.37-4.22-6.62-3.95-2.75,.17-5.5,.4-8.24,.68-4.57,.47-6.77,2.58-6.41,6.01,.19,1.84,1.25,2.77,3.58,2.94,4.21,.31,8.41,.24,12.54-.56,3.72-.71,5.16-2.16,5.15-5.12Zm104.51-57.59c-2.01,.02-4.31-.44-5.11,1.75-.71,1.94,.28,4.38,2.37,5.45,.82,.42,1.77,.74,2.72,.93,1.78,.35,3.6,.61,5.41,.85,4.94,.63,8.67-2.39,7.83-6.31-.4-1.89-1.4-2.63-3.84-2.66-3.13-.04-6.25,0-9.38,0Zm62.64-40.32c.02,2.94,1.33,4.13,4.16,3.77,5.1-.64,9.86-4.63,10.35-8.66,.31-2.58-1.64-4.28-4.57-3.98-4.75,.48-9.96,5.13-9.94,8.87Zm-100.4,90.38c-2.3,.02-6.63,1.46-8.31,2.77-2.05,1.6-1.84,5.46,.4,6.87,.27,.17,.72,.3,1.04,.25,2.79-.41,5.66-.06,8.45-.58,3.55-.67,5.09-2.05,4.77-4.41-.41-3.05-2.85-4.93-6.34-4.9Zm81.81-64.41c.02,1.67,1,3.14,2.18,4.57,.74,.89,1.25,.78,1.98-.04,1.32-1.48,2.83-2.85,4.14-4.32,1.44-1.62,2.82-3.29,3.78-5.14,.38-.74,.77-1.59,.07-2.23-.75-.68-1.91-.3-2.82-.08-2.05,.51-4.03,1.17-5.79,2.15-2.17,1.21-3.51,2.82-3.54,5.09Z"/><path class="cls-6" d="M468.32,263.95c-1.71,.4-1.9,1.59-2.23,2.69-.1,.34,0,.72-.04,1.08q-.29,3.11-3.8,1.79c-3.01-1.13-5.08-.81-7.51,.95-2.18,1.57-3.41,3.69-5.33,5.42-1.19,1.07-2.5,1.9-4.12,2.47-2.01-.42-3.86-.09-5.68,.65-1.27,.52-2.64,.88-3.97,1.31-1.8-2.2-1.36-5.31,.94-7.86,1.58-1.75,3.56-3.15,5.7-4.42,4.57-2.73,7.11-6.56,9.41-10.51,1.82-3.13,3.71-6.19,6.4-8.94,1.35-1.38,3.17-2.25,4.78-3.34,1.93-.75,2.79-2.28,4.06-3.5,2.22-2.11,2.06-4-.25-6.1-.82-.74-1.88-1.19-2.9-1.71,.8-1.81,1.61-3.62,2.39-5.43,.82-1.9,2.36-3.34,4.53-4.38,2.33-1.12,3.73-.7,4.43,1.34,.16,.46,.2,.95,.29,1.42-3.59,1.57-5.14,3.97-4.8,7.18,.14,1.31,.2,2.65,.05,3.96-.15,1.31,.1,2.34,1.68,3.03,.52,.23,.95,.58,.87,1.17-1.06,7.33-1.78,14.7-4.86,21.75Z"/><path class="cls-4" d="M69.87,240.38c-.24,.9-.19,1.77,.08,2.67,.67,2.28,.1,3.51-1.8,4.16-2.85,.97-5.01,.42-6.87-1.4-1.07-1.05-1.06-2.72-3.04-3.22,.11-1.2-1.15-1.4-2.13-1.83-3.96-1.72-6.94-3.98-6.7-7.88,.08-1.26,.48-2.5,1.18-3.62,2.27-3.64,2.95-7.49,2.96-11.5,.01-4.05-.56-8.15,1.31-12.11,.57-1.21-.07-2.52-.91-3.61-1.11-1.46-3.59-1.61-5.55-.35-.94,.6-1.72,1.34-2.47,2.12-1.2,1.25-2.31,1.04-3.09-.39-.42-.77-.76-1.63-1.45-2.24-3.4-3.01-3.18-6.71-3.43-10.34-.42-6.02-1.19-12.01-2.32-17.98-.47-2.47-.76-4.98-.99-7.47-.21-2.33-1.21-3.33-4.14-3.8,.16-2.41-1.32-4.38-2.84-6.33-1.5-1.93-2.69-3.91-2.23-6.25,2.53-.74,1.82-2.69,2.56-4.11,2.97-5.64,3.66-11.63,4.76-17.57,1.11-5.99,3.25-11.61,8.66-16.2,1.55-1.32,2.95-2.78,4.22-4.28,3.39-3.98,3.1-7.71-.73-11.47-1.85-1.81-1.34-4.07,1.42-5.05,5.99-2.14,10.92-5.36,15.38-9.04,6.84-5.66,14.84-9.81,24.38-12.17,4.85-1.2,9.31-3.12,13.35-5.59,.61-.37,1.4-.68,1.59-1.65-2.25,0-4.31,.09-6.35-.01-13.03-.66-25.74,.35-37.92,4.32-1.89,.62-3.82,1.26-5.92,1.36-1.57-3.17,.41-4.99,3.55-6.86,5.32-3.16,9.26-7.13,8.89-12.82,3.56,2.15,7.29,2.06,11.15,.54,2.44-.96,4.9-1.89,7.36-2.84,5.44-.19,9.87-2.46,14.45-4.38,5.2-2.18,10.1-4.92,16.09-5.6,2.96-.34,5.77-.64,8.35-2.03,3.31-1.78,6.29-3.74,8.98-6.11,3.1-2.72,6.04-5.7,10.29-7.43,9.88-4.03,20.52-5.9,31.57-6.26,8.95-.29,17.69,.9,26.24,2.95,4.25,1.02,8.52,2.18,13.05,.01-13.1-9.09-29.51-11.65-46.33-14.75,7.26-1.97,13.2-4.89,19.54-7.15,4.45-1.59,9.14-2.59,14.07-2.01,4.69,.55,9.3,1.47,13.8,2.67,9.86,2.63,19.57,5.63,29.92,6.95,2.09,.27,3.76,1.17,4.99,2.41,3.15,3.18,7.1,5.62,11.31,7.85,7.41,3.94,15.46,7.14,22.27,11.8,1.36,.93,3.48,.83,4.97,.02,1.58-.85,.51-2.02-.04-3.08-1.39-2.66-3.05-5.27-2.89-8.27,.15-2.66,3.19-4.28,6.46-3.49,1.36,.33,2.45,.98,3.59,1.58,4.8,2.52,9.81,4.6,15.58,5.51,4.5,.7,8.91,1.76,13.2,3.07,5.33,1.62,9.39,4.13,11.01,8.72,1.29,3.65,1.96,7.38,2.8,11.09,.23,1.04-.2,2.31,1.32,3.03,1.17,3.33,2.37,6.67,4.48,9.71,1.17,1.68,3.41,2.24,5.76,2.54,5.65,.73,8.99,3.48,10.03,7.76,2.12,8.65,7.78,15.69,15.47,21.91,4.64,3.75,7.43,8.41,9.86,13.2,1.55,3.05,3.16,6.08,5.05,9.01,3.71,5.75,2.45,11.54-3.31,16.14-2.53,2.02-4.91,4.14-4.42,7.34,.24,1.58,.9,3.01,1.79,4.4,3.36,5.3,6.88,10.55,9.17,16.22,1.26,3.14,1.93,6.36,2.45,9.62,.57,3.54-1.56,6.26-4.42,8.7-2.07,1.77-2.9,3.74-3.03,6.17-.33,6.01-2.49,11.72-5.41,17.27-3.03,5.76-6.88,11.21-10.11,16.9-3.76,6.62-6.8,13.37-7.56,20.7-.48,4.64-3.29,8.62-7.2,12.14-6.24,5.62-14.35,9.42-21.72,13.94-2.77,1.7-5.53,3.4-8.01,5.36-.94,.74-1.98,1.4-3.39,.9-6.49-2.28-12.51-.73-18.49,1.33-1.88,.65-3.79,1.25-5.69,1.87-.69,0-1.65,.14-1.5,.66,.19,.65,.99-.05,1.53,0,7.06-.37,14.13-.14,21.19-.36,10.95-.34,20.77-3.02,29.18-8.81,4.86-3.35,10.15-6.34,14.57-10.08,5.28-4.47,8.95-9.61,10.26-15.69,.34-1.59,1-3.11,2.29-4.43,1.54-1.56,3.13-1.67,4.62-.13,1.26,1.3,2.35,2.91,4.77,2.6,2.45-.31,2.14-2.37,3.07-3.66,2.35-3.26,4.38-6.73,8.07-9.24,2.07-1.41,4.66-1.13,7.15-.7,.54,4.51-.8,8.72-2.61,12.99-2.89,6.81-7.22,12.99-11.81,19.12-2.79,3.73-6.24,7.08-9.32,10.65-1.19,1.38-2.63,2.58-3.79,3.94-.66,.78-1.14,.42-1.57-.03-.88-.93-1.4-1.96-1.35-3.18,.06-1.55,.25-3.12-.54-4.63-1.09-2.09-2.93-2.51-4.82-.88-2.83,2.44-6.48,4.01-9.73,6-4.24,2.59-7.73,5.5-7.16,10.16,.07,.58-.36,.67-.96,.76-5.84,.87-10.65,3.43-15.48,5.91-3.12,1.6-6.34,2.88-10.13,3.05-.3,.01-.82,.09-.88,0-.93-1.43-3.51-1.67-3.86-3.58-.53-2.99-4.46-4.67-7.53-2.84-4.97,2.96-10.89,3.93-16.43,5.7-2.29,.73-4.27,1.79-5.62,3.32-3.43,3.92-8.23,5.57-14.07,5.39-7.59-.23-15,.52-22.22,2.24-5.52,1.32-11.12,2.44-16.48,4.25-2.21,.75-4.71,1.31-7,1.99-5.14,1.52-10.5,2.53-15.59,4.15-1.63,.52-3.37,.92-5.16,1.17-2.67,.37-5.32,.88-7.93,1.48-2.06,.47-2.49,1.94-2.27,3.33,.21,1.38,1.82,1.61,3.36,1.66,7.9,.27,15.79,.03,23.55-1.15,6.04-.91,12.11-2.01,17.78-3.92,3.52-1.19,7.15-2.16,10.7-3.27,2.89-.9,6.18-.77,8.92,1,.87,.56,.72,.97,.07,1.46-.98,.75-2.39,1.34-3.53,1.09-4.61-1-8.46,.78-12.36,1.99-4.53,1.41-9.23,2.41-13.75,3.81-3.52,1.09-7.22,1.81-10.83,2.4-4.26,.7-8.57,1.59-13,1.65-6.07,.08-12.15,.63-18.21-.16-3.29-.43-6.59-.86-9.88-1.29-9.54-1.25-18.77-3.25-27.36-6.83-2.48-1.03-5.31-1.03-7.88-1.86-6.07-1.95-11.58-4.71-17.33-7.11-7.25-3.02-14.31-6.33-22.45-7.75-.27-.05-.5-.25-.75-.38-.33-3.77-3.11-6.55-6.05-9.29-8.31-7.75-14.66-16.29-16.98-26.42-.19-.83-.6-1.59-1.34-2.25-2.11-1.88-3.52-4.07-4.62-6.4-1.07-2.25-2.12-4.51-3.17-6.77-.34-.73-.83-1.3-1.97-1.24-1.14,.05-1.24,.7-1.37,1.4-.21,1.2-.39,2.39-.19,3.59Zm104.13-123.22l.22-.19-.25,.17c-6.82,2.16-13.75,4.19-19.29,8.16-4.03,2.89-6.85,8-6.44,11.26,8.47-4.88,16.19-10.34,22.99-16.58,.98-.9,2.33-1.59,2.77-2.82Zm50.75,167.79c.11-.06,.46-.02,.15-.24l-.16,.23c-.72-.1-1.35,.09-2.01,.29-10.65,3.15-21.79,4.37-33.05,5.17-5.5,.39-10.98,.85-16.47,1.33-5.04,.44-10.09,.96-15.09-.12-9.22-1.98-16.64-6.04-22.28-12.08-1.68-1.79-3.17-3.7-4.84-5.5-3.08-3.33-6.99-5.72-12.33-6.38-4.38-.54-7.65-3.42-7.88-6.92-.05-.78-.17-1.56-.37-2.32-1.37-5.25-5.11-9.54-9.46-13.45-5.9-5.32-9.67-11.54-13.18-17.9-.54-.98-.78-2.08-.99-3.14-.39-1.96-.57-3.94-.99-5.89-1.64-7.66-5.95-13.99-14.76-18.06-1.87-.86-2.69-2.26-3.07-3.85-2.24-9.23-6.74-17.93-10-27.19-.6,1.39-.7,2.52-.74,3.67-.31,9.52,.84,18.98,1.81,28.46,.76,7.44,4.36,13.74,11.46,18.9,6.62,4.81,9.97,11.16,11.1,18.03,.92,5.62,2.91,10.72,7.1,15.38,3.36,3.73,6.59,7.59,8.5,11.95,.9,2.07,2.18,3.68,4.38,5.07,8.86,5.59,16.54,12.22,25.27,17.93,8.22,5.39,17.12,9.8,27.76,11.61,3.64,.62,7.39,1.65,11.09,.58,6.34-1.85,12.89-2.57,19.57-2.94,6.66-.37,13.29-.83,19.61-2.77,7.44-2.29,14.28-5.27,19.87-9.84Zm82.98-216.22c5.25,2.08,9.57,4.38,13.28,7.28,6.09,4.76,12.06,9.63,18.07,14.45,.27,.21,.52,.44,.74,.69,1.41,1.59,.95,2.88-1.34,3.56-1.14,.34-2.37,.51-3.53,.8-4.51,1.16-5.53,4.01-2.43,6.84,.6,.54,1.26,1.07,2.02,1.48,3.57,1.91,5.87,4.55,7.39,7.66,.96,1.97,1.82,3.96,2.72,5.95,1.42,3.15,3.18,6.11,6.52,8.36,1.14,.77,1.5,1.92,1.39,3.14-.36,3.91-5.17,6.23-9.82,4.83-4.03-1.21-7.05-3.26-9.51-6.02-2.16-2.42-5.47-2.59-7.57-.6-1.4,1.32-.99,3.45,1.21,5.18,3.26,2.58,5.07,5.67,5.87,9.21,.77,3.43,.94,6.94,2.28,10.29,.68,1.7,.68,3.45,.48,5.19-.33,2.95-3.01,5.17-6.34,5.34-2.96,.15-5.18-1.4-6.15-4.48-.47-1.51-.62-3.08-1.03-4.61-2.15-8.03-9.4-12.2-18.51-14.94-.68-.21-1.52-.18-2.28-.15-2.44,.11-3.14,.97-2.19,2.73,1.66,3.1,2.29,6.34,2.35,9.68,.04,2.53,.01,5.05,.22,7.58,.26,3.09,2.14,5.75,3.12,8.64,.65,1.94,.1,2.8-2.18,3.59-1.13,.39-2.31,.71-3.56,.64-2.68-.15-4.73,.82-6.6,2.16-2.68,1.92-4.94,4.1-6.76,6.58-2.23,3.05-5.12,5.67-8.47,8.04-4.83,3.41-10.28,6.1-15.75,8.79-4.75,2.33-9.44,4.74-15.09,5.62-1.74,.27-3.26,1.05-4.6,1.99-5.84,4.1-16.94,2.48-17.88-5.45-.67-5.68-3.37-6.38-9.25-2.92-1.84,1.09-3.66,2.19-5.92,2.73-4.53,1.09-7.93-.22-9.38-3.75-.62-1.51-1.51-2.89-2.72-4.15-1.24-1.3-2.53-2.58-3.67-3.93-2.99-3.56-2.31-6.15,2.2-8.61,1.7-.93,3.52-1.73,5.13-2.74,3.06-1.91,3.23-4.47,.58-6.73-.83-.71-1.76-1.35-2.62-2.04-3.55-2.85-3.37-4.58,.7-6.86,2.55-1.44,2.76-2.05,1.19-4.16-.86-1.15-1.71-2.3-2.04-3.62-.68-2.7,.69-4,4.17-4.12,2.27-.08,4.41,.4,6.58,.78,5.14,.9,7.22,.27,10.17-3.1,1.62-1.85,3.38-3.59,6.14-4.5,1.81-.6,3.6-.66,5.27,.24,7.69,4.1,8.84,12.12,2.5,17.38-2.66,2.21-4.96,2.08-7.14-.41-.35-.4-.63-.83-.95-1.24-1.25-1.59-2.38-3.5-5.13-3.48-2.93,.02-4.21,1.96-5.44,3.72-.37,.53-.64,1.09-.95,1.64-1.35,2.38-1.91,4.95-2.99,7.38-1.72,3.88-.34,6.87,3.59,9.45,5.8,3.81,9.33,3.29,12.66-2.07,.81-1.3,1.46-2.66,2.37-3.91,1.82-2.46,4.49-3.11,7.82-1.98,1.13,.38,2.18,.89,3.28,1.32,3.56,1.38,6.03,.75,7.66-2.1,1.17-2.04,1.79-4.22,2.02-6.45,.27-2.7-.64-5.11-2.87-7.22-.58-.54-1.03-1.21-1.36-1.87-1-1.99-.22-3.56,2.14-4.56,2.19-.93,4.39-.61,5.83,1.12,2.36,2.83,3.89,6,5.51,9.11,1.86,3.57,1.96,7.12-.4,10.63-.49,.73-.72,1.59-.87,2.42-.34,1.77,1.14,4.27,2.81,4.83,2.38,.79,3.89-.34,5.42-1.52,3.35-2.6,4.74-5.9,5.25-9.41,.83-5.72-.28-11.03-6.03-15.22-3.73-2.72-3.43-5.63,.72-8.24,5.8-3.65,5.92-6.76,.41-10.68-.45-.32-.95-.61-1.44-.9-1.92-1.15-3.55-2.49-4.52-4.26-1.19-2.15-2.34-4.32-3.55-6.47-1.1-1.97-2.69-3.62-5.11-4.74-1.76-.81-1.92-1.86-.5-3.01,.47-.38,1.11-.64,1.68-.93,3.87-1.99,4.51-4.08,1.77-6.93-2.49-2.59-4.99-5.2-8.09-7.39-4.01-2.84-8.59-5.07-13.08-7.39-6.56-3.39-12.62-2.42-17.07,2.71-1.6,1.84-3,3.78-4.5,5.68-3.18,4.04-7.57,6.09-13.75,4.94-2.01-.37-3.42,.17-4.67,1.3-3.67,3.31-6.61,6.92-8.02,11.23-1.31,3.98-2.12,8-1.96,12.14,2.04-2.84,4.56-5.32,7.7-7.39,3.72-2.45,7.91-4.37,11.92-6.49,5.29-2.79,7.5-2.79,12.78,.01,2.3,1.22,4.57,2.45,7.48,2.58,1.54,.07,2,.99,1.8,1.91-.84,3.8-1.93,7.58-4.72,10.84-1.81,2.11-4.4,2.94-7.75,2.59-3.55-.38-6.49-1.8-9.56-3.01-7-2.77-11.95-1.51-13.03,4.87-.69,4.08-3.37,7.35-8.86,8.63-2.92,.68-5.9,.81-8.89,.45-2.15-.26-4.29-.31-6.43-.2-4.87,.25-7.98,2.89-7.98,6.68,0,1.93-.12,3.86,.07,5.78,.39,4.1,1,8.21,4.34,11.6,2.45,2.49,4.7,5.07,6.65,7.8,3.37,4.7,7.39,9,12.14,12.89,1.92,1.57,3.55,3.33,4.59,5.38,.98,1.91,.51,4.24-1.17,5.17-1.95,1.07-3.64,.1-5.3-.63-2.97-1.32-5.42-3.13-7.74-5.06-6.88-5.72-12.16-12.4-18.17-18.64-.56-.58-.92-1.78-1.96-1.49-1.02,.29-1.23,1.41-1.3,2.35-.07,.96,.37,1.79,.99,2.55,4.18,5.14,7.56,10.62,10.89,16.11,4.79,7.88,9.74,15.67,15.96,22.97,8.53,10.02,28.19,16.41,41.82,11.21,1.98-.75,4.23-.65,6.36-.41,2.07,.24,3.84,1.09,4.59,2.68,.65,1.39-.88,2.19-1.92,3.04-.87,.71-1.64,1.48-1.87,2.44-.17,.71-.13,1.58,1.29,1.44,5.27-.52,10.42-1.36,15.17-3.38,3.71-1.58,6.47-4.04,9.66-6.11,2.64-1.71,5.44-3.35,8.98-3.35,7.9,0,14.83-2.21,21.49-5.24,6.83-3.11,13.58-6.29,21.38-7.89,4.37-.9,7.3-3.5,8.69-6.94,.84-2.09,.81-4.29-1.04-6.02-4.14-3.89-3.04-6.04-.06-9.19,2.4-2.54,3.18-4.92,.75-7.75-1.43-1.67-1.94-3.69,.04-5.36,1.88-1.59,4.42-2.15,7.17-1.7,5.39,.88,7.91,3.74,8.73,7.83,.53,2.61,1.01,5.39,3.96,7.08,1.69,.97,1.44,1.74,.56,2.8-.38,.45-.76,.9-1.15,1.35-2.11,2.44-4.86,4.51-6.76,7.08-1.02,1.37-1.4,2.84,0,4.22,1.44,1.44,3.34,1.5,5.42,1.02,2.97-.68,5.68-1.74,8.29-3.06,2.46-1.24,4.57-.46,5.44,1.76,.47,1.21-.05,2.27-.76,3.26-1.12,1.58-2.32,3.13-3.86,4.48-.58,.51-1.04,1.03-1.2,1.71-.17,.76,.07,1.49,.73,2,.72,.55,1.43-.06,2.09-.28,.77-.26,1.5-.61,2.23-.94,7.57-3.51,12.85-8.85,18.5-13.94,4.06-3.65,4.83-7.58,3.63-12.08-.94-3.52-1.9-7.04-2.15-10.67-.65-9.68,1.69-18.91,6.59-27.77,1.74-3.14,1.86-6.25,.14-9.45-1.6-2.97-1.77-5.98-.41-9.13,1.55-3.59,.98-7.02-2.45-9.93-1.53-1.3-3.51-2.13-5.37-3.09-5.05-2.6-6.16-5.39-3.8-9.72,1.38-2.54,1.38-5.05-.23-7.48-2.53-3.8-5.46-7.4-9.17-10.57-6.18-5.29-13.74-9.24-21.11-13.36-3.43-1.92-6.46-4.29-10.35-5.7-3.09-1.12-6.23-1.46-10.11-.27ZM81.37,126.55c1.69-2.36,2.95-4.57,4.71-6.5,6.37-7,13.23-13.67,21.47-19.42,9.05-6.32,19.2-10.88,31.17-12.82,5.29-.86,8.8-3.6,7.19-8.12-1-2.82-.55-5.51,2.36-7.62,2.34-1.69,5.34-2.39,8.31-2.94,5.98-1.11,10.19-3.27,10.74-8.63,.28-2.78,2.38-3.59,5.88-2.9,.88,.17,1.78,.44,2.54,.82,6.8,3.42,14.37,4.63,22.3,4.85,2.22,.06,4.45,.04,6.67,.16,5.57,.28,11.13,.74,16.7,.89,3.6,.09,5.82-1.81,6.11-4.61,.08-.8-.58-2.06,.41-2.29,1.06-.25,2.08,.79,2.95,1.46,.71,.55,1.44,1.09,2.12,1.66,2.53,2.09,4.96,4.28,7.6,6.28,3.82,2.89,8.35,3.38,13.2,1.88,3.34-1.04,3.59-1.06,5.77,1.18,.98,1,2.34,1.92,2.8,3.05,1.3,3.26,3.45,5.78,7.57,7.22,1.47,.51,1.77,1.75,1.18,2.98-.58,1.21-1.84,1.51-3.33,1.5-1.77-.02-3.54-.07-5.3,.01-4.74,.23-5.82,1.92-3.31,5.04,.12,.15,.28,.29,.41,.44,3.55,4.21,7.27,8.33,10.39,12.76,5.61,7.96,9.28,16.35,9.16,25.54-.03,2.21-.52,4.42-.43,6.65,.09,2.17,1.17,3.34,3.32,3.45,3.16,.16,4.9-.97,5.52-3.09,.6-2.06,0-4.05-.02-6.07-.06-5.65,1.28-11.25,.91-16.91-.38-5.88-3.01-10.85-9.04-14.56-2.05-1.26-2.7-3.84-1.48-5.75,1.17-1.82,3.37-2.39,6.29-1.7,2.33,.55,4.52,1.49,7.08,1.46,1.73-.02,3.24-.25,4.08-1.56,.8-1.24,.47-2.36-.44-3.55-3.56-4.7-6.94-9.49-10.52-14.18-2.33-3.06-3.64-6.5-5.86-9.59-2.38-3.32-5.53-5.85-10.91-5.47-1.58,.11-3.15,.5-4.67,.9-2.22,.59-4.1,.31-6.04-.73-2.89-1.55-4.91-3.78-7.38-5.64-5.94-4.49-12.32-8.48-19.37-11.82-4.34-2.05-8.86-3.84-13.64-5.18-3.7-1.03-6.77-.35-8.6,1.79-1.93,2.26-1.55,4.01,1.43,6.6,.31,.27,.67,.5,.96,.78,1.7,1.64,3.33,3.31,4.05,5.4,.37,1.08-.01,2.04-1.11,2.74-1.05,.66-2.15,.41-3.2-.11-3.79-1.86-7.89-3.21-12-4.56-4.03-1.32-8.1-2.63-11.37-5-4.14-3-9.25-4.14-14.63-4.74-4.26-.48-7.82,.97-11.14,2.77-3.91,2.12-8.02,3.48-12.9,3.04-1.12-.1-2.34-.06-3.43,.16-7.25,1.48-13.13,4.84-18.55,8.69-2.54,1.8-1.86,4.06,1.29,5.17,1.6,.57,3.31,.91,5.03,1.22,1.75,.32,3.15,1.11,3.09,2.7-.08,1.98-1.98,3.73-4.52,4.03-1.73,.21-3.45,.49-5.25,.44-2.92-.07-5.89-.24-8.75,.08-16.62,1.87-30.39,14.45-27.03,28.78,.41,1.74,.33,3.59-.71,5.31-1.58,2.61-3.12,5.23-4.58,7.88-3.17,5.76-4.79,11.7-3.25,18.33Zm67.45,74.52c-.25,1.91-.54,3.85,.32,5.68,1.26,2.69,3.3,5.16,3.44,8.15,.05,1.07,.2,2.15,.47,3.21,1.75,7.02,6.51,12.76,12.69,17.84,2.96,2.44,6.28,4.58,9.7,6.62,1.18,.7,2.25,1.51,1.6,2.89-.61,1.3-1.85,1.55-3.47,1.55-4.27,.03-8.45-.53-12.38-1.68-12.73-3.73-22.17-10.53-28.77-19.77-4.13-5.78-6.55-12.2-10.59-18.02-1.84-2.65-3.9-5.17-6.95-7.55,.49,6.46,2.34,12.31,5.09,18,3.53,7.31,8.12,14.27,11.3,21.69,1.61,3.76,4.27,5.27,9.32,5.52,6.98,.34,10.08,1.7,11.59,7.36,.77,2.89,2.62,4.89,5.54,6.54,5.19,2.92,11.08,4.38,17.33,4.82,4.68,.33,9.08-.12,12.24-3.58,3.22-3.52,7.9-4.35,13.13-3.26,8.34,1.74,16.49,4.06,25.13,4.91,7.2,.71,14.31,.78,21.46-.37,7.6-1.22,14.12-4.86,21.91-5.7,2.78-.3,5.49-.99,8.35-.99,6.97,.02,13.95,.05,20.92-.01,3.02-.03,5.91-.67,9.1-1.67-1.33-.2-2.22-.37-3.13-.47-8.39-.92-16.81-1.74-25.19-2.68-7.92-.89-15.87-.88-23.8-1.23-7.43-.32-14.91-.07-22.37-.07-.76,0-1.53,.07-2.29,.11-5.57,.22-11.1,1.03-16.69,.96-3.05-.04-3.95-1.25-2.53-3.4,.81-1.22,1.79-2.38,2.7-3.56,.74-.96,.53-1.44-1.02-1.35-2.39,.14-4.73-.24-7.07-.54-8.5-1.09-16.32-3.63-23.77-6.95-8.66-3.86-16.06-8.75-21.51-15.4-4.57-5.59-8.14-11.57-11.8-17.59Zm1.27,27.51c.31-.63-.03-.83-.22-1.08-3.41-4.24-6.15-8.73-8.41-13.41-4.51-9.34-7.19-19.1-10.88-28.63-2.5-6.44-5.34-12.78-9.57-18.7-2.77-3.88-4.6-8.1-4.1-12.57,.65-5.75,4.29-10.26,10.45-13.57,5.97-3.21,8.89-8.35,7.02-13.09-1.79-4.55,2.74-10.66,7.19-12.38,5.78-2.23,11.16-5.04,16.54-7.82,7.56-3.89,15.04-7.91,23.43-10.69,2.67-.89,5.41-1.65,8.57-2.6-2.13,0-3.76-.12-5.35,.02-7.68,.67-14.9,2.61-21.96,5-7.24,2.46-14.47,5.03-22.31,6.07-7.5,.99-13.17,4.01-17.36,8.89-2.7,3.15-4.92,6.52-7.2,9.86-2.24,3.29-5.11,6.2-8.83,8.46-1.83,1.11-2.36,2.16-1.42,3.65,2.23,3.56,1.45,7.04-.48,10.42-2.78,4.89-4.69,9.87-4.18,15.34,.42,4.51,2.62,8.28,6.99,11.15,3.26,2.14,6.16,4.52,8.72,7.14,6.95,7.09,10.83,15.3,13.85,23.8,1.93,5.45,3.78,10.9,7.71,15.75,3,3.7,6.68,6.83,11.81,8.95ZM219.68,25.09c7.67,3.39,15.08,6.68,22.92,9.33,9.92,3.35,20.07,6,31.05,6.01,1.3,0,2.34,.4,3.35,1.02,2.95,1.84,6.03,3.53,9.25,5.07,11.38,5.47,23.22,10.41,32.5,18.22,1.93,1.62,4.69,2.22,7.6,2.16,1.35-.03,1.38-.4,.79-1.19-2.57-3.49-5.04-7.03-7.68-10.49-2.38-3.11-5.43-5.85-9.88-7.03-4.14-1.1-5.77-3.38-6.36-6.41-.98-5.02-4.83-8.27-11.21-9.23-5.04-.76-10.1-1.45-15.15-2.14-16.38-2.23-32.78-4.4-49.14-6.71-2.95-.42-5.41-.07-8.03,1.39Zm67.27,213.66l-.31,.46c.39,.19,.81,.36,1.18,.58,6.17,3.68,13.08,5.74,20.87,5.74,7.04,0,13.73-1.54,20.48-2.92,7.07-1.45,12.25-4.81,16.5-9.24,4.55-4.74,7.84-10.05,10.97-15.42,.67-1.15,1.74-2.23,1.88-3.73-1.98,.48-3.48,1.29-4.94,2.15-3.69,2.15-6.69,4.97-10.6,6.89-5.07,2.49-10.25,3.54-15.58,.34-.96-.57-2.09-1-3.44-.79-2.7,.44-5.43,.65-8.2,.68-5.01,.05-7.89,2.09-8.97,5.91-.37,1.32-.06,2.66-.52,3.93-.97,2.69-3.93,3.4-6.89,3.86-4.11,.63-8.27,1.05-12.42,1.56ZM76,138.01c-5.15,5.38-6.46,11.38-5.11,17.78,1.51,7.15,4.98,13.86,7.73,20.73,.52,1.31,1.44,2.53,2.57,3.61,1.58,1.49,3.78,1.96,5.74,1.27,1.73-.61,2.73-2.31,2.36-4.13-1.02-5.05-2.55-10.01-4.66-14.84-3.49-7.99-8.05-15.75-8.64-24.41Zm172.24,132.36c-15.49-.53-30.99,.22-46.47-.58-4.88-.25-9.72-.77-14.57-1.23-1.14-.11-2.74-.9-3.3-.12-.64,.88,.39,2.04,1.19,2.94,.83,.94,1.83,1.75,3.12,2.34,8.83,4.03,18.31,4.77,28.19,3.46,6.05-.8,11.88-2.26,17.72-3.69,4.66-1.13,9.37-2.11,14.13-3.12ZM65.3,106.57c-2.62,1.99-4.46,4.41-6.13,6.88-3.88,5.78-6.48,11.88-7.7,18.38-1.51,8.03-.86,15.8,3.48,23.25,.96,1.65,2.28,3.15,4.15,4.79-.11-18.17-.03-35.92,6.21-53.31Zm44.46,110.68c.4-3.17-.14-5.94-1.14-8.68-1.85-5.07-4.28-10.06-3.81-15.49,.05-.57-.28-1.06-.78-1.46-1.73-1.37-3.41-2.78-5.22-4.08-1.55-1.11-3.2-.84-4.18,.6-.66,.97-1.01,1.95-.53,3.11,1.45,3.48,2.69,7.02,4.21,10.49,2.48,5.65,5.74,10.99,11.46,15.51Zm127,66.68c8.74,.59,17.38,.91,26.01-.06,7-.79,13.5-2.53,19.37-5.73,2.06-1.12,.76-2.22,.39-3.3-.45-1.3-1.73-.41-2.46-.26-8.06,1.68-16.09,3.46-24.13,5.2-6.39,1.39-12.79,2.76-19.18,4.15Zm-.4-42.32c5.62,.6,11.11,1.65,16.68,2.29,8.37,.96,16.67,1.12,24.61-1.69,1.32-.47,2.87-.73,3.91-1.94-15.43-3.17-30.25,.33-45.2,1.34Zm-104.2,16.73c-.45,6.5,6.72,15.01,15.98,19.62,5.21,2.59,13.37,4.05,18.17,2.37-15.56-3.19-24.66-12.46-34.15-21.99Z"/><path class="cls-6" d="M336.36,42.68c-1.52-.72-1.08-1.99-1.32-3.03-.83-3.71-1.51-7.44-2.8-11.09-1.62-4.59-5.68-7.1-11.01-8.72-4.29-1.31-8.7-2.36-13.2-3.07-5.77-.9-10.78-2.98-15.58-5.51-1.14-.6-2.23-1.25-3.59-1.58-3.26-.79-6.31,.83-6.46,3.49-.17,3,1.49,5.61,2.89,8.27,.55,1.06,1.62,2.23,.04,3.08-1.5,.81-3.61,.91-4.97-.02-6.81-4.66-14.86-7.86-22.27-11.8-4.2-2.24-8.15-4.67-11.31-7.85-1.23-1.24-2.89-2.14-4.99-2.41-10.35-1.32-20.06-4.32-29.92-6.95-4.5-1.2-9.11-2.12-13.8-2.67-4.93-.58-9.62,.43-14.07,2.01C177.67-2.91,171.73,0,164.47,1.97c16.82,3.1,33.23,5.66,46.33,14.75-4.53,2.16-8.8,1-13.05-.01-8.56-2.05-17.29-3.23-26.24-2.95-11.05,.36-21.69,2.23-31.57,6.26-4.25,1.73-7.19,4.71-10.29,7.43-2.69,2.36-5.67,4.33-8.98,6.11-2.58,1.39-5.39,1.7-8.35,2.03-5.99,.68-10.9,3.42-16.09,5.6-4.58,1.92-9.01,4.19-14.45,4.38,1.21-1.66,2.49-3.3,3.63-4.99,1.84-2.74,1.27-5.03-1.64-7.14-5.37-3.89-11.97-4.13-18.76-.67-4.72,2.41-6.33,5.53-4.92,9.74,.65,1.92,1.69,3.73,3.18,5.35,.37,5.69-3.57,9.66-8.89,12.82-3.14,1.86-5.12,3.69-3.55,6.86-4.13,.91-7.79,2.1-8.71,6-1.01,4.29-4.36,7.45-8.64,10.09-3.96,2.45-8.33,4.45-11.91,7.33-5.6,4.51-7.19,9.68-4.4,15.5,1.17,2.43,.97,4.27-1.48,5.97-7.29-1.34-11.37,.47-13.19,5.9-.51,1.51-.79,3.05-.71,4.63,.13,2.68,1.81,4.47,5.02,5.46,2.12,.65,4.32,.72,6.54,.79,2.06,2.14,3.39,4.5,3.88,7.19,.4,2.18,.95,4.37,1.75,6.48,1.03,2.71,2.82,5.06,6.45,6.15-.46,2.35,.73,4.33,2.23,6.25,1.52,1.95,3,3.91,2.84,6.33-1.88,.26-2.41,1.55-2.67,2.65-.29,1.27-.6,2.57-.64,3.91-.16,5.74-1.08,11.43-1.69,17.14-.42,3.87-1.05,7.72-1.5,11.58-.08,.71-.34,1.41-.43,2.12-.41,3.22,1.25,5.35,5.97,7.07,2.51,.91,4.35,2.12,4.49,4.33,.1,1.56-.78,3.01-1.52,4.45-.4,.78-.81,1.56-1.09,2.36-.75,2.19-2.54,3.1-5.29,2.53-1.18-.24-2.34-.58-3.45-.97-4.9-1.72-9.22-.31-10.93,3.73-1.34,3.18-2.56,6.39-3.62,9.63-1.27,3.87-.74,7.57,2.42,10.88,.38,2.27,1.13,4.47,2.62,6.44,1.2,1.59,2.63,3.09,5.27,3.37,5.9,2.12,8.11,6.49,10.53,10.7,1.2,2.08,2.31,4.18,4.15,5.98,1.39,1.36,1.13,2.82-.04,4.12-1.14,1.26-2.87,1.13-4.35,.48-11.51-4.97-21.85-10.93-27.56-20.66-.8-1.36-1.62-2.73-1.63-4.29,.58-.39,1.19-.75,1.74-1.16,3.76-2.83,3.97-5.42,.54-8.45-1.57-1.38-3.36-2.61-5.04-3.9-1.57-.51-2.55-1.44-3.19-2.65-.41-.77-.99-1.49-1.51-2.22-.9-1.27-2.08-2.01-4.09-1.57-2.14,.47-3.28,1.48-3.18,3.24,.1,1.79,.25,3.58,.38,5.36-1.39,.98-2.63,2.08-2.67,3.63-.06,2.82,1.41,5.29,3.14,7.68-.93,1.85-.2,3.78-.4,5.67-.08,.75-.01,1.51-.21,2.33-3.11-4.6-6.97-8.71-11.76-12.26,3.03-2.04,3.64-4.62,1.45-6.97-1.89-2.03-4.23-3.75-6.53-5.49-4.98-1.72-5.64-5.38-6.42-8.93-.71-3.26-1.89-6.4-3.32-9.5-2.01-4.4-4.05-8.82-3.59-13.6,.15-1.52-.15-3.23,1.67-4.4,2.92,5.88,8.55,9.17,16.24,10.52,.18,2.3,2.12,3.25,4.64,3.81,1.89,.43,2.84,1.53,3.21,3,.25,1.01,.7,1.96,1.37,2.85,1.08,1.42,2.62,2.29,4.77,1.78,2.02-.48,3.1-1.64,3.14-3.37,.08-3.51-.76-6.9-1.98-10.25-.59-1.64-.92-3.27-.78-4.96,5.55-3.75,4.33-10.91-2.31-13.53-.63-3.44-1.79-6.79-2.45-10.23-1.08-5.68-1.75-11.41-3.57-17-.64-1.98-1.26-3.96-2.25-5.85-.33-.62-.63-1.23-.56-1.91,1.35-.55,2.69-1.11,4.04-1.66,3.1,.8,5.62,2.41,8.4,3.66,4.58,2.07,9.03,4.3,13.54,6.45,1.55,.74,3.25,1.08,5.06,.88,2.56-.29,3.46-1.64,2.32-3.41-4.39-6.81-8.57-13.69-11.51-20.99-3.83-9.5-4.27-18.95,.71-28.31,.8-1.51,.53-3.07,.55-4.63,1.71-1.36,3.44-2.72,4.59-4.42,1.43-2.12-.4-5.21-3.07-5.07-2.53,.13-4.68,1.14-6.22,2.8-1.83,1.15-2.34,2.93-3.41,4.43-1.74,2.42-3.85,4.36-7.8,4.27-.68-1.17-.11-2.23,.46-3.3,.53-1,1.17-1.97,1.56-3,.44-1.18-.04-2.11-1.64-2.6-3.54-1.07-8.15-.33-10.62,1.89-2.65,2.39-4.04,5.25-4.32,8.39-.18,2.11,1,3.36,3.58,4.11,1.67,.49,3.45,.56,5.2,.71-.53,3.3-2.64,6.24-3.41,9.49-.69,2.92,.06,5.47,2.25,7.8,.92,.98,1.68,1.95,.75,3.11-.99,1.24-2.45,.92-3.9,.56-5.17-1.31-9.92-.5-13.88,2.27-4.17,2.91-8.48,.76-9.49-2.92-.08-.29-.1-.59-.15-.89,.16-1.14,.32-2.27,.47-3.41,.34-2.73-.01-5.3-2.65-7.37-.1-.74,.45-1.21,1.05-1.71,6.01-5.07,10.13-11.07,13.74-17.3,4.48-7.73,8.14-15.76,13.41-23.21,1.5-.66,3.01-1.32,4.51-1.99,2.49,.92,2.96,1.86,2.19,4.65-.35,1.27-.55,2.51,.4,3.66,.37,.45,.82,1,1.52,1.02,.85,.02,.93-.72,1.18-1.18,3.02-5.47,6.29-10.85,9.88-16.11,6.93-10.15,14.89-19.76,24.66-28.4,7.4-6.55,15.45-12.54,24.45-17.72,.23-.13,.4-.34,.85-.73-2.56,.14-4.5,.95-6.46,1.6-2.84,.94-5.68,1.77-8.74,2.14-2.53,.31-4.85,.04-7.03-1,.66-1.37,2.16-2.4,2.59-3.87,2.79-4.04,7.45-5.59,12.92-6.64,7.56-1.45,13.98-4.82,19.97-8.67,3.99-2.56,8.35-3.39,13.53-2.22,5.96,1.35,12.1,2.21,18.37,1.2,7.4-1.2,12.66-4.64,16.39-9.67,.22-.29,.23-.69,.33-1.03,3.55-.07,6.13-1.73,8.75-3.29,3.01-1.8,6.17-3.18,10.16-2.61,1.65,.48,3.36,.62,5.11,.71,8.58,.47,16.43-1.74,24.29-3.96,2.53-.72,5.07-1.42,7.61-2.12l-.11-.44h-27.02c.12-.59,.23-1.18,.35-1.76,3.14-.29,5.68-1.76,8.45-2.74,7.29-2.59,14.68-4.91,22.63-5.83,7.21-.83,14.3-.06,21.3,1.43,7.31,1.56,14.5,3.45,21.93,4.68,6.83,1.14,13.65,1.19,20.56,.68,5.94-.44,11.79,.05,17.33,2.01,9.15,3.24,18.62,5.85,28.11,8.4,4.2,1.13,8.39,2.27,12.52,3.53,3.22,.99,6.5,1.37,9.91,1.14,2.49-.17,4.18,.6,5.5,2.29,5.51,7.01,12.38,13.21,19.19,19.44,2.49,2.28,5.01,4.53,7.34,6.9,2.58,2.63,3.8,5.76,4.39,8.98,.77,4.21,1.19,8.46,.94,12.72ZM5.77,211.99c1.62-1.09,2.39-2.53,3.02-3.98,4.06-9.42,4.61-19.05,2.6-28.8-.46-2.25-1.15-4.47-2.48-6.54-.6-.93-1.02-.92-1.61,0-.87,1.34-1.63,2.72-2.22,4.15-2.27,5.51-1.35,11.04-.22,16.57,1.25,6.16,2.67,12.31,.91,18.6ZM75.16,19.72c-.03,2.56,1.48,3.81,5.12,4.04,3.03,.19,6.07,.22,9.12,.07,3.11-.15,4.31-1.01,4.2-3.45-.08-1.87-.93-3.43-3.3-4.15-3.1-.93-6.35-1.38-9.66-1.04-3.25,.34-5.47,2.28-5.49,4.53ZM25.47,63.97c.09-3.31-1.48-4.23-5.56-3.27-5.74,1.35-8.53,5.98-6.26,10.38,.78,1.52,2.08,1.94,4.04,1.42,4.64-1.24,7.68-4.54,7.79-8.53Zm18.92-26.37c-.03-.24-.03-.9-.19-1.55-.19-.76-.57-1.49-.78-2.25-.28-1.06-1-.99-2.02-.64-1.6,.55-2.1,1.69-2.57,2.83-.54,1.32-1.37,2.32-3.14,2.86-1.9,.59-2.66,1.95-2.8,3.46-.16,1.7,1.32,3.01,3.08,2.91,4.19-.25,8.45-3.89,8.42-7.61Z"/><path class="cls-6" d="M79.79,312.05c.87,1.58,2.62,1.62,5.54,.74,2.7-.81,2.6-.87,2.84,1.4,.3,2.8,2.41,4.86,4.71,6.84,2.16,1.86,4.39,3.67,5.09,6.3,.38,1.4,.37,2.72-.09,4.08-.62,1.82-1.17,2.05-3.38,1.21-1.65-.63-3.32-1.14-5.16-1.44-3.49-.57-6.84,.15-10.25,.29-1.99,.08-3.99,.14-5.98,.05-2.13-.09-3.1-1.12-2.97-2.78,1.52-.12,3.05-.27,4.57-.34,4.37-.2,6.36-1.8,6.44-5.25,.1-4.07-4.29-8.03-10.21-9.28-2.41-.51-4.78-.46-6.93,.49-7.61,3.36-7.21,6.5-1.99,9.96,1.51,1,2.65,2.14,3.09,3.66-6.45-2.34-12.62-5.09-18.56-8.15-4.38-2.25-8.31-4.93-11.36-8.28-2.54-2.79-4.64-5.79-5.25-9.27,1.45-3.99-1.62-7.33-5.92-7.63-4.52-1.51-8.46-3.59-11.07-6.97-.78-1.01-1.53-2.03-1.77-3.62,3.58,1.69,6.83,3.2,10.06,4.75,6.14,2.95,12.26,5.92,18.38,8.89,1.61,.78,3.43,1.15,4.92,.16,1.68-1.11,1.51-2.66,.52-4.12-1.01-1.49-1.9-3.02-2.43-4.66-.78-2.41,.86-3.64,4.01-3.23,3.1,.4,5.95,1.6,9.13,1.67,2.32,1.41,4.62,2.85,7.42,3.68,.47,1.51,1.94,2.57,2.85,3.88,1.19,1.73,2.1,3.47,1.88,5.48-1.26,3-.67,5.33,2.21,6.89,3.1,1.67,6.43,3.08,9.66,4.61Z"/><path class="cls-4" d="M414.81,135.92c.31,.01,.61,.03,.92,.03,6.09,.13,6.87-1.85,7.39-5.57,.25-1.84,.06-3.71,.52-5.55,.19-.75,.4-1.49,1.06-2.2,1.11,.89,1.08,1.96,1.12,2.8,.19,3.33,.61,6.75-.09,10-.51,2.38-.96,4.8-1.38,7.19-.41,2.3-1.44,4.68-.37,7.06-1.4,2.44-1,5.13-1.64,7.68-1.49,5.97-4.11,11.6-7.41,17.05-3.6,5.94-7.44,11.8-11.21,17.68-.72,1.12-1.49,2.27-3.36,2.45-3.68,.34-4.83-.52-4.91-3.44-.24-7.85,.36-15.64,2.8-23.29,.66-2.08,1.42-4.14,2.36-6.15,1.04-2.22,2.94-3.89,5.99-4.57,.44-.1,.88-.2,1.3-.33,7.59-2.3,8.2-6.43,5.57-11.4-.59-1.1-1.36-2.15-2.02-3.23-1.76-2.85-.56-5.07,3.36-6.22Z"/><path class="cls-6" d="M18.17,12.74c-3.56-.44-3.93-1.04-2.15-3.47,1.15-1.58,2.96-2.54,5.08-3.15,2.07-.59,4.18-1.1,6.27-1.66,.78-.21,1.69-.3,1.78-1.16,2.26,.42,3.61-1.02,5.25-1.71,7.27-3.04,7.97-5.42,3.41-10.69,2.45-.87,5.24-.56,7.74-1.39,2.41-.8,4.68-1.74,6.78-2.97,3.74-2.19,7.88-3.65,12.53-4.17,2.34-.26,5.66,.95,6.7,2.5,1.08,1.61,.68,3.39-1.71,4.95-2.31,1.52-4.05,3.4-6.13,5.06-2.88,2.3-6.64,3.46-10.49,4.26-10.75,2.24-20.29,6.36-29.35,11.26-1.07,.58-2.09,1.2-3.14,1.8-.86,.18-1.71,.36-2.57,.55Z"/><path class="cls-6" d="M352.96,1.1c.12,3.26-1.13,4.19-5.34,3.92-.82-.05-1.63-.26-2.45-.4-.87-1-2.32-1.1-3.62-1.38-2.55-.55-4.94-1.27-6.76-2.88-1.56-1.37-2.65-2.91-1.75-4.74,.96-1.93,3.13-2.76,5.67-2.84,3.22-.1,6.13,.88,9.01,1.87,1.19,.41,2.35,.94,3.59,1.18,1.8,.36,1.78,1.06,.94,2.07-.25,.3-.53,.6-.71,.92-.67,1.18-.69,2.14,1.42,2.27Z"/><path class="cls-4" d="M395.46,81.35c1.71-.4,1.99-1.91,3.36-2.69,1.52,2.76,1.32,5.84,3.03,8.51,1.23,1.92,2.34,3.9,4.18,5.52,2.69,2.38,3.31,3.7-.87,5.27-2.47-1.63-5.66-2.33-8.2-3.91-1.27-.79-2.44-1.61-3.37-2.66-2.24-2.55-1.21-5.05,.33-7.45,.55-.85,1.04-1.72,1.53-2.59Z"/><path class="cls-4" d="M361.83,50.56c.05-.68-.19-1.3-.48-1.92-.4-.85-.96-1.81,.38-2.39,1.36-.59,2.75-.56,3.98,.39,1.6,1.23,2.68,2.76,4,4.15,5.2,5.46,10.37,10.95,15.55,16.42-5.11-.3-8.45-2.82-11.39-5.71-2.94-2.89-5.35-6.12-8.92-8.62-1.06-.74-2.5-1.19-3.12-2.31Z"/><path class="cls-6" d="M297.69,266.46c-.54-.05-1.34,.65-1.53,0-.15-.52,.81-.67,1.5-.66,0,.22,.02,.44,.02,.66Z"/><path class="cls-3" d="M69.87,240.38c-.2-1.21-.02-2.4,.19-3.59,.12-.7,.23-1.34,1.37-1.4,1.13-.05,1.63,.52,1.97,1.24,1.05,2.26,2.1,4.52,3.17,6.77,1.1,2.33,2.51,4.53,4.62,6.4,.74,.66,1.15,1.41,1.34,2.25,2.32,10.13,8.67,18.67,16.98,26.42,2.94,2.75,5.72,5.52,6.05,9.29-2.06-.36-3.37-1.64-4.84-2.62-13.93-9.35-22.47-21.27-26.69-35.15-.72-2.38-.93-4.86-2.05-7.18-.45-.93-.67-2.02-2.12-2.43Z"/><path class="cls-3" d="M307.73,68.73c3.88-1.19,7.03-.85,10.11,.27,3.89,1.41,6.92,3.78,10.35,5.7,7.38,4.12,14.94,8.08,21.11,13.36,3.71,3.17,6.65,6.77,9.17,10.57,1.61,2.43,1.61,4.93,.23,7.48-2.35,4.33-1.24,7.12,3.8,9.72,1.86,.96,3.84,1.79,5.37,3.09,3.43,2.91,4,6.34,2.45,9.93-1.35,3.14-1.19,6.15,.41,9.13,1.72,3.2,1.6,6.31-.14,9.45-4.9,8.86-7.24,18.09-6.59,27.77,.24,3.63,1.21,7.15,2.15,10.67,1.2,4.5,.42,8.43-3.63,12.08-5.66,5.09-10.93,10.43-18.5,13.94-.73,.34-1.46,.68-2.23,.94-.66,.22-1.37,.83-2.09,.28-.67-.51-.91-1.23-.73-2,.15-.68,.62-1.2,1.2-1.71,1.54-1.35,2.75-2.9,3.86-4.48,.7-.99,1.23-2.05,.76-3.26-.87-2.21-2.98-3-5.44-1.76-2.61,1.32-5.31,2.38-8.29,3.06-2.08,.47-3.98,.41-5.42-1.02-1.39-1.39-1.01-2.85,0-4.22,1.9-2.56,4.65-4.63,6.76-7.08,.39-.45,.77-.9,1.15-1.35,.88-1.06,1.14-1.83-.56-2.8-2.96-1.69-3.44-4.47-3.96-7.08-.82-4.09-3.34-6.94-8.73-7.83-2.75-.45-5.28,.11-7.17,1.7-1.98,1.67-1.47,3.7-.04,5.36,2.43,2.83,1.65,5.21-.75,7.75-2.98,3.15-4.09,5.31,.06,9.19,1.85,1.74,1.88,3.93,1.04,6.02-1.38,3.44-4.31,6.04-8.69,6.94-7.8,1.6-14.55,4.78-21.38,7.89-6.66,3.04-13.59,5.25-21.49,5.24-3.54,0-6.33,1.64-8.98,3.35-3.19,2.07-5.95,4.52-9.66,6.11-4.75,2.03-9.9,2.86-15.17,3.38-1.42,.14-1.45-.73-1.29-1.44,.23-.97,.99-1.73,1.87-2.44,1.04-.85,2.57-1.65,1.92-3.04-.75-1.59-2.52-2.44-4.59-2.68-2.13-.24-4.39-.35-6.36,.41-13.63,5.2-33.29-1.2-41.82-11.21-6.22-7.3-11.17-15.09-15.96-22.97-3.33-5.49-6.72-10.97-10.89-16.11-.62-.76-1.06-1.59-.99-2.55,.07-.94,.28-2.06,1.3-2.35,1.04-.29,1.39,.9,1.96,1.49,6.01,6.24,11.3,12.92,18.17,18.64,2.32,1.93,4.77,3.75,7.74,5.06,1.66,.74,3.35,1.7,5.3,.63,1.68-.92,2.15-3.25,1.17-5.17-1.04-2.04-2.67-3.8-4.59-5.38-4.75-3.9-8.78-8.19-12.14-12.89-1.95-2.73-4.2-5.31-6.65-7.8-3.34-3.39-3.94-7.5-4.34-11.6-.18-1.92-.07-3.85-.07-5.78,0-3.79,3.11-6.44,7.98-6.68,2.14-.11,4.29-.06,6.43,.2,2.99,.36,5.97,.23,8.89-.45,5.49-1.28,8.16-4.55,8.86-8.63,1.09-6.38,6.04-7.64,13.03-4.87,3.07,1.21,6,2.64,9.56,3.01,3.35,.36,5.94-.47,7.75-2.59,2.79-3.26,3.88-7.04,4.72-10.84,.2-.92-.26-1.84-1.8-1.91-2.91-.13-5.18-1.36-7.48-2.58-5.27-2.8-7.49-2.81-12.78-.01-4.01,2.12-8.2,4.04-11.92,6.49-3.14,2.07-5.66,4.54-7.7,7.39-.16-4.14,.65-8.16,1.96-12.14,1.42-4.31,4.35-7.93,8.02-11.23,1.25-1.12,2.66-1.67,4.67-1.3,6.18,1.15,10.56-.9,13.75-4.94,1.49-1.9,2.9-3.84,4.5-5.68,4.45-5.13,10.51-6.1,17.07-2.71,4.49,2.32,9.06,4.54,13.08,7.39,3.1,2.2,5.59,4.81,8.09,7.39,2.74,2.85,2.1,4.94-1.77,6.93-.58,.3-1.21,.55-1.68,.93-1.42,1.16-1.25,2.2,.5,3.01,2.43,1.12,4.01,2.77,5.11,4.74,1.2,2.15,2.36,4.31,3.55,6.47,.97,1.76,2.6,3.11,4.52,4.26,.49,.29,.99,.58,1.44,.9,5.52,3.92,5.39,7.03-.41,10.68-4.15,2.61-4.45,5.52-.72,8.24,5.74,4.18,6.86,9.5,6.03,15.22-.51,3.51-1.9,6.82-5.25,9.41-1.52,1.18-3.04,2.31-5.42,1.52-1.67-.56-3.15-3.05-2.81-4.83,.16-.82,.39-1.69,.87-2.42,2.36-3.51,2.27-7.06,.4-10.63-1.62-3.11-3.15-6.28-5.51-9.11-1.44-1.73-3.64-2.04-5.83-1.12-2.36,1-3.13,2.57-2.14,4.56,.33,.66,.78,1.32,1.36,1.87,2.23,2.11,3.14,4.52,2.87,7.22-.22,2.23-.85,4.41-2.02,6.45-1.63,2.85-4.1,3.48-7.66,2.1-1.1-.43-2.15-.94-3.28-1.32-3.33-1.13-6-.48-7.82,1.98-.92,1.24-1.57,2.61-2.37,3.91-3.33,5.36-6.87,5.89-12.66,2.07-3.93-2.58-5.31-5.57-3.59-9.45,1.08-2.44,1.64-5.01,2.99-7.38,.31-.55,.58-1.12,.95-1.64,1.24-1.76,2.52-3.7,5.44-3.72,2.76-.02,3.88,1.89,5.13,3.48,.32,.41,.6,.84,.95,1.24,2.17,2.49,4.47,2.62,7.14,.41,6.34-5.27,5.19-13.29-2.5-17.38-1.68-.89-3.46-.83-5.27-.24-2.75,.91-4.51,2.65-6.14,4.5-2.95,3.37-5.03,4-10.17,3.1-2.17-.38-4.31-.86-6.58-.78-3.49,.12-4.86,1.42-4.17,4.12,.33,1.31,1.18,2.46,2.04,3.62,1.57,2.11,1.36,2.72-1.19,4.16-4.06,2.28-4.24,4.01-.7,6.86,.86,.69,1.79,1.33,2.62,2.04,2.66,2.27,2.48,4.82-.58,6.73-1.61,1.01-3.44,1.81-5.13,2.74-4.51,2.47-5.19,5.05-2.2,8.61,1.14,1.36,2.43,2.63,3.67,3.93,1.21,1.27,2.1,2.64,2.72,4.15,1.44,3.53,4.84,4.84,9.38,3.75,2.27-.54,4.08-1.64,5.92-2.73,5.87-3.46,8.57-2.75,9.25,2.92,.94,7.93,12.04,9.55,17.88,5.45,1.33-.94,2.86-1.72,4.6-1.99,5.65-.88,10.35-3.29,15.09-5.62,5.47-2.69,10.92-5.38,15.75-8.79,3.35-2.36,6.24-4.99,8.47-8.04,1.82-2.49,4.08-4.66,6.76-6.58,1.87-1.34,3.92-2.31,6.6-2.16,1.25,.07,2.43-.25,3.56-.64,2.29-.79,2.84-1.65,2.18-3.59-.97-2.89-2.86-5.55-3.12-8.64-.21-2.53-.18-5.05-.22-7.58-.06-3.34-.69-6.58-2.35-9.68-.95-1.77-.25-2.63,2.19-2.73,.76-.03,1.59-.06,2.28,.15,9.11,2.74,16.36,6.91,18.51,14.94,.41,1.53,.56,3.1,1.03,4.61,.96,3.08,3.18,4.63,6.15,4.48,3.33-.17,6-2.39,6.34-5.34,.2-1.74,.2-3.49-.48-5.19-1.34-3.35-1.51-6.86-2.28-10.29-.79-3.54-2.6-6.63-5.87-9.21-2.2-1.73-2.61-3.86-1.21-5.18,2.1-1.99,5.41-1.82,7.57,.6,2.45,2.75,5.48,4.81,9.51,6.02,4.66,1.4,9.47-.91,9.82-4.83,.11-1.21-.25-2.37-1.39-3.14-3.34-2.25-5.1-5.22-6.52-8.36-.9-1.98-1.76-3.98-2.72-5.95-1.52-3.1-3.82-5.75-7.39-7.66-.75-.4-1.42-.93-2.02-1.48-3.1-2.83-2.09-5.69,2.43-6.84,1.17-.3,2.39-.46,3.53-.8,2.29-.68,2.75-1.97,1.34-3.56-.22-.25-.47-.48-.74-.69-6.02-4.82-11.98-9.69-18.07-14.45-3.71-2.9-8.03-5.2-13.28-7.28Z"/><path class="cls-6" d="M81.37,126.55c-1.54-6.64,.08-12.58,3.25-18.33,1.46-2.65,3-5.27,4.58-7.88,1.05-1.72,1.12-3.57,.71-5.31-3.36-14.32,10.41-26.91,27.03-28.78,2.87-.32,5.84-.15,8.75-.08,1.79,.04,3.52-.24,5.25-.44,2.54-.3,4.44-2.05,4.52-4.03,.06-1.59-1.33-2.38-3.09-2.7-1.72-.32-3.43-.66-5.03-1.22-3.15-1.11-3.83-3.37-1.29-5.17,5.43-3.85,11.3-7.21,18.55-8.69,1.09-.22,2.3-.26,3.43-.16,4.88,.45,8.99-.91,12.9-3.04,3.32-1.8,6.89-3.25,11.14-2.77,5.38,.6,10.49,1.74,14.63,4.74,3.28,2.38,7.34,3.68,11.37,5,4.11,1.35,8.21,2.7,12,4.56,1.06,.52,2.15,.78,3.2,.11,1.1-.69,1.49-1.66,1.11-2.74-.72-2.09-2.35-3.76-4.05-5.4-.29-.28-.65-.51-.96-.78-2.98-2.59-3.36-4.34-1.43-6.6,1.83-2.14,4.9-2.83,8.6-1.79,4.78,1.33,9.3,3.12,13.64,5.18,7.05,3.34,13.43,7.34,19.37,11.82,2.47,1.87,4.48,4.09,7.38,5.64,1.93,1.03,3.82,1.32,6.04,.73,1.51-.4,3.09-.79,4.67-.9,5.38-.38,8.53,2.15,10.91,5.47,2.22,3.09,3.52,6.53,5.86,9.59,3.58,4.69,6.96,9.48,10.52,14.18,.91,1.2,1.24,2.31,.44,3.55-.85,1.31-2.36,1.54-4.08,1.56-2.55,.03-4.74-.92-7.08-1.46-2.92-.68-5.12-.12-6.29,1.7-1.22,1.91-.57,4.48,1.48,5.75,6.03,3.7,8.67,8.68,9.04,14.56,.36,5.66-.98,11.27-.91,16.91,.02,2.02,.62,4.01,.02,6.07-.62,2.13-2.36,3.25-5.52,3.09-2.15-.11-3.23-1.27-3.32-3.45-.09-2.23,.4-4.44,.43-6.65,.11-9.19-3.55-17.58-9.16-25.54-3.12-4.43-6.84-8.55-10.39-12.76-.13-.15-.28-.29-.41-.44-2.51-3.13-1.43-4.81,3.31-5.04,1.76-.09,3.54-.03,5.3-.01,1.5,.01,2.75-.29,3.33-1.5,.59-1.23,.3-2.47-1.18-2.98-4.12-1.44-6.27-3.95-7.57-7.22-.45-1.14-1.82-2.05-2.8-3.05-2.18-2.24-2.43-2.22-5.77-1.18-4.85,1.51-9.39,1.01-13.2-1.88-2.65-2-5.07-4.19-7.6-6.28-.69-.57-1.41-1.11-2.12-1.66-.87-.67-1.88-1.7-2.95-1.46-1,.23-.33,1.49-.41,2.29-.29,2.8-2.5,4.71-6.11,4.61-5.57-.15-11.13-.6-16.7-.89-2.22-.11-4.45-.09-6.67-.16-7.93-.22-15.5-1.43-22.3-4.85-.76-.38-1.66-.64-2.54-.82-3.5-.69-5.59,.12-5.88,2.9-.55,5.36-4.76,7.52-10.74,8.63-2.97,.55-5.97,1.26-8.31,2.94-2.92,2.1-3.36,4.8-2.36,7.62,1.6,4.52-1.9,7.26-7.19,8.12-11.96,1.94-22.11,6.51-31.17,12.82-8.24,5.75-15.1,12.42-21.47,19.42-1.76,1.93-3.02,4.13-4.71,6.5Z"/><path class="cls-6" d="M148.82,201.07c3.66,6.02,7.22,12,11.8,17.59,5.45,6.65,12.84,11.55,21.51,15.4,7.45,3.32,15.27,5.86,23.77,6.95,2.33,.3,4.67,.69,7.07,.54,1.55-.09,1.76,.39,1.02,1.35-.91,1.18-1.89,2.34-2.7,3.56-1.42,2.15-.53,3.36,2.53,3.4,5.6,.08,11.12-.74,16.69-.96,.76-.03,1.53-.1,2.29-.11,7.46,0,14.93-.26,22.37,.07,7.93,.34,15.88,.34,23.8,1.23,8.38,.94,16.8,1.76,25.19,2.68,.9,.1,1.79,.27,3.13,.47-3.19,1-6.08,1.64-9.1,1.67-6.97,.07-13.95,.03-20.92,.01-2.86,0-5.58,.69-8.35,.99-7.79,.84-14.32,4.48-21.91,5.7-7.15,1.15-14.26,1.08-21.46,.37-8.64-.86-16.79-3.17-25.13-4.91-5.23-1.09-9.91-.26-13.13,3.26-3.16,3.46-7.56,3.91-12.24,3.58-6.25-.44-12.14-1.9-17.33-4.82-2.92-1.64-4.77-3.65-5.54-6.54-1.51-5.66-4.61-7.02-11.59-7.36-5.05-.24-7.7-1.76-9.32-5.52-3.18-7.42-7.77-14.38-11.3-21.69-2.75-5.69-4.6-11.54-5.09-18,3.05,2.39,5.11,4.91,6.95,7.55,4.04,5.82,6.46,12.23,10.59,18.02,6.6,9.24,16.03,16.03,28.77,19.77,3.94,1.15,8.11,1.71,12.38,1.68,1.62,0,2.86-.25,3.47-1.55,.65-1.38-.41-2.18-1.6-2.89-3.42-2.04-6.74-4.18-9.7-6.62-6.18-5.08-10.94-10.82-12.69-17.84-.26-1.05-.42-2.13-.47-3.21-.14-2.99-2.18-5.46-3.44-8.15-.86-1.83-.57-3.77-.32-5.68Z"/><path class="cls-3" d="M224.74,284.95c-5.58,4.57-12.43,7.55-19.87,9.84-6.32,1.95-12.95,2.4-19.61,2.77-6.68,.37-13.23,1.1-19.57,2.94-3.69,1.08-7.45,.04-11.09-.58-10.64-1.81-19.54-6.22-27.76-11.61-8.73-5.72-16.41-12.34-25.27-17.93-2.21-1.39-3.48-3.01-4.38-5.07-1.91-4.36-5.14-8.22-8.5-11.95-4.19-4.66-6.18-9.76-7.1-15.38-1.12-6.87-4.48-13.22-11.1-18.03-7.1-5.16-10.7-11.46-11.46-18.9-.97-9.47-2.12-18.93-1.81-28.46,.04-1.15,.14-2.28,.74-3.67,3.26,9.26,7.76,17.97,10,27.19,.39,1.59,1.2,2.99,3.07,3.85,8.81,4.07,13.12,10.4,14.76,18.06,.42,1.95,.6,3.94,.99,5.89,.21,1.06,.45,2.16,.99,3.14,3.51,6.36,7.28,12.58,13.18,17.9,4.35,3.92,8.09,8.2,9.46,13.45,.2,.76,.32,1.54,.37,2.32,.22,3.5,3.49,6.38,7.88,6.92,5.34,.66,9.25,3.05,12.33,6.38,1.67,1.8,3.16,3.71,4.84,5.5,5.65,6.03,13.06,10.1,22.28,12.08,5,1.07,10.05,.56,15.09,.12,5.48-.48,10.97-.94,16.47-1.33,11.26-.8,22.39-2.02,33.05-5.17,.66-.19,1.29-.39,2.01-.29h.01Z"/><path class="cls-3" d="M15.7,112.41c2.45-1.69,2.65-3.54,1.48-5.97-2.79-5.82-1.21-10.99,4.4-15.5,3.57-2.87,7.94-4.88,11.91-7.33,4.27-2.64,7.63-5.8,8.64-10.09,.91-3.9,4.58-5.09,8.71-6,2.1-.1,4.03-.74,5.92-1.36,12.18-3.98,24.88-4.98,37.92-4.32,2.04,.1,4.1,.01,6.35,.01-.19,.97-.98,1.28-1.59,1.65-4.04,2.47-8.49,4.39-13.35,5.59-9.54,2.36-17.54,6.51-24.38,12.17-4.46,3.69-9.39,6.9-15.38,9.04-2.76,.99-3.27,3.25-1.42,5.05,3.84,3.75,4.12,7.49,.73,11.47-1.27,1.5-2.67,2.96-4.22,4.28-5.4,4.59-7.54,10.22-8.66,16.2-1.1,5.94-1.79,11.93-4.76,17.57-.75,1.42-.04,3.37-2.56,4.11-3.63-1.1-5.42-3.45-6.45-6.15-.8-2.11-1.35-4.3-1.75-6.48-.49-2.69-1.82-5.05-3.88-7.19,3.94-2.5,6.68-5.43,6.11-9.71-.36-2.68-2.1-4.85-3.77-7.08Z"/><path class="cls-6" d="M150.09,228.58c-5.13-2.12-8.8-5.25-11.81-8.95-3.93-4.85-5.78-10.3-7.71-15.75-3.02-8.5-6.9-16.71-13.85-23.8-2.57-2.62-5.46-5-8.72-7.14-4.38-2.87-6.57-6.64-6.99-11.15-.51-5.47,1.39-10.44,4.18-15.34,1.92-3.38,2.71-6.86,.48-10.42-.94-1.49-.4-2.55,1.42-3.65,3.72-2.26,6.59-5.17,8.83-8.46,2.28-3.34,4.49-6.71,7.2-9.86,4.19-4.88,9.86-7.9,17.36-8.89,7.85-1.04,15.07-3.62,22.31-6.07,7.06-2.39,14.28-4.33,21.96-5,1.59-.14,3.22-.02,5.35-.02-3.15,.95-5.89,1.71-8.57,2.6-8.39,2.78-15.86,6.79-23.43,10.69-5.38,2.77-10.76,5.59-16.54,7.82-4.45,1.72-8.98,7.83-7.19,12.38,1.87,4.74-1.05,9.88-7.02,13.09-6.16,3.31-9.8,7.82-10.45,13.57-.5,4.47,1.32,8.69,4.1,12.57,4.23,5.92,7.07,12.26,9.57,18.7,3.7,9.53,6.38,19.29,10.88,28.63,2.26,4.68,5,9.17,8.41,13.41,.2,.24,.54,.44,.22,1.08Z"/><path class="cls-3" d="M219.68,25.09c2.62-1.46,5.08-1.81,8.03-1.39,16.36,2.32,32.76,4.48,49.14,6.71,5.06,.69,10.11,1.38,15.15,2.14,6.38,.96,10.22,4.21,11.21,9.23,.59,3.03,2.23,5.31,6.36,6.41,4.45,1.18,7.51,3.92,9.88,7.03,2.64,3.46,5.11,7,7.68,10.49,.59,.79,.56,1.16-.79,1.19-2.91,.06-5.68-.54-7.6-2.16-9.28-7.8-21.12-12.75-32.5-18.22-3.21-1.54-6.3-3.23-9.25-5.07-1-.63-2.04-1.02-3.35-1.02-10.98,0-21.13-2.65-31.05-6.01-7.84-2.65-15.25-5.94-22.92-9.33Z"/><path class="cls-6" d="M286.95,238.74c4.14-.51,8.3-.93,12.42-1.56,2.97-.46,5.93-1.17,6.89-3.86,.46-1.27,.14-2.61,.52-3.93,1.07-3.83,3.96-5.86,8.97-5.91,2.77-.03,5.5-.24,8.2-.68,1.35-.22,2.48,.21,3.44,.79,5.34,3.2,10.51,2.16,15.58-.34,3.91-1.93,6.91-4.74,10.6-6.89,1.47-.85,2.96-1.66,4.94-2.15-.14,1.5-1.2,2.58-1.88,3.73-3.13,5.37-6.41,10.67-10.97,15.42-4.25,4.43-9.43,7.79-16.5,9.24-6.75,1.38-13.43,2.92-20.48,2.92-7.8,0-14.7-2.06-20.87-5.74-.37-.22-.78-.39-1.18-.58l.31-.46Z"/><path class="cls-3" d="M76,138.01c.59,8.66,5.15,16.41,8.64,24.41,2.11,4.83,3.64,9.79,4.66,14.84,.37,1.83-.63,3.52-2.36,4.13-1.97,.69-4.16,.22-5.74-1.27-1.14-1.07-2.05-2.29-2.57-3.61-2.74-6.87-6.22-13.58-7.73-20.73-1.35-6.4-.04-12.4,5.11-17.78Z"/><path class="cls-6" d="M248.24,270.37c-4.76,1.01-9.47,1.99-14.13,3.12-5.84,1.42-11.67,2.89-17.72,3.69-9.88,1.31-19.36,.57-28.19-3.46-1.29-.59-2.29-1.4-3.12-2.34-.79-.89-1.82-2.06-1.19-2.94,.56-.78,2.16,.01,3.3,.12,4.85,.45,9.69,.97,14.57,1.23,15.48,.81,30.99,.06,46.47,.58Z"/><path class="cls-6" d="M65.3,106.57c-6.23,17.38-6.32,35.14-6.21,53.31-1.87-1.64-3.19-3.15-4.15-4.79-4.34-7.45-4.99-15.22-3.48-23.25,1.22-6.5,3.82-12.6,7.7-18.38,1.66-2.48,3.51-4.89,6.13-6.88Z"/><path class="cls-3" d="M109.76,217.24c-5.72-4.52-8.98-9.85-11.46-15.51-1.52-3.46-2.75-7.01-4.21-10.49-.48-1.15-.13-2.14,.53-3.11,.98-1.44,2.64-1.7,4.18-.6,1.81,1.3,3.5,2.71,5.22,4.08,.5,.4,.83,.89,.78,1.46-.47,5.43,1.96,10.41,3.81,15.49,1,2.74,1.54,5.51,1.14,8.68Z"/><path class="cls-3" d="M236.76,283.93c6.39-1.38,12.79-2.76,19.18-4.15,8.04-1.74,16.07-3.51,24.13-5.2,.73-.15,2.01-1.04,2.46,.26,.37,1.08,1.67,2.18-.39,3.3-5.87,3.2-12.37,4.94-19.37,5.73-8.62,.97-17.26,.65-26.01,.06Z"/><path class="cls-3" d="M236.36,241.61c14.95-1.01,29.77-4.51,45.2-1.34-1.04,1.21-2.59,1.47-3.91,1.94-7.94,2.81-16.25,2.65-24.61,1.69-5.58-.64-11.06-1.69-16.68-2.29Z"/><path class="cls-3" d="M132.16,258.34c9.49,9.53,18.59,18.8,34.15,21.99-4.8,1.68-12.97,.22-18.17-2.37-9.26-4.61-16.43-13.12-15.98-19.62Z"/><path class="cls-3" d="M174,117.16c-.43,1.23-1.79,1.92-2.77,2.82-6.8,6.24-14.52,11.7-22.99,16.58-.42-3.26,2.4-8.37,6.44-11.26,5.54-3.97,12.47-6,19.29-8.16l.03,.03Z"/><path class="cls-3" d="M173.96,117.14l.25-.17c-.07,.06-.14,.13-.22,.19l-.03-.03Z"/><path class="cls-3" d="M224.73,284.94l.16-.23c.32,.22-.04,.19-.15,.24h-.01Z"/><path class="cls-3" d="M5.77,211.99c1.76-6.29,.34-12.44-.91-18.6-1.12-5.53-2.05-11.07,.22-16.57,.59-1.43,1.35-2.81,2.22-4.15,.59-.92,1.01-.92,1.61,0,1.32,2.07,2.01,4.29,2.48,6.54,2.01,9.75,1.46,19.38-2.6,28.8-.63,1.46-1.4,2.9-3.02,3.98Z"/></g></g></g></g></g></g></svg>