<?xml version="1.0" encoding="UTF-8"?><svg id="Layer_2" xmlns="http://www.w3.org/2000/svg" viewBox="0 0 52.79 22.32"><defs><style>.cls-1,.cls-2{fill:#222;}.cls-2{opacity:.55;}</style></defs><g id="Laag_4"><g><polygon class="cls-1" points="9.79 .95 10.39 2.51 9.98 3.59 10.8 3.59 11.21 4.66 9.59 4.66 9.2 5.63 7.86 5.63 9.79 .95"/><polygon class="cls-1" points="10.27 .1 11.45 .1 13.7 5.63 12.37 5.63 10.27 .1"/><path class="cls-1" d="M14.29,1.74v3.85h2.81c1.32-.31,2.24-1.52,2.19-2.84-.05-1.25-.95-2.33-2.19-2.62h-2.81v.93h2.42c.82,.17,1.41,.87,1.44,1.68,.04,.86-.59,1.81-1.44,1.83h-1.28V1.73l-1.15,.02Z"/><polygon class="cls-1" points="25.5 .11 25.5 5.62 24.39 5.62 20.3 .11 21.68 .11 24.34 3.65 24.35 .11 25.5 .11"/><polygon class="cls-1" points="20.3 1.49 20.3 5.62 21.51 5.62 21.51 3.03 20.3 1.49"/><rect class="cls-1" x="26.86" y=".11" width="1.12" height="5.5"/><polygon class="cls-1" points="35.44 .11 36.58 .11 36.58 2.35 38.48 2.35 38.48 3.39 36.58 3.39 36.58 5.62 35.44 5.62 35.44 .11"/><rect class="cls-1" x="39.25" y=".11" width="1.14" height="5.5"/><rect class="cls-1" x="41.29" y=".11" width="4.44" height="1.08"/><rect class="cls-1" x="42.97" y="1.77" width="1.1" height="3.84"/><path class="cls-1" d="M34.42,1.21v.02l-.93,.64c-.08-.12-.17-.22-.27-.32-.2-.2-.46-.35-.74-.42-.15-.06-.31-.07-.47-.07-.16,0-.31,.02-.45,.06-.67,.17-1.18,.71-1.29,1.41-.02,.09-.03,.19-.03,.29,0,.27,.06,.53,.18,.75,.05,.11,.1,.2,.18,.3,.23,.32,.57,.56,.96,.65,.14,.05,.29,.06,.45,.06,.17,0,.32-.02,.47-.07v1.18c-.16,.03-.32,.04-.47,.04-.15,0-.3,0-.45-.04-.8-.11-1.49-.54-1.94-1.14-.22-.29-.39-.61-.48-.97-.06-.22-.09-.46-.09-.71,0-.11,0-.21,.02-.32,.15-1.29,1.18-2.32,2.49-2.5,.15-.03,.3-.04,.45-.04,.16,0,.32,0,.47,.04,.26,.04,.51,.11,.74,.21,.48,.21,.9,.55,1.2,.96Z"/><path class="cls-1" d="M32.53,2.54h1.89v1.97c-.3,.42-.71,.75-1.2,.96v-1.9h-1.66v-1.04h.96Z"/><path class="cls-2" d="M34.19,1.22h0s0,0,0,0Z"/><path class="cls-1" d="M48.28,5.08h1.1l.94-1.31-.54-.68-1.51,1.99Z"/><path class="cls-1" d="M48.48,.65l1.59,2.12,.41,.52,.13,.16,.11,.15,.95,1.34h1.11l-1.64-2.17,1.6-2.12h-1.1l-1.04,1.43-1.03-1.43h-1.1Z"/><g><path class="cls-1" d="M28.51,12.26h2.96v-2.14h3.08c1.22,0,2.02,.55,2.02,1.62,0,1-.63,1.67-2.09,1.67h-5.96v8.74h6.54c3.06,0,4.99-1.84,4.99-4.32,0-1.89-1.27-2.93-2.23-3.28,.96-.45,1.84-1.52,1.84-3.14,0-1.89-1.35-3.7-4.82-3.7h-6.32v4.55Zm5.87,3.55c1.72,0,2.48,.74,2.48,1.91,0,1.32-.77,2.01-2.46,2.01h-2.84v-3.92h2.81Z"/><polygon class="cls-1" points="16.04 9.77 17.65 13.95 16.55 16.85 18.74 16.85 19.83 19.71 15.49 19.71 14.46 22.32 10.86 22.32 16.04 9.77"/><polygon class="cls-1" points="17.32 7.49 20.48 7.49 26.52 22.32 22.95 22.32 17.32 7.49"/><rect class="cls-1" y="19.41" width="9.43" height="2.9"/><rect class="cls-1" y="7.49" width="2.96" height="10.39"/><g><path class="cls-1" d="M52.14,9.4l-.45,1.04-.35,.84c-.1-.07-.19-.15-.29-.22-.1-.07-.16-.15-.26-.17t-.06-.07c-1.03-.7-2.12-1.04-3.31-1.04-.87,0-1.54,.2-2.03,.55-.51,.37-.74,.89-.74,1.54,0,.57,.23,.99,.64,1.27,.45,.3,1.19,.57,2.25,.84l-1.83,1.86c-.51-.17-.96-.35-1.35-.52-.68-.35-1.22-.77-1.58-1.29-.35-.52-.51-1.19-.51-1.99,0-.84,.23-1.59,.64-2.24s1.03-1.17,1.8-1.54,1.67-.55,2.7-.55c.93,0,1.8,.15,2.64,.45,.87,.3,1.54,.72,2.09,1.24Z"/><path class="cls-1" d="M43.01,18.32l-.52,1.14-.48,1.09c.64,.55,1.38,.94,2.28,1.24,.87,.3,1.83,.45,2.86,.45s1.99-.17,2.8-.52c.8-.32,1.41-.82,1.83-1.47,.42-.62,.64-1.37,.64-2.21,0-.77-.19-1.42-.58-1.94-.35-.5-.9-.92-1.58-1.24-.51-.25-1.13-.47-1.87-.67l-1.87,1.86c.16,.05,.32,.07,.51,.12,1.06,.27,1.83,.52,2.28,.82,.19,.13,.36,.27,.48,.47,.06,.1,.23,.38,.19,.74-.02,.26-.14,.43-.31,.69-.17,.26-.36,.46-.49,.57-.72,.61-1.9,.54-2.03,.53-.57-.05-1.37-.19-2.26-.56-.85-.35-1.48-.78-1.92-1.13Z"/></g></g><polygon class="cls-1" points="7.23 .11 4.47 3.83 3.77 4.78 3.06 3.83 .3 .11 1.69 .11 3.77 2.88 5.85 .11 7.23 .11"/><polygon class="cls-1" points=".3 1.49 .3 5.62 1.51 5.62 1.51 3.03 .3 1.49"/><polygon class="cls-1" points="7.23 1.48 7.23 5.61 6.03 5.61 6.03 3.02 7.23 1.48"/></g></g></svg>